<?xml version="1.0" standalone="no"?>
<!DOCTYPE svg PUBLIC "-//W3C//DTD SVG 1.1//EN" "http://www.w3.org/Graphics/SVG/1.1/DTD/svg11.dtd" >
<svg xmlns="http://www.w3.org/2000/svg" xmlns:xlink="http://www.w3.org/1999/xlink" version="1.1">
<metadata>
Created by FontForge 20170731 at Tue Jul 25 23:42:12 2017
 By Aleksey,,,
Copyright (c) 2016 by Zetafonts. All rights reserved.
</metadata>
<defs>
<font id="AristaPro-Light" horiz-adv-x="400" >
  <font-face 
    font-family="Arista Pro Light"
    font-weight="300"
    font-stretch="normal"
    units-per-em="2048"
    panose-1="2 0 5 6 2 0 0 2 0 4"
    ascent="1638"
    descent="-410"
    x-height="965"
    cap-height="1311"
    bbox="-371 -645 2078 1789"
    underline-thickness="0"
    underline-position="0"
    unicode-range="U+0020-FB06"
  />
<missing-glyph horiz-adv-x="461" 
 />
    <glyph glyph-name=".notdef" horiz-adv-x="461" 
 />
    <glyph glyph-name="glyph1" horiz-adv-x="0" 
 />
    <glyph glyph-name="glyph2" horiz-adv-x="682" 
 />
    <glyph glyph-name="space" unicode=" " horiz-adv-x="461" 
 />
    <glyph glyph-name="exclam" unicode="!" horiz-adv-x="422" 
d="M209 283q-28 0 -47 20t-19 49v891q0 28 19.5 48t47.5 20t47 -20t19 -48v-891q0 -29 -19 -49t-48 -20zM211 0q-32 0 -55 22t-23 54q0 33 22.5 56t55.5 23t55 -22q23 -23 23 -55t-23.5 -55t-54.5 -23z" />
    <glyph glyph-name="quotedbl" unicode="&#x22;" horiz-adv-x="604" 
d="M155 843q-27 0 -46 19.5t-19 46.5v340q0 26 19 43.5t46 17.5q28 0 48 -18.5t20 -47.5v-335q0 -26 -20.5 -46t-47.5 -20zM447 843q-26 0 -46 20t-20 46v335q0 29 19 47.5t47 18.5q29 0 48.5 -18.5t19.5 -47.5v-335q0 -26 -20 -46t-48 -20z" />
    <glyph glyph-name="numbersign" unicode="#" horiz-adv-x="1233" 
d="M696 1q-30 0 -50.5 19.5t-20.5 45.5v9l2 8l71 298h-328l-79 -331q-11 -48 -67 -48q-30 0 -49.5 17.5t-19.5 42.5v8q0 1 2 9l71 302h-137q-29 0 -46.5 18.5t-17.5 46.5q0 30 18 50t45 20h170l75 316h-142q-27 0 -44.5 18.5t-17.5 48.5t17 49.5t44 19.5h175l71 302
q5 22 25.5 36.5t44.5 14.5q30 0 49 -20.5t19 -50.5q0 -12 -3 -24l-62 -258h326l71 296q6 24 25.5 40t44.5 16q30 0 49.5 -20.5t19.5 -51.5q0 -10 -3 -22l-62 -258h147q30 0 46.5 -18.5t16.5 -51.5q0 -27 -17.5 -46.5t-43.5 -19.5h-182l-76 -316h159q29 0 46.5 -18t17.5 -46
q0 -31 -17 -51t-46 -20h-193l-79 -331q-5 -22 -23.5 -35.5t-41.5 -13.5zM403 516h327l75 316h-327z" />
    <glyph glyph-name="dollar" unicode="$" horiz-adv-x="972" 
d="M845 636q109 -104 109 -254q0 -155 -111 -269q-110 -113 -266 -113h-27v-103q0 -24 -16.5 -41t-39.5 -17q-25 0 -42 17t-17 41v103h-229q-36 0 -57 19t-21 52q0 61 78 61h388q88 0 157 69t69 174q0 102 -73 169q-68 62 -160 62h-166q-150 0 -257 97q-107 96 -107 247
q0 74 28.5 143.5t78.5 118.5q110 105 257 105h14v86q0 25 17.5 42t42.5 17q23 0 39 -17t16 -42v-86h239q79 0 79 -65q0 -33 -21 -51t-58 -18h-390q-83 0 -146 -63t-63 -160q0 -93 63 -158q64 -64 146 -64h183q155 -2 263 -102z" />
    <glyph glyph-name="percent" unicode="%" horiz-adv-x="1455" 
d="M356 695q-131 0 -220 92q-92 89 -92 221q0 129 92 221q91 91 220 91q130 0 221 -91q91 -94 91 -221q0 -130 -91 -221q-89 -92 -221 -92zM448 -2q-26 0 -43.5 18t-17.5 43q0 14 6 26l556 1190q17 36 57 36q27 0 43 -18t16 -46q0 -17 -6 -30l-557 -1184q-17 -35 -54 -35z
M356 820q79 0 134 55t55 133t-55 133q-54 54 -134 54q-78 0 -132 -54q-55 -55 -55 -133t55 -133t132 -55zM1100 -11q-129 0 -220 91t-91 220q0 127 91 221q89 92 220 92q129 0 221 -92q91 -94 91 -221q0 -129 -91 -220q-94 -91 -221 -91zM1100 112q79 0 134 55t55 133
q0 79 -55 134q-54 54 -134 54q-78 0 -132 -54q-56 -56 -56 -134q0 -77 56 -133q55 -55 132 -55z" />
    <glyph glyph-name="ampersand" unicode="&#x26;" horiz-adv-x="1183" 
d="M442 -13q-165 0 -282 117q-116 116 -116 281q0 116 62 208q56 81 151 137l-28 26q-49 46 -83 106q-40 71 -40 141q0 132 92 224q93 93 224 93q132 0 223 -91q91 -94 91 -224q0 -221 -250 -312l315 -294l151 176q21 24 52 24q26 0 45 -20t19 -46q1 -23 -17 -46l-154 -177
l212 -197q30 -28 30 -56q0 -23 -23 -43q-23 -17 -41 -17q-21 0 -40 18l-219 201l-72 -84q-61 -68 -138 -106q-81 -39 -164 -39zM386 786l30 8h2q92 26 144 82.5t52 125.5q0 78 -53 134q-52 55 -135 55t-132 -54q-53 -56 -53 -134q0 -43 30 -93q26 -45 59 -73zM437 118
q55 0 115 30q50 25 91 66l3 4l74 86l-372 343q-86 -37 -133 -102.5t-47 -151.5q0 -111 78 -192q78 -83 191 -83z" />
    <glyph glyph-name="quotesingle" unicode="'" horiz-adv-x="312" 
d="M155 845q-27 0 -46.5 20t-19.5 47v336q0 28 19.5 47t46.5 19q28 0 47.5 -19t19.5 -47v-336q0 -27 -20 -47t-47 -20z" />
    <glyph glyph-name="parenleft" unicode="(" horiz-adv-x="644" 
d="M557 -324h-7q-191 2 -305 114q-111 109 -111 281v853q5 171 118 278q115 109 305 109q29 0 47.5 -19t18.5 -47t-18.5 -47.5t-47.5 -19.5h-41q-103 0 -175 -77q-74 -77 -74 -185v-842q0 -107 71 -184q71 -81 179 -81h40q29 0 47.5 -19.5t18.5 -48.5q0 -28 -18.5 -46.5
t-47.5 -18.5z" />
    <glyph glyph-name="parenright" unicode=")" horiz-adv-x="645" 
d="M468 918v-2v-851q-2 -169 -114 -277q-114 -110 -303 -112h-6q-29 0 -48 18.5t-19 46.5q0 29 19 48.5t48 19.5h40q101 0 176 78q72 77 74 178v856q-5 107 -76 181q-71 76 -173 76h-41q-29 0 -48 19.5t-19 47.5t19 47t48 19q192 0 310 -113q111 -110 113 -280z" />
    <glyph glyph-name="asterisk" unicode="*" horiz-adv-x="626" 
d="M316 776q-28 0 -48 19t-20 48v108l-90 -53q-16 -13 -40 -13q-27 0 -46.5 19.5t-19.5 46.5q0 33 29 56l104 62l-103 62q-30 18 -30 52q0 29 20 49t47 20q24 0 40 -13l89 -53v108q0 29 20 48.5t49 19.5q28 0 46.5 -19.5t18.5 -48.5v-109l88 53q16 13 41 13q27 0 46.5 -19.5
t19.5 -48.5q0 -36 -29 -53l-103 -61l104 -61q28 -19 28 -54q0 -29 -19.5 -48.5t-46.5 -19.5q-24 0 -40 13l-89 53v-109q0 -29 -19 -48t-47 -19z" />
    <glyph glyph-name="plus" unicode="+" horiz-adv-x="821" 
d="M410 245q-28 0 -47.5 19.5t-19.5 48.5v254h-253q-29 0 -48.5 19.5t-19.5 47.5t19.5 48t48.5 20h253v254q0 29 19.5 48t47.5 19q29 0 48.5 -19t19.5 -48v-254h254q28 0 48 -20t20 -49q0 -28 -20 -47t-48 -19h-254v-254q0 -29 -20 -48.5t-48 -19.5z" />
    <glyph glyph-name="comma" unicode="," horiz-adv-x="379" 
d="M180 -267q-29 0 -48.5 19.5t-19.5 48.5v326q0 29 19.5 49.5t48.5 20.5t47.5 -20t18.5 -50v-326q0 -29 -18.5 -48.5t-47.5 -19.5z" />
    <glyph glyph-name="hyphen" unicode="-" horiz-adv-x="932" 
d="M767 496h-631q-28 0 -48 20t-20 48t20 48t48 20h631q29 0 49 -20.5t20 -47.5q0 -29 -20 -48.5t-49 -19.5z" />
    <glyph glyph-name="period" unicode="." horiz-adv-x="416" 
d="M197 -29q-35 0 -60 25t-25 60q0 36 25 61t60 25q36 0 61 -25t25 -61q0 -35 -25 -60t-61 -25z" />
    <glyph glyph-name="slash" unicode="/" horiz-adv-x="559" 
d="M89 2q-27 0 -47 20t-20 47q0 15 4 22l378 1171q17 48 66 48q29 0 48 -22t19 -53q0 -11 -3 -21l-380 -1165q-7 -21 -25 -34t-40 -13z" />
    <glyph glyph-name="zero" unicode="0" horiz-adv-x="1135" 
d="M570 -12q-99 0 -187.5 36.5t-156.5 102.5q-140 138 -140 331v395q0 192 140 332q141 139 344 139q202 0 343 -139q140 -140 140 -332v-395q0 -193 -140 -331q-145 -139 -343 -139zM570 122q149 0 251 100q98 95 98 235v397q0 140 -98 235q-102 100 -251 100t-252 -100
q-99 -96 -99 -235v-397q0 -141 99 -235q103 -100 252 -100z" />
    <glyph glyph-name="one" unicode="1" horiz-adv-x="524" 
d="M326 0q-29 0 -49 19.5t-20 47.5v1059l-110 -69q-17 -11 -40 -11q-26 0 -44.5 18.5t-18.5 46.5q0 38 33 58l209 131q20 10 40 10q29 0 46.5 -19.5t17.5 -49.5v-1174q0 -28 -17.5 -47.5t-46.5 -19.5z" />
    <glyph glyph-name="two" unicode="2" horiz-adv-x="944" 
d="M832 0h-720q-28 0 -47 18.5t-19 46.5v12q2 28 22 41l549 572q54 54 88 110q46 74 46 143q0 111 -80 182q-77 68 -190 68q-107 0 -183 -60q-78 -62 -90 -160q0 -33 -18 -52.5t-46 -19.5q-30 0 -48 18t-18 48q0 64 29 127.5t82 113.5q118 112 290 112q177 0 290 -101
q114 -102 114 -270q-1 -185 -166 -349l-460 -467h575q30 0 49 -18t19 -47t-19.5 -48.5t-48.5 -19.5z" />
    <glyph glyph-name="three" unicode="3" horiz-adv-x="951" 
d="M457 -12q-124 0 -236 65q-109 63 -166 172q-11 20 -11 40q0 25 19 43t48 18q39 0 59 -35l2 -4q43 -76 119 -120.5t168 -44.5q130 0 222 92t92 222q0 129 -93 211q-88 79 -223 79h-89q-27 2 -45 22t-18 46q0 28 21 49l344 338h-501q-30 0 -49.5 17t-19.5 46q0 27 20 47
t49 20h651q29 0 47 -20t18 -50q0 -27 -19 -46l-343 -340q166 -23 273 -135q110 -120 110 -284q0 -90 -34.5 -172.5t-97.5 -143.5q-132 -132 -317 -132z" />
    <glyph glyph-name="four" unicode="4" horiz-adv-x="950" 
d="M696 465h143q29 0 48 -20t19 -48t-19 -47.5t-48 -19.5h-143v-262q0 -28 -18.5 -48t-47.5 -20t-48.5 20t-19.5 48v262h-449q-31 0 -50 17.5t-19 49.5q0 10 1 11l3 13l1 1v1l1 2l1 1l3 7l1 2l399 835q17 42 63 42q28 0 47 -19.5t19 -45.5q0 -15 -6 -28l-377 -754h362v126
q0 29 20 49t48 20t47 -20t19 -49v-126z" />
    <glyph glyph-name="five" unicode="5" horiz-adv-x="948" 
d="M450 -12q-126 0 -233 66q-105 63 -161 173q-12 19 -12 40q0 24 19.5 43t47.5 19q41 0 61 -36q0 -1 2 -3q43 -79 112 -121q77 -47 164 -47q134 0 226 86q94 88 94 229q0 132 -101 220q-96 83 -211 83h-308q-28 1 -46.5 19t-18.5 46l-2 446q2 18 13 32.5t28 20.5l13 5
q6 0 7 1t10 1h596q28 0 47.5 -20t19.5 -48q0 -29 -19.5 -48t-47.5 -19h-532v-303h226q193 0 327 -121q133 -125 133 -311q0 -187 -133 -320t-321 -133z" />
    <glyph glyph-name="six" unicode="6" horiz-adv-x="1064" 
d="M532 -12q-201 0 -344 143q-69 67 -106.5 156.5t-37.5 187.5q0 157 88 282l314 519q20 37 61 37q28 0 47 -19.5t19 -45.5q0 -21 -12 -39l-165 -263q66 19 136 19q99 0 188.5 -37.5t157.5 -105.5q68 -69 105 -158.5t37 -188.5q0 -98 -37.5 -187.5t-104.5 -156.5
q-68 -68 -157.5 -105.5t-188.5 -37.5zM532 121q151 0 253 105q103 103 103 249q0 148 -103 251q-104 104 -253 104q-147 0 -251 -104t-104 -251q0 -145 104 -249q102 -105 251 -105z" />
    <glyph glyph-name="seven" unicode="7" horiz-adv-x="927" 
d="M279 -2q-28 0 -45.5 18t-17.5 44q0 21 10 41l482 1076h-590q-29 0 -49 19t-20 48q0 28 20 47.5t49 19.5h696q27 0 47 -19.5t20 -48.5v-6q-1 -12 -8 -27l-533 -1175q-21 -37 -61 -37z" />
    <glyph glyph-name="eight" unicode="8" horiz-adv-x="902" 
d="M451 -12q-168 0 -288 120q-119 121 -119 288q0 112 60 206q57 90 156 144q-131 95 -131 246q0 135 95 228q94 91 225 91q132 0 226 -91q94 -94 94 -228q0 -74 -35 -137t-97 -106q99 -54 159 -144q62 -98 62 -209q0 -169 -119 -288q-120 -120 -288 -120zM449 795
q83 0 144 61q60 60 60 144q0 81 -60 144q-61 61 -144 61q-84 0 -144 -60t-60 -144q0 -85 60 -145q61 -61 144 -61zM451 121q115 0 193 81q80 80 80 194q0 113 -80 193q-77 80 -193 80q-111 0 -193 -80q-81 -81 -81 -193q0 -113 81 -194t193 -81z" />
    <glyph glyph-name="nine" unicode="9" horiz-adv-x="1052" 
d="M527 1318q198 0 339 -141q143 -143 143 -340q0 -155 -87 -279l-311 -512q-19 -37 -60 -37q-27 0 -46 19.5t-19 44.5q0 21 12 39l163 260q-66 -19 -134 -19q-201 0 -342 141q-140 142 -140 343q0 97 36.5 185t103.5 155q141 141 342 141zM527 1186q-149 0 -250 -103
q-102 -102 -102 -246q0 -146 102 -248q103 -103 250 -103q144 0 247 103q103 101 103 248q0 145 -103 246q-101 103 -247 103z" />
    <glyph glyph-name="colon" unicode=":" horiz-adv-x="419" 
d="M199 791q-36 0 -61.5 25.5t-25.5 61.5t25.5 61.5t61.5 25.5t61 -25.5t25 -61.5t-25 -61.5t-61 -25.5zM199 -11q-36 0 -61.5 24.5t-25.5 60.5q0 37 25.5 62.5t61.5 25.5t61 -25.5t25 -62.5q0 -35 -25 -60t-61 -25z" />
    <glyph glyph-name="semicolon" unicode=";" horiz-adv-x="419" 
d="M199 791q-36 0 -61.5 25.5t-25.5 61.5t25.5 61.5t61.5 25.5t61 -25.5t25 -61.5t-25 -61.5t-61 -25.5zM180 -267q-29 0 -48.5 19.5t-19.5 48.5v326q0 29 19.5 49.5t48.5 20.5t47.5 -20t18.5 -50v-326q0 -29 -18.5 -48.5t-47.5 -19.5z" />
    <glyph glyph-name="less" unicode="&#x3c;" horiz-adv-x="754" 
d="M628 286q-14 0 -27 7l-511 282q-30 14 -30 50q0 31 29 48l512 269q14 8 29 8q21 0 37.5 -16.5t16.5 -39.5q-2 -36 -27 -48l-426 -224l423 -233q28 -16 28 -48q0 -23 -16 -39t-38 -16z" />
    <glyph glyph-name="equal" unicode="=" horiz-adv-x="862" 
d="M720 677h-573q-29 0 -48.5 20.5t-19.5 49.5q0 28 19.5 47t48.5 19h573q29 0 49 -19.5t20 -47.5t-20 -48.5t-49 -20.5zM720 273h-573q-29 0 -48.5 20t-19.5 49q0 28 19.5 47t48.5 19h573q29 0 49 -19.5t20 -47.5t-20 -48t-49 -20z" />
    <glyph glyph-name="greater" unicode="&#x3e;" horiz-adv-x="770" 
d="M95 286q-22 0 -38 16t-16 39q0 32 28 48l422 233l-425 224q-27 13 -27 48q0 23 16.5 39.5t37.5 16.5q14 0 28 -8l514 -269q11 -7 18 -18l3 -4l4 -11q3 -9 3 -18q0 -12 -8 -26l-5 -7q-9 -10 -16 -14l-512 -282q-13 -7 -27 -7z" />
    <glyph glyph-name="question" unicode="?" horiz-adv-x="964" 
d="M390 315q-29 0 -48 19.5t-19 48.5v211q0 29 19.5 49t47.5 20h99q110 0 188 75q77 74 77 182q0 115 -75 190q-77 77 -189 77q-110 0 -184 -74q-80 -80 -81 -187v-6q0 -29 -18.5 -49t-46.5 -20q-29 0 -49 20t-20 49v7q2 163 118 278q117 115 279 115q166 0 283 -117
t117 -283q0 -163 -118 -278q-115 -113 -283 -113h-31v-146q0 -29 -18.5 -48.5t-47.5 -19.5zM389 -11q-30 0 -54 24q-23 23 -23 53q0 34 22.5 57t54.5 23q33 0 56 -23t23 -57q0 -31 -23 -54t-56 -23z" />
    <glyph glyph-name="at" unicode="@" horiz-adv-x="1545" 
d="M1401 989q100 -165 100 -355q0 -180 -47 -282q-28 -61 -88 -94q-61 -33 -124 -33q-80 0 -138 54q-57 51 -65 123q-47 -61 -112 -101q-73 -42 -152 -42q-148 0 -254 106q-106 103 -106 254q0 148 106 254q105 105 254 105q147 0 249 -105q103 -106 103 -255v-144
q2 -53 33 -86q33 -35 79 -35q37 0 67.5 22.5t41.5 59.5q0 2 3 2q21 77 21 187q0 119 -45.5 227t-129.5 190q-82 82 -192.5 127t-232.5 45q-164 0 -301 -81q-134 -79 -214 -213q-81 -139 -81 -301q0 -119 45.5 -228t128.5 -192t192 -128.5t230 -45.5q95 0 194 32q1 0 5.5 1.5
t8.5 3.5q14 2 15 2q21 0 38.5 -13.5t24.5 -36.5q0 -4 0.5 -8t1 -6t0.5 -3q0 -48 -47 -63q-96 -41 -242 -41q-198 0 -368 99q-163 95 -260 261q-99 167 -99 366q0 197 99 366q95 164 260 262q170 99 368 99q199 0 368 -99q163 -95 262 -257zM932 456q67 67 67 163t-67 163
q-64 67 -161 67q-95 0 -162 -67q-68 -68 -68 -163t68 -163t162 -68q96 0 161 68z" />
    <glyph glyph-name="A" unicode="A" horiz-adv-x="1199" 
d="M197 -5q-29 0 -49 19.5t-20 48.5v776q0 200 121 335q132 146 340 146q221 0 356 -149q126 -142 126 -350v-758q0 -29 -20.5 -48.5t-48.5 -19.5q-29 0 -49 19.5t-20 48.5v341h-667v-341q0 -29 -20.5 -48.5t-48.5 -19.5zM266 541h667v276q0 160 -95 263q-99 105 -246 105
q-148 0 -236 -99q-90 -101 -90 -257v-288z" />
    <glyph glyph-name="B" unicode="B" horiz-adv-x="1126" 
d="M682 0h-517q-33 1 -53 34l-2 4l-3 7q-4 7 -4 23v1181q0 28 19 48.5t48 20.5h499q146 0 249 -106q48 -49 75.5 -118.5t27.5 -142.5q0 -83 -35.5 -154t-99.5 -120q77 -52 120 -133t43 -175q0 -152 -108 -260q-107 -109 -259 -109zM240 741h438q88 2 147 64q60 63 60 146
q0 100 -66 166q-65 61 -159 63h-420v-439zM240 137h442q89 0 159 70q65 68 65 162q0 93 -64 163q-66 70 -156 72h-446v-467z" />
    <glyph glyph-name="C" unicode="C" horiz-adv-x="1125" 
d="M591 -12q-199 0 -338 147q-64 67 -99 155.5t-35 184.5v362q0 95 35.5 184t98.5 156q139 147 338 147q145 0 257 -72q100 -66 163 -172q14 -23 14 -43q0 -26 -20.5 -45.5t-49.5 -19.5q-31 0 -47 25q-49 90 -121 138q-81 54 -196 54q-148 0 -247 -110q-92 -101 -92 -241
v-364q0 -140 92 -241q98 -111 247 -111q115 0 196 54q69 46 121 138q16 25 47 25q29 0 49.5 -19.5t20.5 -45.5q0 -20 -14 -43q-69 -112 -163 -172q-112 -71 -257 -71z" />
    <glyph glyph-name="D" unicode="D" horiz-adv-x="1140" 
d="M583 0h-384q-27 0 -46.5 19t-19.5 47v1185q0 29 19 47.5t47 18.5h384q204 0 338 -132q63 -63 98.5 -150t35.5 -182v-395q0 -194 -134 -325q-135 -133 -338 -133zM267 133h316q149 0 246 95q92 90 92 229v397q0 143 -92 235q-96 94 -246 94h-316v-1050z" />
    <glyph glyph-name="E" unicode="E" horiz-adv-x="985" 
d="M872 0h-677q-27 2 -44.5 21.5t-17.5 46.5v1184q0 29 20 48t48 19h671q28 0 47 -19t19 -48q0 -28 -19 -47.5t-47 -19.5h-605v-450h436q29 0 48 -18.5t19 -46.5t-19 -46.5t-48 -18.5h-436v-472h605q28 0 47 -19.5t19 -46.5q0 -30 -19 -48.5t-47 -18.5z" />
    <glyph glyph-name="F" unicode="F" horiz-adv-x="956" 
d="M199 -5q-28 0 -47 19t-19 46v1195q0 25 15 43q20 21 51 21h671q27 0 46 -19t19 -48t-18.5 -48t-46.5 -19h-603v-519h421q29 0 47.5 -19t18.5 -47q0 -27 -18.5 -45t-47.5 -18h-421v-477q0 -27 -20 -46t-48 -19z" />
    <glyph glyph-name="G" unicode="G" horiz-adv-x="1157" 
d="M595 -12q-199 0 -338 147q-64 67 -99 155.5t-35 184.5v362q0 96 33.5 184.5t94.5 155.5q134 147 333 147q144 0 257 -72q96 -60 163 -172q14 -23 14 -44q0 -26 -20 -45t-49 -19q-31 0 -47 25q-49 90 -121 138q-83 54 -197 54q-147 0 -241 -110q-87 -101 -87 -241v-364
q0 -140 93 -241q98 -111 246 -111q112 0 200 59q72 50 125 143v223h-180q-28 0 -47.5 19.5t-19.5 47.5q0 27 20 46.5t47 19.5l235 -1q30 0 49.5 -18t19.5 -47v-279q0 -39 -13 -63q-65 -129 -177 -206q-112 -78 -259 -78z" />
    <glyph glyph-name="H" unicode="H" horiz-adv-x="1162" 
d="M194 -5q-28 0 -47.5 19t-19.5 46v1191q0 28 19.5 47t47.5 19q27 0 46.5 -19t19.5 -47v-573h658v573q0 27 20 46.5t47 19.5q28 0 47 -19t19 -47v-1191q0 -27 -19.5 -46t-47.5 -19q-27 0 -46.5 19t-19.5 46v485h-658v-485q0 -27 -19.5 -46t-46.5 -19z" />
    <glyph glyph-name="I" unicode="I" 
d="M199 -5q-27 0 -46.5 19t-19.5 46v1191q0 29 19 47.5t47 18.5t48 -18.5t20 -47.5v-1191q0 -27 -20 -46t-48 -19z" />
    <glyph glyph-name="J" unicode="J" 
d="M-157 -281q-32 0 -51 18.5t-19 46.5t18.5 47t50.5 21q124 2 208 89q83 85 83 207v1100q0 29 19 49t47 20q29 0 48.5 -20t19.5 -49v-1103q0 -179 -123 -302q-124 -124 -301 -124z" />
    <glyph glyph-name="K" unicode="K" horiz-adv-x="1038" 
d="M199 0q-27 0 -46.5 19t-19.5 47v1185q0 28 19.5 47t46.5 19q28 0 48 -19t20 -47v-470l579 517q22 19 45 19q25 0 48 -20q21 -23 21 -49q-1 -31 -22 -48l-578 -512l627 -574q20 -17 20 -48q0 -26 -20 -46t-47 -20q-24 -1 -47 20l-626 572v-526q0 -28 -20 -47t-48 -19z" />
    <glyph glyph-name="L" unicode="L" horiz-adv-x="1010" 
d="M872 0h-679q-25 0 -42.5 20t-17.5 46v1183q0 29 19.5 48.5t46.5 19.5q28 0 48 -19.5t20 -48.5v-1116l605 -1q28 0 47 -19t19 -46q0 -30 -19 -48.5t-47 -18.5z" />
    <glyph glyph-name="M" unicode="M" horiz-adv-x="1559" 
d="M187 0q-29 0 -49 19.5t-20 47.5v884q0 151 107 258t258 107q89 0 165.5 -41t130.5 -114q54 73 130.5 114t165.5 41q153 0 260 -107q106 -106 106 -258v-884q0 -28 -20 -47.5t-48 -19.5q-29 0 -49.5 19.5t-20.5 47.5v879q0 95 -67 162q-66 66 -162 66q-95 0 -160 -68
q-65 -67 -65 -160v-878q0 -28 -20.5 -48t-49.5 -20t-48.5 20t-19.5 48v879q0 92 -67 159q-68 68 -161 68q-96 0 -161 -65q-67 -67 -67 -162v-880q0 -28 -20 -47.5t-48 -19.5z" />
    <glyph glyph-name="N" unicode="N" horiz-adv-x="1162" 
d="M196 -5q-29 0 -49 19.5t-20 48.5v776q0 200 121 335q132 146 340 146q220 0 355 -149q126 -142 126 -350v-758q0 -29 -19.5 -48.5t-48.5 -19.5t-49 19.5t-20 48.5v754q0 160 -95 263q-99 105 -246 105q-148 0 -236 -99q-91 -99 -91 -257v-766q0 -29 -20 -48.5t-48 -19.5z
" />
    <glyph glyph-name="O" unicode="O" horiz-adv-x="1204" 
d="M602 -12q-99 0 -187.5 36.5t-156.5 102.5q-140 138 -140 331v395q0 192 140 332q141 139 344 139q202 0 343 -139q140 -140 140 -332v-395q0 -193 -140 -331q-145 -139 -343 -139zM602 122q149 0 251 100q98 95 98 235v397q0 140 -98 235q-102 100 -251 100t-252 -100
q-99 -96 -99 -235v-397q0 -141 99 -235q103 -100 252 -100z" />
    <glyph glyph-name="P" unicode="P" horiz-adv-x="1081" 
d="M199 -6q-28 0 -47 19.5t-19 46.5v1190q0 29 19.5 48t46.5 19h372q196 0 337 -136q65 -64 101.5 -153t36.5 -186q0 -198 -138 -330q-140 -135 -338 -135h-303v-317q0 -28 -20 -47t-48 -19zM267 510h305q144 0 245 103q94 99 94 229q0 63 -25 126.5t-70 110.5
q-98 104 -242 104h-307v-673z" />
    <glyph glyph-name="Q" unicode="Q" horiz-adv-x="1204" 
d="M1096 -130h-6q-85 2 -149 54q-60 46 -96 128q-112 -64 -243 -64q-99 0 -187.5 36.5t-156.5 102.5q-140 138 -140 331v395q0 192 140 332q141 139 344 139q202 0 343 -139q140 -140 140 -332v-395q0 -194 -140 -331q14 -58 52 -98q42 -45 98 -45q24 0 40.5 -16.5
t16.5 -40.5q0 -23 -16.5 -39.5t-39.5 -17.5zM354 218q20 92 93 154q74 63 169 63q94 0 165.5 -46t104.5 -127q65 89 65 195v397q0 140 -98 235q-102 100 -251 100t-252 -100q-99 -96 -99 -235v-397q0 -136 103 -239zM602 122q108 0 196 57q-15 62 -63 99t-115 37
q-71 0 -121 -50q-47 -47 -52 -110q73 -33 155 -33z" />
    <glyph glyph-name="R" unicode="R" horiz-adv-x="1084" 
d="M195 -1q-28 0 -47.5 19t-19.5 47v1185q0 29 19.5 48t47.5 19h355q200 0 336 -130q66 -61 102 -148t36 -185q0 -179 -119 -303q-118 -123 -297 -143l302 -293q20 -17 20 -49q0 -27 -20.5 -46.5t-47.5 -19.5t-47 20l-396 385h-157v-340q0 -28 -19.5 -47t-47.5 -19zM262 540
h288q151 0 246 92q95 89 95 222q0 66 -25.5 127.5t-70.5 105.5q-97 95 -242 95h-291v-642z" />
    <glyph glyph-name="S" unicode="S" horiz-adv-x="1038" 
d="M597 0h-371q-36 0 -57 19t-21 52q0 61 78 61h388q88 0 157 69t69 174q0 102 -73 169q-68 62 -160 62h-166q-150 0 -257 97q-107 96 -107 247q0 74 28.5 143.5t78.5 118.5q110 105 257 105h368q79 0 79 -65q0 -33 -21 -51t-58 -18h-390q-83 0 -146 -63t-63 -160
q0 -93 63 -158q64 -64 146 -64h183q155 -2 263 -102q109 -104 109 -254q0 -155 -111 -269q-110 -113 -266 -113z" />
    <glyph glyph-name="T" unicode="T" horiz-adv-x="1037" 
d="M517 -6q-27 0 -45 19.5t-18 46.5v1124h-342q-27 0 -46.5 19.5t-19.5 47.5q0 27 19.5 46.5t46.5 19.5h822q27 0 46.5 -20t19.5 -47q0 -29 -19 -47.5t-47 -18.5h-350v-1124q0 -27 -19 -46.5t-48 -19.5z" />
    <glyph glyph-name="U" unicode="U" horiz-adv-x="1199" 
d="M589 -12q-207 0 -340 147q-121 133 -121 334v781q0 29 20 48.5t49 19.5q28 0 48.5 -19.5t20.5 -48.5v-772q0 -156 90 -255t236 -99q148 0 246 104q95 101 95 263v759q0 29 20 48.5t49 19.5q28 0 48.5 -19.5t20.5 -48.5v-763q0 -207 -126 -349q-133 -150 -356 -150z" />
    <glyph glyph-name="V" unicode="V" horiz-adv-x="1190" 
d="M603 -12h-17q-35 5 -52 41l-478 1196q-6 12 -6 26q0 26 20 46t48 20q44 -2 61 -41l417 -1046l417 1046q17 41 60 41q28 0 47.5 -19.5t19.5 -45.5q0 -14 -6 -27l-474 -1186q-18 -45 -57 -51z" />
    <glyph glyph-name="W" unicode="W" horiz-adv-x="1559" 
d="M483 -12q-151 0 -258 107t-107 257v898q0 28 20 47.5t49 19.5q28 0 48 -19.5t20 -47.5v-893q0 -95 67 -162q66 -66 161 -66q94 0 162 68q66 66 66 160v892q0 28 19.5 48t48.5 20t49.5 -20t20.5 -48v-892q0 -93 65 -160q65 -68 160 -68t161 66q68 65 68 161v894
q0 28 20.5 47.5t49.5 19.5q28 0 48 -19.5t20 -47.5v-898q0 -151 -106 -257q-107 -107 -260 -107q-89 0 -165.5 40.5t-130.5 112.5q-54 -72 -130.5 -112.5t-165.5 -40.5z" />
    <glyph glyph-name="X" unicode="X" horiz-adv-x="1039" 
d="M115 -1q-27 0 -47.5 19.5t-20.5 46.5q0 24 16 46l376 541l-376 551q-16 22 -16 47q0 27 19.5 46.5t46.5 19.5q31 0 49 -23l357 -525l359 525q17 23 47 23q28 0 47.5 -20t19.5 -47q0 -24 -16 -46l-376 -551l375 -541q16 -22 16 -47q0 -27 -20 -46t-47 -19q-30 0 -47 23
l-358 514l-357 -514q-17 -23 -47 -23z" />
    <glyph glyph-name="Y" unicode="Y" horiz-adv-x="1062" 
d="M545 0q-29 0 -48.5 19.5t-19.5 48.5v424q-168 20 -283 149q-113 126 -118 302v308q0 29 20 48t48 19q29 0 47.5 -19t18.5 -48v-301q0 -138 93 -234q94 -99 229 -99t229 97q91 97 91 236v301q0 29 19.5 48t47.5 19q29 0 47.5 -19t18.5 -48v-295q0 -178 -104 -304
q-106 -128 -270 -157v-427q0 -29 -19.5 -48.5t-46.5 -19.5z" />
    <glyph glyph-name="Z" unicode="Z" horiz-adv-x="1073" 
d="M961 0h-854q-27 0 -46.5 19.5t-19.5 46.5q0 12 8 33l7 12l727 1072h-646q-27 0 -46.5 19.5t-19.5 47.5t20 47.5t48 19.5h780q29 -1 47.5 -20.5t18.5 -46.5q0 -15 -5 -23q-5 -9 -10 -22l-734 -1072h725q28 0 47 -19.5t19 -47.5q0 -27 -19 -46.5t-47 -19.5z" />
    <glyph glyph-name="bracketleft" unicode="[" horiz-adv-x="542" 
d="M453 -337h-253q-28 0 -47.5 20t-19.5 49v1511q0 28 19.5 48t47.5 20h252q29 0 48 -20t19 -50q0 -29 -18.5 -46.5t-48.5 -17.5h-185v-1381h186q28 0 47.5 -18.5t19.5 -45.5q0 -29 -19.5 -49t-47.5 -20z" />
    <glyph glyph-name="backslash" unicode="\" horiz-adv-x="559" 
d="M427 2q-22 0 -40 13t-25 34l-379 1165q-5 17 -5 24q0 30 19.5 51t48.5 21q49 0 66 -48l379 -1171q3 -11 3 -20q0 -28 -19 -47q-19 -22 -48 -22z" />
    <glyph glyph-name="bracketright" unicode="]" horiz-adv-x="542" 
d="M298 -338h-252q-28 0 -48 20t-20 49q0 27 20 46t48 19h186v1380h-185q-28 0 -48 18t-20 47q0 28 20 48.5t48 20.5h251q27 0 46 -19t21 -46v-1514q0 -29 -19.5 -49t-47.5 -20z" />
    <glyph glyph-name="asciicircum" unicode="^" horiz-adv-x="1178" 
d="M96 477q-23 0 -39 17t-16 39q0 18 11 32l474 675q20 24 44 24q28 0 47 -24l475 -672q13 -21 12 -34q0 -22 -17 -38.5t-40 -16.5q-28 0 -43 22l-433 610l-430 -611q-17 -23 -45 -23z" />
    <glyph glyph-name="underscore" unicode="_" horiz-adv-x="1056" 
d="M924 -139h-797q-31 0 -51 19t-20 49q0 29 20.5 47t50.5 18h797q31 0 52.5 -18t21.5 -47q0 -30 -21.5 -49t-52.5 -19z" />
    <glyph glyph-name="grave" unicode="`" horiz-adv-x="510" 
d="M320 1491q-10 0 -20 3l-214 102q-22 7 -35 23.5t-13 38.5q0 29 20.5 49t47.5 20q8 0 19 -3l212 -101q22 -7 35.5 -25t13.5 -39q0 -29 -19.5 -48.5t-46.5 -19.5z" />
    <glyph glyph-name="a" unicode="a" horiz-adv-x="1109" 
d="M532 -12q-202 0 -342 143q-67 67 -104 156.5t-37 187.5q0 203 141 347q140 143 342 143q203 0 343 -143q66 -67 103 -157.5t37 -189.5v-411q0 -29 -20 -49t-49 -20t-47 19.5t-18 49.5l-1 72q-142 -148 -348 -148zM532 121q151 0 250 105q99 102 99 249q0 150 -99 251
q-102 104 -250 104q-146 0 -248 -104q-101 -103 -101 -251q0 -146 101 -249q100 -105 248 -105z" />
    <glyph glyph-name="b" unicode="b" horiz-adv-x="1109" 
d="M578 -12q-98 0 -187.5 37.5t-157.5 105.5q-69 67 -106.5 156.5t-37.5 187.5v772q0 29 19.5 49t47.5 20q29 0 47.5 -19.5t18.5 -49.5v-517q38 102 138 168q98 66 218 66q99 0 188.5 -37t156.5 -105q67 -67 104.5 -157t37.5 -189t-37 -188.5t-105 -156.5
q-68 -68 -157.5 -105.5t-187.5 -37.5zM578 122q150 0 252 105q103 103 103 249q0 148 -103 251t-252 103t-252 -103q-104 -104 -104 -251q0 -145 104 -249q102 -105 252 -105z" />
    <glyph glyph-name="c" unicode="c" horiz-adv-x="929" 
d="M531 -11q-202 0 -344 140q-143 140 -143 341q0 204 140 349q142 145 347 145q96 0 183 -33.5t146 -95.5q24 -26 24 -56q0 -29 -24 -48q-20 -17 -43 -17q-18 0 -53 23l-28 21q-22 16 -27 19q-80 52 -183 52q-146 0 -248 -107q-98 -104 -98 -244q0 -144 97 -247
q101 -107 249 -107q72 0 131 25q56 24 128 80q19 9 33 9q24 0 43 -17q23 -21 23 -48q0 -31 -24 -55q-59 -62 -146 -95.5t-183 -33.5z" />
    <glyph glyph-name="d" unicode="d" horiz-adv-x="1109" 
d="M532 -12q-201 0 -344 143q-69 67 -106.5 156.5t-37.5 187.5q0 99 37.5 189.5t106.5 157.5q143 143 344 143q249 0 355 -226v507q0 30 18.5 49.5t47.5 19.5q28 0 47.5 -20t19.5 -49v-777q-1 -96 -39 -184.5t-105 -155.5t-156.5 -104t-187.5 -37zM532 121q151 0 253 105
q102 104 102 249q0 147 -102 251q-104 104 -253 104q-147 0 -251 -104t-104 -251q0 -145 104 -249q102 -105 251 -105z" />
    <glyph glyph-name="e" unicode="e" horiz-adv-x="1066" 
d="M533 -12q-98 0 -187.5 37.5t-157.5 105.5q-69 67 -106.5 157t-37.5 188t37.5 187.5t106.5 158.5q68 68 157.5 105.5t187.5 37.5q97 0 186.5 -37.5t158.5 -105.5q68 -68 106 -157t39 -186q0 -27 -18 -45.5t-47 -18.5h-766q17 -125 113 -212q100 -87 228 -87q59 0 98 11
q31 8 80 35q19 12 41 12q27 0 46 -21.5t19 -48.5q0 -36 -32 -54q-57 -32 -109 -46q-63 -16 -143 -16zM188 527h699q-17 135 -115 221q-102 89 -237 89t-236 -91q-97 -89 -111 -219z" />
    <glyph glyph-name="f" unicode="f" horiz-adv-x="677" 
d="M88 -285q-27 0 -46.5 19t-19.5 48q0 27 19.5 46.5t46.5 19.5q74 0 124 52q48 50 48 123v521h-93q-28 0 -47.5 19t-19.5 48q0 27 19.5 46.5t47.5 19.5h93v341q2 123 92 212q89 89 213 89q29 0 48.5 -19.5t19.5 -48.5q0 -27 -19.5 -46.5t-48.5 -19.5q-71 0 -121 -50
q-49 -49 -51 -119v-339h150q29 0 48.5 -19.5t19.5 -46.5q0 -29 -19.5 -48t-48.5 -19h-150v-521q0 -127 -88 -217q-91 -91 -217 -91z" />
    <glyph glyph-name="g" unicode="g" horiz-adv-x="1066" 
d="M287 -421q-27 0 -49 19.5t-22 46.5q0 59 99 90q69 23 146 23q41 0 81 -3t81 -3q121 0 188 57t67 162q0 44 -12 79q-8 20 -26 46q-133 -108 -308 -108q-201 0 -344 143q-69 67 -106.5 156.5t-37.5 187.5q0 99 37.5 189.5t106.5 157.5q143 143 344 143q99 0 188.5 -37.5
t157.5 -105.5q68 -69 105 -158.5t37 -188.5q0 -153 -88 -278q78 -84 78 -226q0 -161 -105 -260q-98 -91 -238 -93q-45 0 -96 9q-59 8 -101 8q-32 0 -69 -8q-44 -11 -74 -33q-20 -15 -40 -15zM532 121q151 0 253 105q103 103 103 249q0 148 -103 251q-104 104 -253 104
q-147 0 -251 -104t-104 -251q0 -145 104 -249q102 -105 251 -105z" />
    <glyph glyph-name="h" unicode="h" horiz-adv-x="1123" 
d="M951 -1q-28 0 -47 18.5t-19 47.5v431q0 142 -82 238q-88 98 -221 98q-140 0 -241 -96q-103 -98 -103 -237v-432q0 -28 -19.5 -47.5t-47.5 -19.5t-47.5 19.5t-19.5 47.5v1180q0 29 20 49t47 20q29 0 48 -20t19 -49v-470q62 87 149 136q91 51 195 51q191 0 314 -136
q122 -135 122 -332v-431q0 -29 -19 -47.5t-48 -18.5z" />
    <glyph glyph-name="i" unicode="i" horiz-adv-x="339" 
d="M170 1101q-34 0 -57 23.5t-23 56.5q0 34 23 57t57 23t57.5 -23t23.5 -57q0 -33 -23.5 -56.5t-57.5 -23.5zM170 -5q-28 0 -48 19.5t-20 47.5v835q0 29 20 48.5t48 19.5q29 0 47.5 -19.5t18.5 -48.5v-835q0 -28 -19.5 -47.5t-46.5 -19.5z" />
    <glyph glyph-name="j" unicode="j" 
d="M198 1099q-32 0 -54.5 23.5t-22.5 56.5q0 35 23 57.5t57 22.5t56.5 -22.5t22.5 -57.5q0 -32 -24 -56t-58 -24zM-50 -291q-28 0 -48 19t-20 47q0 29 20 49t48 20h10q71 0 122 51t51 121v879q0 29 19.5 49.5t46.5 20.5q29 0 48.5 -20.5t19.5 -49.5v-879q0 -126 -91 -217
q-90 -90 -216 -90l-1 1q-1 -1 -9 -1z" />
    <glyph glyph-name="k" unicode="k" horiz-adv-x="826" 
d="M172 0q-28 0 -48 19t-20 47v1178q0 29 20 48t48 19t47 -19t19 -48v-661l375 350q19 17 45 17q27 0 47 -20t20 -47q2 -26 -21 -47l-355 -331l412 -392q18 -18 18 -43q0 -27 -19.5 -47.5t-46.5 -20.5q-29 0 -49 20l-426 405v-361q0 -28 -19.5 -47t-46.5 -19z" />
    <glyph glyph-name="l" unicode="l" horiz-adv-x="531" 
d="M510 64q0 -29 -18 -47t-47 -18h-1h-1q-140 0 -233 93t-93 246v905q0 29 18.5 48.5t46.5 19.5t48 -19.5t20 -48.5v-903q0 -98 49.5 -153t139.5 -57h5q29 0 47.5 -19t18.5 -47z" />
    <glyph glyph-name="m" unicode="m" horiz-adv-x="1304" 
d="M163 0q-28 0 -47.5 19t-19.5 48v588q0 130 92 222t221 92q72 0 137 -32t111 -89q45 57 109.5 89t136.5 32q130 0 224 -91q95 -93 95 -222v-589q0 -29 -19.5 -48t-47.5 -19t-47.5 19t-19.5 48v578q0 75 -53 131q-52 55 -131 55q-71 0 -123 -50q-51 -51 -56 -121q0 -4 1 -5
v-5v-582q0 -28 -20 -47.5t-47 -19.5q-28 0 -47 19.5t-19 47.5v576q0 75 -52 132q-51 56 -129 56q-71 0 -123 -49q-52 -50 -58 -118q0 -4 1 -5v-6l-2 -587q-1 -29 -20.5 -48t-46.5 -19z" />
    <glyph glyph-name="n" unicode="n" horiz-adv-x="1079" 
d="M143 0q-28 0 -48.5 19.5t-20.5 46.5v430q0 196 130 332q131 137 324 137q190 0 323 -136q128 -137 128 -332v-431q0 -29 -18.5 -47.5t-47.5 -18.5q-28 0 -47.5 18.5t-19.5 47.5v426q0 142 -89 239q-93 99 -229 99q-135 0 -229 -97q-91 -96 -91 -238v-429q0 -29 -18 -47.5
t-47 -18.5z" />
    <glyph glyph-name="o" unicode="o" horiz-adv-x="1065" 
d="M532 -12q-201 0 -344 143q-69 67 -106.5 156.5t-37.5 187.5q0 99 37.5 189.5t106.5 157.5q143 143 344 143q99 0 188.5 -37.5t157.5 -105.5q68 -69 105 -158.5t37 -188.5q0 -98 -37.5 -187.5t-104.5 -156.5q-68 -68 -157.5 -105.5t-188.5 -37.5zM532 121q151 0 253 105
q102 104 102 249q0 147 -102 251q-104 104 -253 104q-147 0 -251 -104t-104 -251q0 -145 104 -249q102 -105 251 -105z" />
    <glyph glyph-name="p" unicode="p" horiz-adv-x="1109" 
d="M157 -347q-28 0 -48 20t-20 49v753q0 99 37.5 189.5t106.5 157.5q68 68 157.5 105.5t187.5 37.5t187.5 -37.5t157.5 -105.5q67 -67 104.5 -157.5t37.5 -189.5q0 -98 -37.5 -187.5t-104.5 -156.5q-68 -68 -157.5 -105.5t-187.5 -37.5q-103 0 -195 40t-161 114v-420
q0 -30 -18 -49.5t-47 -19.5zM578 121q150 0 252 105q103 103 103 249q0 148 -103 251q-104 104 -252 104t-252 -104t-104 -251q0 -145 104 -249q102 -105 252 -105z" />
    <glyph glyph-name="q" unicode="q" horiz-adv-x="1109" 
d="M952 -347q-29 0 -47 19.5t-18 49.5v419q-144 -153 -355 -153q-201 0 -344 143q-69 67 -106.5 156.5t-37.5 187.5q0 99 37.5 189.5t106.5 157.5q143 143 344 143q203 0 343 -140t145 -343v-760q0 -29 -20 -49t-48 -20zM532 121q151 0 253 105q102 104 102 249
q0 147 -102 251q-104 104 -253 104q-147 0 -251 -104t-104 -251q0 -145 104 -249q102 -105 251 -105z" />
    <glyph glyph-name="r" unicode="r" horiz-adv-x="694" 
d="M158 0q-28 0 -48.5 19t-20.5 48v388q0 101 39 194.5t110 165.5q150 150 357 150h8q32 0 50.5 -18.5t18.5 -48.5q0 -29 -19.5 -47.5t-49.5 -18.5h-8q-152 0 -262 -110q-52 -52 -81.5 -122t-29.5 -145v-388q0 -29 -18.5 -48t-45.5 -19z" />
    <glyph glyph-name="s" unicode="s" horiz-adv-x="880" 
d="M553 0h-435q-27 0 -44.5 19t-17.5 49q0 29 17.5 47t44.5 18h423q62 0 105 41q49 46 49 110q0 63 -47 104q-42 36 -108 38h-197q-113 0 -192 82q-77 80 -77 192q0 108 79 187q78 78 190 78h365q30 0 48.5 -17.5t18.5 -47.5q0 -31 -19 -50t-48 -19h-366q-55 0 -96 -41
q-39 -41 -39 -94q0 -57 40 -95q39 -41 95 -41h209q118 0 198 -82q79 -81 79 -197q0 -114 -78 -197q-81 -84 -197 -84z" />
    <glyph glyph-name="t" unicode="t" horiz-adv-x="944" 
d="M580 -13q-206 0 -347 138q-144 139 -144 341v719q0 28 20 48t47 20q28 0 48.5 -19.5t20.5 -48.5v-229h441q28 0 48 -20t20 -48q0 -27 -19.5 -45.5t-48.5 -18.5h-441v-359q0 -145 103 -245t252 -100q134 0 231 85q28 22 52 22t41.5 -18.5t17.5 -44.5q0 -33 -25 -56
q-127 -121 -317 -121z" />
    <glyph glyph-name="u" unicode="u" horiz-adv-x="1079" 
d="M547 -12q-193 0 -326 138q-132 134 -132 330v444q0 29 19.5 48t46.5 19q28 0 47.5 -19t19.5 -48v-444q0 -139 94 -236q93 -99 231 -99t224 99q85 94 85 237v443q0 29 20 48.5t48 19.5t47 -19.5t19 -48.5v-446q0 -196 -125 -329q-128 -137 -318 -137z" />
    <glyph glyph-name="v" unicode="v" horiz-adv-x="914" 
d="M456 -7q-40 0 -61 41l-346 838q-7 13 -7 29q0 27 19.5 46.5t48.5 19.5q42 0 60 -41l287 -707l286 707q17 41 60 41q29 0 48.5 -19.5t19.5 -46.5q0 -14 -6 -29l-347 -838q-14 -22 -27 -31.5t-35 -9.5z" />
    <glyph glyph-name="w" unicode="w" horiz-adv-x="1304" 
d="M409 -12q-129 0 -221 92t-92 222v599q0 29 19.5 48t47.5 19q27 0 46.5 -19t20.5 -48l2 -598v-6q-1 -1 -1 -6q6 -68 58 -117t123 -49q73 0 129 56q52 55 52 131v588q0 29 19 48.5t47 19.5q27 0 47 -19.5t20 -48.5v-593v-5q-1 -1 -1 -6q4 -68 56 -120q52 -50 123 -50
q76 0 129 53t55 125v597q0 29 19.5 48t47.5 19t47.5 -19t19.5 -48v-601q0 -130 -95 -220q-95 -92 -224 -92q-75 0 -139 32t-107 89q-45 -58 -109.5 -89.5t-138.5 -31.5z" />
    <glyph glyph-name="x" unicode="x" horiz-adv-x="1016" 
d="M93 -1q-27 0 -46 19q-21 20 -21 45q0 27 22 49l367 372l-357 369q-20 20 -20 46q0 27 21 48q20 20 46 20q28 0 49 -21l354 -367l353 366q21 21 50 21q26 0 46 -20t20 -46q0 -27 -21 -48l-355 -367l366 -371q20 -20 20 -49q0 -27 -19.5 -46t-46.5 -19q-28 0 -46 19
l-367 371l-365 -370q-21 -21 -50 -21z" />
    <glyph glyph-name="y" unicode="y" horiz-adv-x="1114" 
d="M976 -298q-28 0 -47 19t-19 48v406q-68 -81 -156 -125.5t-188 -44.5q-96 0 -184 36.5t-155 103.5q-141 141 -141 339v414q0 29 20 49t49 20q27 0 47 -20t20 -49v-419q0 -68 27 -130.5t75 -108.5q102 -100 242 -100q139 0 242 100q48 46 75 108.5t27 130.5v419q0 29 20 49
t47 20q28 0 48 -20t20 -49v-1129q0 -29 -20 -48t-49 -19z" />
    <glyph glyph-name="z" unicode="z" horiz-adv-x="1014" 
d="M902 0h-790q-28 0 -48 19.5t-20 45.5q0 24 20 47l671 722h-606q-28 0 -47.5 19t-19.5 47t19.5 47t47.5 19h748q26 0 44.5 -18t20.5 -45v-9q-6 -29 -20 -43l-672 -721h652q29 0 48.5 -18t19.5 -46t-19.5 -47t-48.5 -19z" />
    <glyph glyph-name="braceleft" unicode="{" horiz-adv-x="680" 
d="M575 -328q-164 0 -280 113q-118 114 -120 276v366h-58q-30 0 -51 21.5t-21 52.5q0 30 21 50.5t51 20.5h58v351q6 164 121 276t279 112q90 0 90 -67q0 -28 -18.5 -47.5t-47.5 -19.5h-40q-105 0 -176 -74q-73 -73 -75 -183v-858q2 -103 75 -178q72 -78 176 -78h40
q29 0 47 -19t18 -49q0 -66 -89 -66z" />
    <glyph glyph-name="bar" unicode="|" 
d="M199 -263q-28 0 -47 19.5t-19 48.5v1437q0 29 19 49t47 20q29 0 48.5 -20t19.5 -49v-1437q0 -29 -20 -48.5t-48 -19.5z" />
    <glyph glyph-name="braceright" unicode="}" horiz-adv-x="681" 
d="M66 -328q-89 0 -89 66q0 30 18 49t47 19h40q104 0 179 81q72 78 72 184v844q0 109 -74 186q-71 76 -177 76h-40q-29 0 -47.5 19.5t-18.5 47.5q0 67 90 67q163 0 282 -116q117 -117 117 -280v-343h59q30 0 51 -20.5t21 -50.5q0 -31 -21 -52.5t-51 -21.5h-59v-359
q0 -163 -117 -280q-119 -116 -282 -116z" />
    <glyph glyph-name="asciitilde" unicode="~" horiz-adv-x="980" 
d="M634 473q-86 0 -183 77q-33 27 -60 42q-42 21 -74 21q-80 0 -136 -89q-8 -21 -25.5 -33.5t-38.5 -12.5q-27 0 -46.5 19t-19.5 46t18 46q22 48 82 98q75 60 161 60q85 0 179 -72q34 -27 64 -43q43 -25 73 -25q91 0 152 112l6 -3l2 2q16 15 39 15q24 0 40.5 -18.5
t16.5 -42.5q0 -16 -9 -31q2 -6 2 -7q0 -3 -1 -4q-23 -52 -81 -97q-75 -60 -161 -60z" />
    <glyph glyph-name="exclamdown" unicode="&#xa1;" horiz-adv-x="422" 
d="M211 849q-33 0 -55.5 23t-22.5 55q0 33 22.5 56t55.5 23q31 0 54.5 -23t23.5 -56q0 -32 -23 -55t-55 -23zM210 -305q-28 0 -47.5 19.5t-19.5 47.5v891q0 29 19 49t47 20q29 0 48 -20t19 -49v-891q0 -28 -19 -47.5t-47 -19.5z" />
    <glyph glyph-name="cent" unicode="&#xa2;" horiz-adv-x="929" 
d="M861 221q23 -21 23 -48q0 -31 -24 -55q-97 -100 -258 -124v-195q0 -29 -20 -48.5t-48 -19.5q-29 0 -48 19.5t-19 48.5v194q-160 19 -280 136q-143 140 -143 341q0 204 140 349q120 122 284 141v208q0 29 19 49t47 20t48 -19.5t20 -49.5v-209q161 -24 258 -124
q24 -26 24 -56q0 -29 -24 -48q-20 -17 -43 -17q-18 0 -53 23l-28 21q-22 16 -27 19q-80 52 -183 52q-146 0 -248 -107q-98 -104 -98 -244q0 -144 97 -247q101 -107 249 -107q72 0 131 25q56 24 128 80q19 9 33 9q24 0 43 -17z" />
    <glyph glyph-name="sterling" unicode="&#xa3;" horiz-adv-x="958" 
d="M844 0h-623q-27 0 -46 17t-21 44v423h-50q-26 0 -43 18t-17 44t17 42.5t43 16.5h50v377q5 138 100 233q98 96 232 96h25q27 0 46.5 -20t19.5 -46q0 -29 -19.5 -48t-47.5 -19h-8q-91 0 -152 -56q-62 -56 -62 -149h-1v-368h124q25 0 42.5 -17.5t17.5 -42.5t-17.5 -43
t-42.5 -18h-124v-351h558q28 0 46.5 -19t18.5 -47t-19.5 -47.5t-46.5 -19.5z" />
    <glyph glyph-name="currency" unicode="&#xa4;" horiz-adv-x="1012" 
d="M156 93q-26 0 -45.5 20.5t-19.5 45.5q0 22 12 40l134 195q-114 108 -114 271q0 149 100 255l-132 183v1q-1 0 -1 2q-11 17 -11 35q0 27 20 47.5t47 20.5q33 0 54 -30l129 -178q77 41 172 41q85 0 161 -36l127 184q21 30 55 30q28 0 47.5 -19.5t19.5 -45.5q0 -22 -12 -40
l-129 -186q108 -108 108 -264q0 -160 -112 -269l137 -187q0 -1 1 -1v-1q12 -18 12 -38q0 -26 -20 -46t-48 -20q-33 -1 -54 29l-139 188q-71 -33 -154 -33q-78 0 -154 32l-135 -195q-22 -31 -56 -31zM501 414q106 0 177 74q73 73 73 178q0 104 -73 177t-177 73
q-105 0 -178 -73t-73 -177q0 -105 73 -178q71 -74 178 -74z" />
    <glyph glyph-name="yen" unicode="&#xa5;" horiz-adv-x="1195" 
d="M596 0q-28 0 -47 19t-19 47v217h-204q-18 0 -31 13t-13 30q0 18 13 30.5t31 12.5h204v134h-204q-18 0 -31 13t-13 31t13 30t31 12h204l-490 607q-18 26 -18 45q0 27 20 47t49 20t49 -23l456 -565l453 567q18 22 48 22q27 0 47.5 -19.5t20.5 -46.5q0 -23 -17 -46
l-485 -608h213q17 0 30 -12.5t13 -29.5q0 -18 -13 -31t-30 -13h-213v-134h213q17 0 30 -13t13 -30t-13 -30t-30 -13h-213v-217q0 -28 -19.5 -47t-47.5 -19z" />
    <glyph glyph-name="brokenbar" unicode="&#xa6;" horiz-adv-x="401" 
d="M199 569q-27 0 -46.5 20t-19.5 49v605q0 29 19.5 49t46.5 20q29 0 48.5 -20t19.5 -49v-605q0 -29 -19.5 -49t-48.5 -20zM199 -316q-27 0 -46.5 19.5t-19.5 47.5v600q0 28 19.5 48t46.5 20q29 0 48.5 -20t19.5 -48v-600q0 -28 -19.5 -47.5t-48.5 -19.5z" />
    <glyph glyph-name="section" unicode="&#xa7;" horiz-adv-x="1001" 
d="M499 -346q-123 0 -221 48q-104 51 -156 142q-7 13 -7 27q0 26 17.5 43t42.5 17q23 0 43 -15q57 -69 123.5 -99t156.5 -30q103 0 182 54q88 61 88 159q0 95 -104 149q-57 28 -173 57l-30 8q-184 56 -274 130q-124 100 -124 250q0 134 83 237q-38 62 -38 143q0 154 127 254
q118 93 275 93q123 0 222 -49q100 -49 155 -142q8 -14 8 -27q0 -26 -19 -43t-44 -17q-23 0 -41 15q-57 69 -123 99.5t-156 30.5q-103 0 -182 -54q-88 -59 -88 -159q0 -95 104 -149q50 -26 180 -59l23 -6q184 -58 275 -130q124 -99 124 -250q0 -138 -85 -238q39 -62 39 -142
q0 -153 -128 -254q-116 -93 -275 -93zM777 233q47 64 47 143q0 100 -101 168q-57 38 -214 88q-190 44 -277 110q-46 -61 -46 -142q0 -102 101 -168q59 -40 214 -90q190 -44 276 -109z" />
    <glyph glyph-name="dieresis" unicode="&#xa8;" horiz-adv-x="799" 
d="M236 1164q-34 0 -57 23t-23 57q0 35 23 58t57 23q35 0 58.5 -23t23.5 -58q0 -34 -23.5 -57t-58.5 -23zM578 1164q-33 0 -56 23q-24 24 -24 57q0 34 24 58q23 23 56 23q35 0 58 -23t23 -58q0 -34 -23 -57t-58 -23z" />
    <glyph glyph-name="copyright" unicode="&#xa9;" horiz-adv-x="1455" 
d="M733 -84q-188 0 -348 94q-158 94 -246 248q-94 160 -94 347q0 190 94 349q92 157 246 247q160 94 348 94q190 0 349 -94q156 -92 248 -247q94 -159 94 -349q0 -187 -94 -347q-92 -155 -248 -248q-159 -94 -349 -94zM733 53q112 0 213 42t178 119q162 162 162 391
t-162 391q-77 77 -178 119t-213 42t-212.5 -42t-177.5 -119t-119 -178t-42 -213t42 -213t119 -178t177.5 -119t212.5 -42zM738 174q-168 0 -288 118t-120 288q2 2 1 3q-1 0 -0.5 0.5l1.5 1.5l-2 5q0 170 120 290t288 120q170 0 278 -110q17 -17 17 -36q0 -18 -15.5 -32.5
t-31.5 -14.5q-14 0 -41 19q-88 80 -214 80q-129 0 -218 -95q-89 -94 -89 -221l-2 -4q0 -128 90 -223q91 -96 224 -96q124 0 209 79q20 20 42 20q16 0 31 -14.5t15 -32.5q0 -20 -17 -37q-51 -51 -125 -79.5t-153 -28.5z" />
    <glyph glyph-name="ordfeminine" unicode="&#xaa;" horiz-adv-x="887" 
d="M758 523q-29 0 -47 20t-18 51v47q-113 -113 -254 -113q-165 0 -279 116q-116 116 -116 280t116 280q114 116 279 116q162 0 274 -114q109 -114 114 -275v-337q0 -30 -20 -50.5t-49 -20.5zM440 659q109 0 187 78t78 187q0 110 -78 188t-187 78t-187 -78t-78 -188
q0 -109 78 -187t187 -78z" />
    <glyph glyph-name="guillemotleft" unicode="&#xab;" horiz-adv-x="1188" 
d="M1055 0q-27 0 -47 20l-414 415q-7 0 -15 20q-8 19 -8 29q0 26 18 45l5 6l414 410q21 21 48 21t47 -20.5t20 -47.5t-20 -47l-371 -367l370 -370q21 -21 21 -48q0 -26 -20.5 -46t-47.5 -20zM514 -1q-27 0 -47 20l-414 416q-1 0 -1 1q-21 18 -21 46q0 29 20 49l417 413
q21 21 48 21t47.5 -20.5t20.5 -47.5t-20 -47l-372 -367l370 -370q21 -21 21 -48q0 -26 -21 -47q-20 -19 -48 -19z" />
    <glyph glyph-name="logicalnot" unicode="&#xac;" horiz-adv-x="994" 
d="M838 355q-29 0 -48.5 19.5t-19.5 48.5v145l-658 1q-29 0 -48.5 20t-19.5 48t19.5 47.5t48.5 19.5h728q28 -1 47 -20.5t19 -47.5v-213q0 -29 -20 -48.5t-48 -19.5z" />
    <glyph glyph-name="uni00AD" unicode="&#xad;" horiz-adv-x="932" 
d="M783 552h-629q-21 0 -34.5 14t-13.5 34t13.5 33t34.5 13h629q20 0 34 -13t14 -32q0 -20 -14 -34.5t-34 -14.5z" />
    <glyph glyph-name="registered" unicode="&#xae;" horiz-adv-x="1433" 
d="M705 -46q-186 0 -343 93q-150 88 -241 243q-92 157 -92 342q0 182 92 343q89 152 241 243q155 92 343 92q185 0 343 -92q154 -93 243 -243q93 -159 93 -343q0 -185 -93 -342q-90 -153 -243 -243q-160 -93 -343 -93zM705 88q110 0 209.5 41.5t176.5 117.5
q76 76 117.5 175.5t41.5 209.5t-41.5 209.5t-117.5 175.5t-176 117t-210 41q-225 0 -383 -158q-76 -76 -117.5 -175.5t-41.5 -209.5t41.5 -209.5t117.5 -175.5t174.5 -117.5t208.5 -41.5zM551 209q-19 0 -33 12.5t-14 32.5v342q2 173 126 297q58 58 135.5 90.5t161.5 32.5h8
q21 0 34 -12.5t13 -31.5q0 -20 -13.5 -32.5t-33.5 -12.5h-8q-136 0 -234 -98q-99 -99 -99 -239v-336q0 -20 -12.5 -32.5t-30.5 -12.5z" />
    <glyph glyph-name="macron" unicode="&#xaf;" horiz-adv-x="860" 
d="M673 1141h-427q-25 0 -41 17t-16 43q0 24 16.5 40t40.5 16h427q26 0 42.5 -16t16.5 -40q0 -25 -16.5 -42.5t-42.5 -17.5z" />
    <glyph glyph-name="degree" unicode="&#xb0;" horiz-adv-x="683" 
d="M366 624q-120 0 -201 86q-84 84 -84 203t84 203q83 83 201 83q119 0 204 -83q84 -84 84 -203t-84 -203q-83 -86 -204 -86zM367 739q73 0 124 51q50 50 50 122q0 71 -50 123q-51 51 -124 51q-71 0 -122 -51t-51 -123q0 -71 51 -122t122 -51z" />
    <glyph glyph-name="plusminus" unicode="&#xb1;" horiz-adv-x="822" 
d="M410 410q-28 0 -47.5 19.5t-19.5 47.5v255h-253q-29 0 -48.5 19t-19.5 47q0 29 19.5 49t48.5 20h253v253q0 29 19.5 48.5t47.5 19.5q29 0 48.5 -19.5t19.5 -48.5v-253h254q28 0 48 -20.5t20 -49.5q0 -27 -20 -46t-48 -19h-254v-255q0 -28 -20 -47.5t-48 -19.5zM730 146
h-631q-29 0 -48.5 20t-19.5 48q0 29 19.5 48t48.5 19h631q29 0 49 -19.5t20 -47.5q0 -29 -20 -48.5t-49 -19.5z" />
    <glyph glyph-name="uni00B2" unicode="&#xb2;" horiz-adv-x="688" 
d="M542 508h-423q-35 0 -55 27q-14 20 -14 54q0 22 16 37l366 350q31 35 31 76q0 60 -33.5 96.5t-91.5 36.5q-52 0 -89 -30q-39 -31 -45 -82v-4q0 -28 -19 -47t-48 -19q-27 0 -45.5 18.5t-18.5 47.5q0 19 7 32q12 81 80 138q73 60 176 60q111 0 186 -69q74 -68 74 -174
q0 -79 -37 -125l-12 -11l-3 -5l-4 -5l-274 -276h276q29 0 47 -18t18 -46t-18 -45t-47 -17z" />
    <glyph glyph-name="uni00B3" unicode="&#xb3;" horiz-adv-x="596" 
d="M284 517q-70 0 -137 41q-60 36 -97 103q0 5 -3 13q-4 4 -4 12q0 18 14.5 32t34.5 14q24 0 37 -22l3 -7q21 -41 62.5 -63t95.5 -22q65 0 113 48q44 44 44 111q0 64 -46 107q-44 41 -112 41h-62v2h-4q-19 0 -35.5 14t-16.5 31q-1 16 14 33l188 196h-284q-23 0 -39.5 14.5
t-16.5 38.5q0 25 16.5 41t39.5 16h391q21 0 38.5 -17t17.5 -40q0 -26 -19 -45l-176 -184q94 -20 149 -82q59 -70 59 -161q0 -109 -78 -187t-187 -78z" />
    <glyph glyph-name="acute" unicode="&#xb4;" horiz-adv-x="510" 
d="M106 1505q-27 0 -46.5 19t-19.5 48q0 22 13 39.5t36 24.5l212 102q9 3 19 3q27 0 47 -20t20 -49q0 -22 -13 -39t-35 -24l-213 -101q-11 -3 -20 -3z" />
    <glyph glyph-name="mu" unicode="&#xb5;" horiz-adv-x="1174" 
d="M201 -346q-28 0 -48 19.5t-20 48.5v1174q0 29 20 49t47 20q28 0 47.5 -20t19.5 -49v-478q0 -137 103 -238q102 -100 241 -100t241 100q99 96 99 238v478q0 29 19.5 49t46.5 20q28 0 48 -20t20 -49v-477q-2 -199 -139 -336q-138 -138 -335 -138q-204 0 -344 146v-369
q0 -29 -18.5 -48.5t-47.5 -19.5z" />
    <glyph glyph-name="paragraph" unicode="&#xb6;" horiz-adv-x="1369" 
d="M618 0q-29 0 -49 19.5t-20 47.5v391h-81q-177 0 -299 125q-60 58 -92.5 136t-32.5 164q0 177 125 302q123 126 299 126h790q30 0 49 -17.5t19 -46.5t-20 -49t-48 -20h-118v-1111q0 -28 -20 -47.5t-49 -19.5q-27 0 -46 21t-19 51v1106h-324v-1107q0 -31 -17.5 -51
t-46.5 -20zM462 594h87v579h-87q-119 0 -204 -85q-84 -87 -84 -205q0 -121 84 -205t204 -84z" />
    <glyph glyph-name="periodcentered" unicode="&#xb7;" horiz-adv-x="328" 
d="M152 396q-40 0 -69 30q-30 32 -30 72q0 38 30 70q29 30 69 30q46 0 73 -30q29 -32 29 -70q0 -40 -29 -72q-27 -30 -73 -30z" />
    <glyph glyph-name="cedilla" unicode="&#xb8;" horiz-adv-x="481" 
d="M276 -481q-82 0 -141 59q-60 60 -60 141q0 20 13 33t33 13q18 0 30 -12.5t12 -32.5q0 -48 34 -80q31 -34 80 -34q48 0 82 34q33 33 33 80q0 51 -35.5 82.5t-92.5 31.5q-49 0 -49 37v175q0 16 13.5 27t30.5 11t30.5 -11t13.5 -27v-128q74 -8 124 -64q50 -58 50 -135
q0 -82 -59 -141t-142 -59z" />
    <glyph glyph-name="uni00B9" unicode="&#xb9;" horiz-adv-x="464" 
d="M297 566q-28 0 -48 19.5t-20 48.5v487l-118 -71q-17 -9 -33 -9q-28 0 -48 20q-23 21 -23 49q2 41 33 60l221 132q15 9 33 9q29 0 50.5 -19.5t21.5 -48.5v-609q0 -29 -20 -48.5t-49 -19.5z" />
    <glyph glyph-name="ordmasculine" unicode="&#xba;" horiz-adv-x="898" 
d="M448 521q-168 0 -283 118q-117 117 -117 283q0 80 31 153.5t86 128.5q117 117 283 117t283 -117q55 -55 86 -128.5t31 -153.5q0 -166 -117 -283q-115 -118 -283 -118zM448 651q112 0 191 79q78 81 78 192q0 112 -78 190q-81 78 -191 78q-111 0 -192 -78q-79 -79 -79 -190
q0 -113 79 -192t192 -79z" />
    <glyph glyph-name="guillemotright" unicode="&#xbb;" horiz-adv-x="1188" 
d="M90 0q-26 0 -46.5 20.5t-20.5 46.5q0 27 20 47l370 370l-371 367q-20 20 -20 47t20 47.5t47 20.5q28 0 49 -21l415 -411q21 -22 21 -50q0 -27 -20 -47l-415 -417q-20 -20 -49 -20zM631 -1q-26 0 -47 20t-21 46q0 27 21 48l369 370l-371 367q-20 20 -20 47t20.5 47.5
t46.5 20.5q28 0 49 -21l409 -407l7 -5q20 -23 20 -49q0 -25 -18 -45l-417 -419q-20 -20 -48 -20z" />
    <glyph glyph-name="onequarter" unicode="&#xbc;" horiz-adv-x="1706" 
 />
    <glyph glyph-name="onehalf" unicode="&#xbd;" horiz-adv-x="1651" 
 />
    <glyph glyph-name="threequarters" unicode="&#xbe;" horiz-adv-x="1679" 
 />
    <glyph glyph-name="questiondown" unicode="&#xbf;" horiz-adv-x="970" 
d="M538 847q-33 0 -56 23.5t-23 56.5q0 31 23 54.5t56 23.5t56 -23q22 -22 22 -55t-23 -56.5t-55 -23.5zM439 -327q-165 0 -282 117t-117 283q0 165 118 278q115 113 283 113h30v146q0 29 19 49t47 20q29 0 48 -20t19 -49v-211q0 -29 -19.5 -48.5t-47.5 -19.5h-99
q-111 0 -188 -75t-77 -183q0 -113 76 -189q75 -77 189 -77q108 0 186 76q79 77 79 190q0 29 18 49t46 20q29 0 49 -20t20 -49v-6q-2 -164 -118 -279q-117 -115 -279 -115z" />
    <glyph glyph-name="Agrave" unicode="&#xc0;" horiz-adv-x="1199" 
d="M577 1464q-9 0 -20 3l-213 101q-22 7 -35 24t-13 39q0 29 20 49t47 20q10 0 19 -3l212 -102q23 -7 36 -24.5t13 -39.5q0 -29 -19.5 -48t-46.5 -19zM197 -5q-29 0 -49 19.5t-20 48.5v776q0 200 121 335q132 146 340 146q221 0 356 -149q126 -142 126 -350v-758
q0 -29 -20.5 -48.5t-48.5 -19.5q-29 0 -49 19.5t-20 48.5v341h-667v-341q0 -29 -20.5 -48.5t-48.5 -19.5zM266 541h667v276q0 160 -95 263q-99 105 -246 105q-148 0 -236 -99q-90 -101 -90 -257v-288z" />
    <glyph glyph-name="Aacute" unicode="&#xc1;" horiz-adv-x="1199" 
d="M197 -5q-29 0 -49 19.5t-20 48.5v776q0 200 121 335q132 146 340 146q221 0 356 -149q126 -142 126 -350v-758q0 -29 -20.5 -48.5t-48.5 -19.5q-29 0 -49 19.5t-20 48.5v341h-667v-341q0 -29 -20.5 -48.5t-48.5 -19.5zM266 541h667v276q0 160 -95 263q-99 105 -246 105
q-148 0 -236 -99q-90 -101 -90 -257v-288zM579 1453q-27 0 -46.5 19t-19.5 48q0 22 13 39.5t36 24.5l212 102q9 3 19 3q27 0 47 -20t20 -49q0 -22 -13 -39t-35 -24l-213 -101q-11 -3 -20 -3z" />
    <glyph glyph-name="Acircumflex" unicode="&#xc2;" horiz-adv-x="1199" 
d="M583 1757q19 0 30 -8l12 -10l232 -233q17 -17 17 -38q0 -22 -17 -39t-39 -17q-21 0 -38 17l-195 197l-195 -197q-16 -16 -38 -16t-39 16t-17 39q0 20 18 38l231 233q9 12 38 18zM197 -5q-29 0 -49 19.5t-20 48.5v776q0 200 121 335q132 146 340 146q221 0 356 -149
q126 -142 126 -350v-758q0 -29 -20.5 -48.5t-48.5 -19.5q-29 0 -49 19.5t-20 48.5v341h-667v-341q0 -29 -20.5 -48.5t-48.5 -19.5zM266 541h667v276q0 160 -95 263q-99 105 -246 105q-148 0 -236 -99q-90 -101 -90 -257v-288z" />
    <glyph glyph-name="Atilde" unicode="&#xc3;" horiz-adv-x="1199" 
d="M197 -5q-29 0 -49 19.5t-20 48.5v776q0 200 121 335q132 146 340 146q221 0 356 -149q126 -142 126 -350v-758q0 -29 -20.5 -48.5t-48.5 -19.5q-29 0 -49 19.5t-20 48.5v341h-667v-341q0 -29 -20.5 -48.5t-48.5 -19.5zM266 541h667v276q0 160 -95 263q-99 105 -246 105
q-148 0 -236 -99q-90 -101 -90 -257v-288zM740 1452q-73 0 -166 72q-29 22 -54 38q-35 19 -66 19q-75 0 -126 -85q-5 -18 -19.5 -29t-30.5 -11q-23 0 -39 16t-16 38q0 20 13 36l1 1q25 52 71 90q65 54 142 54q42 0 76.5 -15.5t80.5 -50.5q35 -28 60 -41q41 -23 69 -23
q38 0 66 21t54 65q5 17 20 28t31 11q22 0 38 -15.5t16 -36.5t-15 -39q-24 -52 -67 -89q-63 -54 -139 -54z" />
    <glyph glyph-name="Adieresis" unicode="&#xc4;" horiz-adv-x="1199" 
d="M197 -5q-29 0 -49 19.5t-20 48.5v776q0 200 121 335q132 146 340 146q221 0 356 -149q126 -142 126 -350v-758q0 -29 -20.5 -48.5t-48.5 -19.5q-29 0 -49 19.5t-20 48.5v341h-667v-341q0 -29 -20.5 -48.5t-48.5 -19.5zM266 541h667v276q0 160 -95 263q-99 105 -246 105
q-148 0 -236 -99q-90 -101 -90 -257v-288zM419 1440q-34 0 -57 23t-23 57q0 35 23 58t57 23q35 0 58.5 -23t23.5 -58q0 -34 -23.5 -57t-58.5 -23zM761 1440q-33 0 -56 23q-24 24 -24 57q0 34 24 58q23 23 56 23q35 0 58 -23t23 -58q0 -34 -23 -57t-58 -23z" />
    <glyph glyph-name="Aring" unicode="&#xc5;" horiz-adv-x="1199" 
d="M197 -5q-29 0 -49 19.5t-20 48.5v776q0 200 121 335q132 146 340 146q221 0 356 -149q126 -142 126 -350v-758q0 -29 -20.5 -48.5t-48.5 -19.5q-29 0 -49 19.5t-20 48.5v341h-667v-341q0 -29 -20.5 -48.5t-48.5 -19.5zM266 541h667v276q0 160 -95 263q-99 105 -246 105
q-148 0 -236 -99q-90 -101 -90 -257v-288zM593 1423q-78 0 -128 55q-54 56 -54 129q0 75 54 129q51 53 128 53t130 -53q53 -56 53 -129t-53 -129q-52 -55 -130 -55zM594 1517q37 0 63 26t26 63q0 38 -26 64t-63 26q-38 0 -64 -26t-26 -64q0 -37 26 -63t64 -26z" />
    <glyph glyph-name="AE" unicode="&#xc6;" horiz-adv-x="1711" 
d="M197 -5q-29 0 -49 19.5t-20 48.5v776q0 197 121 330q126 142 340 142h1015q28 0 47 -19t19 -48q0 -28 -19 -47.5t-47 -19.5h-605v-442h437q28 0 47 -18.5t19 -46.5t-19 -46.5t-47 -18.5h-437v-472h605q28 0 47 -19.5t19 -46.5q0 -30 -19 -48.5t-47 -18.5h-677
q-27 2 -44.5 21.5t-17.5 46.5v336h-599v-341q0 -29 -20.5 -48.5t-48.5 -19.5zM266 541h599v633h-273q-147 0 -236 -94q-90 -96 -90 -251v-288z" />
    <glyph glyph-name="Ccedilla" unicode="&#xc7;" horiz-adv-x="1125" 
d="M955 339q29 0 49.5 -19.5t20.5 -45.5q0 -20 -14 -43q-69 -112 -163 -172q-100 -62 -225 -70v-106q74 -8 124 -64q50 -58 50 -135q0 -82 -59 -141t-142 -59q-82 0 -141 59q-60 60 -60 141q0 20 13 33t33 13q18 0 30 -12.5t12 -32.5q0 -48 34 -80q31 -34 80 -34q48 0 82 34
q33 33 33 80q0 51 -35.5 82.5t-92.5 31.5q-49 0 -49 37v155q-167 20 -282 144q-64 67 -99 155.5t-35 184.5v362q0 95 35.5 184t98.5 156q139 147 338 147q145 0 257 -72q100 -66 163 -172q14 -23 14 -43q0 -26 -20.5 -45.5t-49.5 -19.5q-31 0 -47 25q-49 90 -121 138
q-81 54 -196 54q-148 0 -247 -110q-92 -101 -92 -241v-364q0 -140 92 -241q98 -111 247 -111q115 0 196 54q69 46 121 138q16 25 47 25z" />
    <glyph glyph-name="Egrave" unicode="&#xc8;" horiz-adv-x="985" 
d="M598 1479q-10 0 -20 3l-213 101q-22 7 -35 24t-13 39q0 29 20 49t47 20q10 0 19 -3l212 -102q23 -7 36 -24.5t13 -39.5q0 -29 -19.5 -48t-46.5 -19zM872 0h-677q-27 2 -44.5 21.5t-17.5 46.5v1184q0 29 20 48t48 19h671q28 0 47 -19t19 -48q0 -28 -19 -47.5t-47 -19.5
h-605v-450h436q29 0 48 -18.5t19 -46.5t-19 -46.5t-48 -18.5h-436v-472h605q28 0 47 -19.5t19 -46.5q0 -30 -19 -48.5t-47 -18.5z" />
    <glyph glyph-name="Eacute" unicode="&#xc9;" horiz-adv-x="985" 
d="M872 0h-677q-27 2 -44.5 21.5t-17.5 46.5v1184q0 29 20 48t48 19h671q28 0 47 -19t19 -48q0 -28 -19 -47.5t-47 -19.5h-605v-450h436q29 0 48 -18.5t19 -46.5t-19 -46.5t-48 -18.5h-436v-472h605q28 0 47 -19.5t19 -46.5q0 -30 -19 -48.5t-47 -18.5zM551 1467
q-27 0 -46.5 19t-19.5 48q0 22 13 39.5t36 24.5l212 102q9 3 19 3q27 0 47 -20t20 -49q0 -22 -13 -39t-35 -24l-213 -101q-11 -3 -20 -3z" />
    <glyph glyph-name="Ecircumflex" unicode="&#xca;" horiz-adv-x="985" 
d="M568 1785q19 0 30 -8l12 -10l232 -233q17 -17 17 -38q0 -22 -17 -39t-39 -17q-21 0 -38 17l-195 197l-195 -197q-16 -16 -38 -16t-39 16t-17 39q0 20 18 38l231 233q9 12 38 18zM872 0h-677q-27 2 -44.5 21.5t-17.5 46.5v1184q0 29 20 48t48 19h671q28 0 47 -19t19 -48
q0 -28 -19 -47.5t-47 -19.5h-605v-450h436q29 0 48 -18.5t19 -46.5t-19 -46.5t-48 -18.5h-436v-472h605q28 0 47 -19.5t19 -46.5q0 -30 -19 -48.5t-47 -18.5z" />
    <glyph glyph-name="Edieresis" unicode="&#xcb;" horiz-adv-x="985" 
d="M872 0h-677q-27 2 -44.5 21.5t-17.5 46.5v1184q0 29 20 48t48 19h671q28 0 47 -19t19 -48q0 -28 -19 -47.5t-47 -19.5h-605v-450h436q29 0 48 -18.5t19 -46.5t-19 -46.5t-48 -18.5h-436v-472h605q28 0 47 -19.5t19 -46.5q0 -30 -19 -48.5t-47 -18.5zM392 1466
q-34 0 -57 23t-23 57q0 35 23 58t57 23q35 0 58.5 -23t23.5 -58q0 -34 -23.5 -57t-58.5 -23zM734 1466q-33 0 -56 23q-24 24 -24 57q0 34 24 58q23 23 56 23q35 0 58 -23t23 -58q0 -34 -23 -57t-58 -23z" />
    <glyph glyph-name="Igrave" unicode="&#xcc;" 
d="M203 1459q-9 0 -20 3l-213 101q-22 7 -35 24t-13 39q0 29 20 49t47 20q10 0 19 -3l212 -102q23 -7 36 -24.5t13 -39.5q0 -29 -19.5 -48t-46.5 -19zM199 -5q-27 0 -46.5 19t-19.5 46v1191q0 29 19 47.5t47 18.5t48 -18.5t20 -47.5v-1191q0 -27 -20 -46t-48 -19z" />
    <glyph glyph-name="Iacute" unicode="&#xcd;" 
d="M199 -5q-27 0 -46.5 19t-19.5 46v1191q0 29 19 47.5t47 18.5t48 -18.5t20 -47.5v-1191q0 -27 -20 -46t-48 -19zM219 1464q-27 0 -46.5 19t-19.5 48q0 22 13 39.5t36 24.5l212 102q9 3 19 3q27 0 47 -20t20 -49q0 -22 -13 -39t-35 -24l-213 -101q-10 -3 -20 -3z" />
    <glyph glyph-name="Icircumflex" unicode="&#xce;" 
d="M202 1762q19 0 30 -8l12 -10l232 -233q17 -17 17 -38q0 -22 -17 -39t-39 -17q-21 0 -38 17l-195 197l-195 -197q-16 -16 -38 -16t-39 16t-17 39q0 20 18 38l231 233q9 12 38 18zM199 -5q-27 0 -46.5 19t-19.5 46v1191q0 29 19 47.5t47 18.5t48 -18.5t20 -47.5v-1191
q0 -27 -20 -46t-48 -19z" />
    <glyph glyph-name="Idieresis" unicode="&#xcf;" 
d="M199 -5q-27 0 -46.5 19t-19.5 46v1191q0 29 19 47.5t47 18.5t48 -18.5t20 -47.5v-1191q0 -27 -20 -46t-48 -19zM31 1429q-34 0 -57 23t-23 57q0 35 23 58t57 23q35 0 58.5 -23t23.5 -58q0 -34 -23.5 -57t-58.5 -23zM373 1429q-33 0 -56 23q-24 24 -24 57q0 34 24 58
q23 23 56 23q35 0 58 -23t23 -58q0 -34 -23 -57t-58 -23z" />
    <glyph glyph-name="Eth" unicode="&#xd0;" horiz-adv-x="1140" 
d="M921 1185q63 -63 98.5 -150t35.5 -182v-395q0 -194 -134 -325q-135 -133 -338 -133h-384q-27 0 -46.5 19t-19.5 47v541h-76q-20 0 -34 14.5t-14 34.5t14 34t34 14h76v547q0 29 19 47.5t47 18.5h384q204 0 338 -132zM921 457v397q0 143 -92 235q-96 94 -246 94h-316v-479
h285q20 0 34 -14.5t14 -33.5q0 -20 -14 -34.5t-34 -14.5h-285v-474h316q149 0 246 95q92 90 92 229z" />
    <glyph glyph-name="Ntilde" unicode="&#xd1;" horiz-adv-x="1162" 
d="M196 -5q-29 0 -49 19.5t-20 48.5v776q0 200 121 335q132 146 340 146q220 0 355 -149q126 -142 126 -350v-758q0 -29 -19.5 -48.5t-48.5 -19.5t-49 19.5t-20 48.5v754q0 160 -95 263q-99 105 -246 105q-148 0 -236 -99q-91 -99 -91 -257v-766q0 -29 -20 -48.5t-48 -19.5z
M741 1442q-73 0 -166 72q-29 22 -54 38q-35 19 -66 19q-75 0 -126 -85q-5 -18 -19.5 -29t-30.5 -11q-23 0 -39 16t-16 38q0 20 13 36l1 1q25 52 71 90q64 54 142 54q42 0 76.5 -15.5t80.5 -50.5q35 -28 60 -41q41 -23 69 -23q38 0 66 21t54 65q5 17 20 28t31 11
q22 0 38 -15.5t16 -36.5t-15 -39q-24 -52 -67 -89q-63 -54 -139 -54z" />
    <glyph glyph-name="Ograve" unicode="&#xd2;" horiz-adv-x="1204" 
d="M674 1457q-10 0 -20 3l-213 101q-22 7 -35 24t-13 39q0 29 20 49t47 20q10 0 19 -3l212 -102q23 -7 36 -24.5t13 -39.5q0 -29 -19.5 -48t-46.5 -19zM602 -12q-99 0 -187.5 36.5t-156.5 102.5q-140 138 -140 331v395q0 192 140 332q141 139 344 139q202 0 343 -139
q140 -140 140 -332v-395q0 -193 -140 -331q-145 -139 -343 -139zM602 122q149 0 251 100q98 95 98 235v397q0 140 -98 235q-102 100 -251 100t-252 -100q-99 -96 -99 -235v-397q0 -141 99 -235q103 -100 252 -100z" />
    <glyph glyph-name="Oacute" unicode="&#xd3;" horiz-adv-x="1204" 
d="M602 -12q-99 0 -187.5 36.5t-156.5 102.5q-140 138 -140 331v395q0 192 140 332q141 139 344 139q202 0 343 -139q140 -140 140 -332v-395q0 -193 -140 -331q-145 -139 -343 -139zM602 122q149 0 251 100q98 95 98 235v397q0 140 -98 235q-102 100 -251 100t-252 -100
q-99 -96 -99 -235v-397q0 -141 99 -235q103 -100 252 -100zM724 1470q-27 0 -46.5 19t-19.5 48q0 22 13 39.5t36 24.5l212 102q9 3 19 3q27 0 47 -20t20 -49q0 -22 -13 -39t-35 -24l-213 -101q-11 -3 -20 -3z" />
    <glyph glyph-name="Ocircumflex" unicode="&#xd4;" horiz-adv-x="1204" 
d="M677 1764q19 0 30 -8l12 -10l232 -233q17 -17 17 -38q0 -22 -17 -39t-39 -17q-21 0 -38 17l-195 197l-195 -197q-16 -16 -38 -16t-39 16t-17 39q0 20 18 38l231 233q9 12 38 18zM602 -12q-99 0 -187.5 36.5t-156.5 102.5q-140 138 -140 331v395q0 192 140 332
q141 139 344 139q202 0 343 -139q140 -140 140 -332v-395q0 -193 -140 -331q-145 -139 -343 -139zM602 122q149 0 251 100q98 95 98 235v397q0 140 -98 235q-102 100 -251 100t-252 -100q-99 -96 -99 -235v-397q0 -141 99 -235q103 -100 252 -100z" />
    <glyph glyph-name="Otilde" unicode="&#xd5;" horiz-adv-x="1204" 
d="M602 -12q-99 0 -187.5 36.5t-156.5 102.5q-140 138 -140 331v395q0 192 140 332q141 139 344 139q202 0 343 -139q140 -140 140 -332v-395q0 -193 -140 -331q-145 -139 -343 -139zM602 122q149 0 251 100q98 95 98 235v397q0 140 -98 235q-102 100 -251 100t-252 -100
q-99 -96 -99 -235v-397q0 -141 99 -235q103 -100 252 -100zM774 1458q-73 0 -166 72q-29 22 -54 38q-35 19 -66 19q-75 0 -126 -85q-5 -18 -19.5 -29t-30.5 -11q-23 0 -39 16t-16 38q0 20 13 36l1 1q25 52 71 90q64 54 142 54q42 0 76.5 -15.5t80.5 -50.5q35 -28 60 -41
q41 -23 69 -23q38 0 66 21t54 65q5 17 20 28t31 11q22 0 38 -15.5t16 -36.5t-15 -39q-24 -52 -67 -89q-63 -54 -139 -54z" />
    <glyph glyph-name="Odieresis" unicode="&#xd6;" horiz-adv-x="1204" 
d="M602 -12q-99 0 -187.5 36.5t-156.5 102.5q-140 138 -140 331v395q0 192 140 332q141 139 344 139q202 0 343 -139q140 -140 140 -332v-395q0 -193 -140 -331q-145 -139 -343 -139zM602 122q149 0 251 100q98 95 98 235v397q0 140 -98 235q-102 100 -251 100t-252 -100
q-99 -96 -99 -235v-397q0 -141 99 -235q103 -100 252 -100zM497 1442q-34 0 -57 23t-23 57q0 35 23 58t57 23q35 0 58.5 -23t23.5 -58q0 -34 -23.5 -57t-58.5 -23zM839 1442q-33 0 -56 23q-24 24 -24 57q0 34 24 58q23 23 56 23q35 0 58 -23t23 -58q0 -34 -23 -57t-58 -23z
" />
    <glyph glyph-name="multiply" unicode="&#xd7;" horiz-adv-x="968" 
d="M129 73q-25 0 -43 17t-18 42q0 27 18 45l318 323l-315 319q-18 17 -18 42q0 24 18.5 43t42.5 19q26 0 45 -19l313 -317l312 316q19 19 45 19q24 0 43 -18.5t19 -41.5q0 -26 -19 -45l-314 -318l317 -320q18 -18 18 -46q0 -24 -18 -42t-42 -18t-43 19l-317 320l-316 -320
q-19 -19 -46 -19z" />
    <glyph glyph-name="Oslash" unicode="&#xd8;" horiz-adv-x="1204" 
d="M357 -89q-29 0 -48.5 20t-19.5 48q0 9 3 20l27 76q-93 65 -147 165t-54 218v395q0 192 140 332q141 139 344 139q74 0 158 -26l10 28q18 50 66 50q29 0 48.5 -19.5t19.5 -46.5q0 -10 -3 -20l-19 -54q92 -64 148 -165q55 -101 55 -218v-395q0 -193 -140 -331
q-145 -139 -343 -139q-77 0 -161 26l-19 -54q-20 -49 -65 -49zM367 207l347 965q-59 17 -112 17q-149 0 -252 -100q-99 -96 -99 -235v-397q0 -149 116 -250zM602 122q149 0 251 100q98 95 98 235v397q0 147 -117 251l-348 -966q60 -17 116 -17z" />
    <glyph glyph-name="Ugrave" unicode="&#xd9;" horiz-adv-x="1199" 
d="M640 1450q-10 0 -20 3l-213 101q-22 7 -35 24t-13 39q0 29 20 49t47 20q10 0 19 -3l212 -102q23 -7 36 -24.5t13 -39.5q0 -29 -19.5 -48t-46.5 -19zM589 -12q-207 0 -340 147q-121 133 -121 334v781q0 29 20 48.5t49 19.5q28 0 48.5 -19.5t20.5 -48.5v-772
q0 -156 90 -255t236 -99q148 0 246 104q95 101 95 263v759q0 29 20 48.5t49 19.5q28 0 48.5 -19.5t20.5 -48.5v-763q0 -207 -126 -349q-133 -150 -356 -150z" />
    <glyph glyph-name="Uacute" unicode="&#xda;" horiz-adv-x="1199" 
d="M589 -12q-207 0 -340 147q-121 133 -121 334v781q0 29 20 48.5t49 19.5q28 0 48.5 -19.5t20.5 -48.5v-772q0 -156 90 -255t236 -99q148 0 246 104q95 101 95 263v759q0 29 20 48.5t49 19.5q28 0 48.5 -19.5t20.5 -48.5v-763q0 -207 -126 -349q-133 -150 -356 -150z
M618 1441q-27 0 -46.5 19t-19.5 48q0 22 13 39.5t36 24.5l212 102q9 3 19 3q27 0 47 -20t20 -49q0 -22 -13 -39t-35 -24l-213 -101q-10 -3 -20 -3z" />
    <glyph glyph-name="Ucircumflex" unicode="&#xdb;" horiz-adv-x="1199" 
d="M624 1753q19 0 30 -8l12 -10l232 -233q17 -17 17 -38q0 -22 -17 -39t-39 -17q-21 0 -38 17l-195 197l-195 -197q-16 -16 -38 -16t-39 16t-17 39q0 20 18 38l231 233q9 12 38 18zM589 -12q-207 0 -340 147q-121 133 -121 334v781q0 29 20 48.5t49 19.5q28 0 48.5 -19.5
t20.5 -48.5v-772q0 -156 90 -255t236 -99q148 0 246 104q95 101 95 263v759q0 29 20 48.5t49 19.5q28 0 48.5 -19.5t20.5 -48.5v-763q0 -207 -126 -349q-133 -150 -356 -150z" />
    <glyph glyph-name="Udieresis" unicode="&#xdc;" horiz-adv-x="1199" 
d="M589 -12q-207 0 -340 147q-121 133 -121 334v781q0 29 20 48.5t49 19.5q28 0 48.5 -19.5t20.5 -48.5v-772q0 -156 90 -255t236 -99q148 0 246 104q95 101 95 263v759q0 29 20 48.5t49 19.5q28 0 48.5 -19.5t20.5 -48.5v-763q0 -207 -126 -349q-133 -150 -356 -150z
M462 1422q-34 0 -57 23t-23 57q0 35 23 58t57 23q35 0 58.5 -23t23.5 -58q0 -34 -23.5 -57t-58.5 -23zM804 1422q-33 0 -56 23q-24 24 -24 57q0 34 24 58q23 23 56 23q35 0 58 -23t23 -58q0 -34 -23 -57t-58 -23z" />
    <glyph glyph-name="Yacute" unicode="&#xdd;" horiz-adv-x="1062" 
d="M545 0q-29 0 -48.5 19.5t-19.5 48.5v424q-168 20 -283 149q-113 126 -118 302v308q0 29 20 48t48 19q29 0 47.5 -19t18.5 -48v-301q0 -138 93 -234q94 -99 229 -99t229 97q91 97 91 236v301q0 29 19.5 48t47.5 19q29 0 47.5 -19t18.5 -48v-295q0 -178 -104 -304
q-106 -128 -270 -157v-427q0 -29 -19.5 -48.5t-46.5 -19.5zM586 1439q-27 0 -46.5 19t-19.5 48q0 22 13 39.5t36 24.5l212 102q9 3 19 3q27 0 47 -20t20 -49q0 -22 -13 -39t-35 -24l-213 -101q-11 -3 -20 -3z" />
    <glyph glyph-name="Thorn" unicode="&#xde;" horiz-adv-x="1050" 
d="M199 0q-27 0 -46.5 19t-19.5 47v1179q0 29 19 47.5t47 18.5t48 -18.5t20 -47.5v-137h265q96 0 183 -33.5t153 -94.5q138 -130 138 -326q0 -194 -138 -322q-64 -61 -151.5 -94t-185.5 -33h-264v-139q0 -28 -20 -47t-48 -19zM267 339h265q148 0 245 94q95 90 95 221
q0 129 -95 224q-97 97 -242 97h-268v-636z" />
    <glyph glyph-name="germandbls" unicode="&#xdf;" horiz-adv-x="968" 
d="M201 -274q-28 0 -48 20t-20 48v1166q2 154 102 254t252 100q139 0 238 -94q100 -95 100 -233q0 -85 -36.5 -156t-100.5 -114q108 -42 170 -130q66 -93 66 -210q0 -153 -106 -261q-108 -111 -270 -116h-6q-27 0 -46 19t-19 47q0 27 19 46.5t46 19.5h6q94 0 170 73
q75 72 75 179q0 104 -74 173q-71 68 -172 68h-37q-31 0 -52 21.5t-21 51.5q0 31 21 52.5t52 21.5q84 0 136 65q51 64 51 146q0 85 -60 143t-150 58q-91 0 -150 -57q-65 -61 -66 -168v-1165q0 -28 -20.5 -48t-49.5 -20z" />
    <glyph glyph-name="agrave" unicode="&#xe0;" horiz-adv-x="1109" 
d="M562 1141q-10 0 -20 3l-213 101q-22 7 -35 24t-13 39q0 29 20 49t47 20q10 0 19 -3l212 -102q23 -7 36 -24.5t13 -39.5q0 -29 -19.5 -48t-46.5 -19zM532 -12q-202 0 -342 143q-67 67 -104 156.5t-37 187.5q0 203 141 347q140 143 342 143q203 0 343 -143
q66 -67 103 -157.5t37 -189.5v-411q0 -29 -20 -49t-49 -20t-47 19.5t-18 49.5l-1 72q-142 -148 -348 -148zM532 121q151 0 250 105q99 102 99 249q0 150 -99 251q-102 104 -250 104q-146 0 -248 -104q-101 -103 -101 -251q0 -146 101 -249q100 -105 248 -105z" />
    <glyph glyph-name="aacute" unicode="&#xe1;" horiz-adv-x="1109" 
d="M532 -12q-202 0 -342 143q-67 67 -104 156.5t-37 187.5q0 203 141 347q140 143 342 143q203 0 343 -143q66 -67 103 -157.5t37 -189.5v-411q0 -29 -20 -49t-49 -20t-47 19.5t-18 49.5l-1 72q-142 -148 -348 -148zM532 121q151 0 250 105q99 102 99 249q0 150 -99 251
q-102 104 -250 104q-146 0 -248 -104q-101 -103 -101 -251q0 -146 101 -249q100 -105 248 -105zM556 1137q-27 0 -46.5 19t-19.5 48q0 22 13 39.5t36 24.5l212 102q9 3 19 3q27 0 47 -20t20 -49q0 -22 -13 -39t-35 -24l-213 -101q-11 -3 -20 -3z" />
    <glyph glyph-name="acircumflex" unicode="&#xe2;" horiz-adv-x="1109" 
d="M530 1441q19 0 30 -8l12 -10l232 -233q17 -17 17 -38q0 -22 -17 -39t-39 -17q-21 0 -38 17l-195 197l-195 -197q-16 -16 -38 -16t-39 16t-17 39q0 20 18 38l231 233q9 12 38 18zM532 -12q-202 0 -342 143q-67 67 -104 156.5t-37 187.5q0 203 141 347q140 143 342 143
q203 0 343 -143q66 -67 103 -157.5t37 -189.5v-411q0 -29 -20 -49t-49 -20t-47 19.5t-18 49.5l-1 72q-142 -148 -348 -148zM532 121q151 0 250 105q99 102 99 249q0 150 -99 251q-102 104 -250 104q-146 0 -248 -104q-101 -103 -101 -251q0 -146 101 -249q100 -105 248 -105
z" />
    <glyph glyph-name="atilde" unicode="&#xe3;" horiz-adv-x="1109" 
d="M532 -12q-202 0 -342 143q-67 67 -104 156.5t-37 187.5q0 203 141 347q140 143 342 143q203 0 343 -143q66 -67 103 -157.5t37 -189.5v-411q0 -29 -20 -49t-49 -20t-47 19.5t-18 49.5l-1 72q-142 -148 -348 -148zM532 121q151 0 250 105q99 102 99 249q0 150 -99 251
q-102 104 -250 104q-146 0 -248 -104q-101 -103 -101 -251q0 -146 101 -249q100 -105 248 -105zM708 1101q-73 0 -166 72q-29 22 -54 38q-35 19 -66 19q-75 0 -126 -85q-5 -18 -19.5 -29t-30.5 -11q-23 0 -39 16t-16 38q0 20 13 36l1 1q25 52 71 90q65 54 142 54
q42 0 76.5 -15.5t80.5 -50.5q35 -28 60 -41q41 -23 69 -23q38 0 66 21t54 65q5 17 20 28t31 11q22 0 38 -15.5t16 -36.5t-15 -39q-24 -52 -67 -89q-63 -54 -139 -54z" />
    <glyph glyph-name="adieresis" unicode="&#xe4;" horiz-adv-x="1109" 
d="M532 -12q-202 0 -342 143q-67 67 -104 156.5t-37 187.5q0 203 141 347q140 143 342 143q203 0 343 -143q66 -67 103 -157.5t37 -189.5v-411q0 -29 -20 -49t-49 -20t-47 19.5t-18 49.5l-1 72q-142 -148 -348 -148zM532 121q151 0 250 105q99 102 99 249q0 150 -99 251
q-102 104 -250 104q-146 0 -248 -104q-101 -103 -101 -251q0 -146 101 -249q100 -105 248 -105zM365 1110q-34 0 -57 23t-23 57q0 35 23 58t57 23q35 0 58.5 -23t23.5 -58q0 -34 -23.5 -57t-58.5 -23zM707 1110q-33 0 -56 23q-24 24 -24 57q0 34 24 58q23 23 56 23
q35 0 58 -23t23 -58q0 -34 -23 -57t-58 -23z" />
    <glyph glyph-name="aring" unicode="&#xe5;" horiz-adv-x="1109" 
d="M532 -12q-202 0 -342 143q-67 67 -104 156.5t-37 187.5q0 203 141 347q140 143 342 143q203 0 343 -143q66 -67 103 -157.5t37 -189.5v-411q0 -29 -20 -49t-49 -20t-47 19.5t-18 49.5l-1 72q-142 -148 -348 -148zM532 121q151 0 250 105q99 102 99 249q0 150 -99 251
q-102 104 -250 104q-146 0 -248 -104q-101 -103 -101 -251q0 -146 101 -249q100 -105 248 -105zM539 1063q-78 0 -128 55q-54 56 -54 129q0 75 54 129q51 53 128 53t130 -53q53 -56 53 -129t-53 -129q-52 -55 -130 -55zM540 1157q37 0 63 26t26 63q0 38 -26 64t-63 26
q-38 0 -64 -26t-26 -64q0 -37 26 -63t64 -26z" />
    <glyph glyph-name="ae" unicode="&#xe6;" horiz-adv-x="1938" 
d="M532 -12q-201 0 -344 143q-69 67 -106.5 156.5t-37.5 187.5q0 99 37.5 189.5t106.5 157.5q143 143 344 143q129 0 242 -64q107 -62 174 -170q64 118 182 191t260 73q100 0 192 -38.5t163 -108.5q147 -147 149 -354q0 -28 -18.5 -46.5t-47.5 -18.5h-793q17 -134 117 -222
q101 -90 238 -90q164 0 264 119q23 17 46 17q27 0 46 -21.5t19 -48.5q0 -32 -25 -51q-64 -64 -144 -102q-92 -42 -206 -42q-108 0 -204 42t-166 119v-80q0 -29 -19.5 -49t-48.5 -20t-46.5 19.5t-18.5 49.5l-2 82q-70 -77 -161.5 -120t-191.5 -43zM1031 542h725
q-14 134 -118 230q-106 93 -246 93q-143 0 -245 -94t-116 -229zM532 121q151 0 253 105q102 104 102 249q0 147 -102 251q-104 104 -253 104q-147 0 -251 -104t-104 -251q0 -145 104 -249q102 -105 251 -105z" />
    <glyph glyph-name="ccedilla" unicode="&#xe7;" horiz-adv-x="929" 
d="M861 221q23 -21 23 -48q0 -31 -24 -55q-104 -109 -275 -126v-101q74 -8 124 -64q50 -58 50 -135q0 -82 -59 -141t-142 -59q-82 0 -141 59q-60 60 -60 141q0 20 13 33t33 13q18 0 30 -12.5t12 -32.5q0 -48 34 -80q31 -34 80 -34q48 0 82 34q33 33 33 80q0 51 -35.5 82.5
t-92.5 31.5q-49 0 -49 37v146q-180 12 -310 139q-143 140 -143 341q0 204 140 349q142 145 347 145q96 0 183 -33.5t146 -95.5q24 -26 24 -56q0 -29 -24 -48q-20 -17 -43 -17q-18 0 -53 23l-28 21q-22 16 -27 19q-80 52 -183 52q-146 0 -248 -107q-98 -104 -98 -244
q0 -144 97 -247q101 -107 249 -107q72 0 131 25q56 24 128 80q19 9 33 9q24 0 43 -17z" />
    <glyph glyph-name="egrave" unicode="&#xe8;" horiz-adv-x="1066" 
d="M556 1146q-10 0 -20 3l-213 101q-22 7 -35 24t-13 39q0 29 20 49t47 20q10 0 19 -3l212 -102q23 -7 36 -24.5t13 -39.5q0 -29 -19.5 -48t-46.5 -19zM533 -12q-98 0 -187.5 37.5t-157.5 105.5q-69 67 -106.5 157t-37.5 188t37.5 187.5t106.5 158.5q68 68 157.5 105.5
t187.5 37.5q97 0 186.5 -37.5t158.5 -105.5q68 -68 106 -157t39 -186q0 -27 -18 -45.5t-47 -18.5h-766q17 -125 113 -212q100 -87 228 -87q59 0 98 11q31 8 80 35q19 12 41 12q27 0 46 -21.5t19 -48.5q0 -36 -32 -54q-57 -32 -109 -46q-63 -16 -143 -16zM188 527h699
q-17 135 -115 221q-102 89 -237 89t-236 -91q-97 -89 -111 -219z" />
    <glyph glyph-name="eacute" unicode="&#xe9;" horiz-adv-x="1066" 
d="M533 -12q-98 0 -187.5 37.5t-157.5 105.5q-69 67 -106.5 157t-37.5 188t37.5 187.5t106.5 158.5q68 68 157.5 105.5t187.5 37.5q97 0 186.5 -37.5t158.5 -105.5q68 -68 106 -157t39 -186q0 -27 -18 -45.5t-47 -18.5h-766q17 -125 113 -212q100 -87 228 -87q59 0 98 11
q31 8 80 35q19 12 41 12q27 0 46 -21.5t19 -48.5q0 -36 -32 -54q-57 -32 -109 -46q-63 -16 -143 -16zM188 527h699q-17 135 -115 221q-102 89 -237 89t-236 -91q-97 -89 -111 -219zM577 1133q-27 0 -46.5 19t-19.5 48q0 22 13 39.5t36 24.5l212 102q9 3 19 3q27 0 47 -20
t20 -49q0 -22 -13 -39t-35 -24l-213 -101q-11 -3 -20 -3z" />
    <glyph glyph-name="ecircumflex" unicode="&#xea;" horiz-adv-x="1066" 
d="M547 1442q19 0 30 -8l12 -10l232 -233q17 -17 17 -38q0 -22 -17 -39t-39 -17q-21 0 -38 17l-195 197l-195 -197q-16 -16 -38 -16t-39 16t-17 39q0 20 18 38l231 233q9 12 38 18zM533 -12q-98 0 -187.5 37.5t-157.5 105.5q-69 67 -106.5 157t-37.5 188t37.5 187.5
t106.5 158.5q68 68 157.5 105.5t187.5 37.5q97 0 186.5 -37.5t158.5 -105.5q68 -68 106 -157t39 -186q0 -27 -18 -45.5t-47 -18.5h-766q17 -125 113 -212q100 -87 228 -87q59 0 98 11q31 8 80 35q19 12 41 12q27 0 46 -21.5t19 -48.5q0 -36 -32 -54q-57 -32 -109 -46
q-63 -16 -143 -16zM188 527h699q-17 135 -115 221q-102 89 -237 89t-236 -91q-97 -89 -111 -219z" />
    <glyph glyph-name="edieresis" unicode="&#xeb;" horiz-adv-x="1066" 
d="M533 -12q-98 0 -187.5 37.5t-157.5 105.5q-69 67 -106.5 157t-37.5 188t37.5 187.5t106.5 158.5q68 68 157.5 105.5t187.5 37.5q97 0 186.5 -37.5t158.5 -105.5q68 -68 106 -157t39 -186q0 -27 -18 -45.5t-47 -18.5h-766q17 -125 113 -212q100 -87 228 -87q59 0 98 11
q31 8 80 35q19 12 41 12q27 0 46 -21.5t19 -48.5q0 -36 -32 -54q-57 -32 -109 -46q-63 -16 -143 -16zM188 527h699q-17 135 -115 221q-102 89 -237 89t-236 -91q-97 -89 -111 -219zM376 1111q-34 0 -57 23t-23 57q0 35 23 58t57 23q35 0 58.5 -23t23.5 -58q0 -34 -23.5 -57
t-58.5 -23zM718 1111q-33 0 -56 23q-24 24 -24 57q0 34 24 58q23 23 56 23q35 0 58 -23t23 -58q0 -34 -23 -57t-58 -23z" />
    <glyph glyph-name="igrave" unicode="&#xec;" horiz-adv-x="409" 
d="M211 1133q-9 0 -20 3l-213 101q-22 7 -35 24t-13 39q0 29 20 49t47 20q10 0 19 -3l212 -102q23 -7 36 -24.5t13 -39.5q0 -29 -19.5 -48t-46.5 -19zM206 0q-28 0 -48 19.5t-20 48.5v828q0 29 20 49t49 20q28 0 47 -20t19 -49v-828q0 -29 -20 -48.5t-47 -19.5z" />
    <glyph glyph-name="iacute" unicode="&#xed;" horiz-adv-x="409" 
d="M191 1130q-27 0 -46.5 19t-19.5 48q0 22 13 39.5t36 24.5l212 102q9 3 19 3q27 0 47 -20t20 -49q0 -22 -13 -39t-35 -24l-213 -101q-10 -3 -20 -3zM206 0q-28 0 -48 19.5t-20 48.5v828q0 29 20 49t49 20q28 0 47 -20t19 -49v-828q0 -29 -20 -48.5t-47 -19.5z" />
    <glyph glyph-name="icircumflex" unicode="&#xee;" horiz-adv-x="409" 
d="M203 1444q19 0 30 -8l12 -10l232 -233q17 -17 17 -38q0 -22 -17 -39t-39 -17q-21 0 -38 17l-195 197l-195 -197q-16 -16 -38 -16t-39 16t-17 39q0 20 18 38l231 233q9 12 38 18zM206 0q-28 0 -48 19.5t-20 48.5v828q0 29 20 49t49 20q28 0 47 -20t19 -49v-828
q0 -29 -20 -48.5t-47 -19.5z" />
    <glyph glyph-name="idieresis" unicode="&#xef;" horiz-adv-x="409" 
d="M34 1097q-34 0 -57 23t-23 57q0 35 23 58t57 23q35 0 58.5 -23t23.5 -58q0 -34 -23.5 -57t-58.5 -23zM376 1097q-33 0 -56 23q-24 24 -24 57q0 34 24 58q23 23 56 23q35 0 58 -23t23 -58q0 -34 -23 -57t-58 -23zM206 0q-28 0 -48 19.5t-20 48.5v828q0 29 20 49t49 20
q28 0 47 -20t19 -49v-828q0 -29 -20 -48.5t-47 -19.5z" />
    <glyph glyph-name="eth" unicode="&#xf0;" horiz-adv-x="1064" 
d="M532 -12q-201 0 -344 143q-69 67 -106.5 156.5t-37.5 187.5q0 99 37.5 189.5t106.5 157.5q143 143 344 143q70 0 136 -19l-87 139l-100 -60q-12 -6 -23 -6q-18 0 -32 13.5t-14 33.5q0 25 25 41l94 56l-27 44q-12 19 -12 39q0 25 19 44q21 21 49 21q35 2 59 -36l26 -44
l109 65q10 6 23 6q18 0 32 -13.5t14 -33.5q0 -24 -25 -39l-105 -64l243 -402q84 -128 84 -275q0 -98 -37.5 -187.5t-104.5 -156.5q-68 -68 -157.5 -105.5t-188.5 -37.5zM532 121q151 0 253 105q103 103 103 249q0 148 -103 251q-104 104 -253 104q-147 0 -251 -104
t-104 -251q0 -145 104 -249q102 -105 251 -105z" />
    <glyph glyph-name="ntilde" unicode="&#xf1;" horiz-adv-x="1079" 
d="M143 0q-28 0 -48.5 19.5t-20.5 46.5v430q0 196 130 332q131 137 324 137q190 0 323 -136q128 -137 128 -332v-431q0 -29 -18.5 -47.5t-47.5 -18.5q-28 0 -47.5 18.5t-19.5 47.5v426q0 142 -89 239q-93 99 -229 99q-135 0 -229 -97q-91 -96 -91 -238v-429q0 -29 -18 -47.5
t-47 -18.5zM700 1096q-73 0 -166 72q-29 22 -54 38q-35 19 -66 19q-75 0 -126 -85q-5 -18 -19.5 -29t-30.5 -11q-23 0 -39 16t-16 38q0 20 13 36l1 1q25 52 71 90q64 54 142 54q42 0 76.5 -15.5t80.5 -50.5q35 -28 60 -41q41 -23 69 -23q38 0 66 21t54 65q5 17 20 28t31 11
q22 0 38 -15.5t16 -36.5t-15 -39q-24 -52 -67 -89q-63 -54 -139 -54z" />
    <glyph glyph-name="ograve" unicode="&#xf2;" horiz-adv-x="1064" 
d="M551 1139q-9 0 -20 3l-213 101q-22 7 -35 24t-13 39q0 29 20 49t47 20q10 0 19 -3l212 -102q23 -7 36 -24.5t13 -39.5q0 -29 -19.5 -48t-46.5 -19zM532 -12q-201 0 -344 143q-69 67 -106.5 156.5t-37.5 187.5q0 99 37.5 189.5t106.5 157.5q143 143 344 143
q99 0 188.5 -37.5t157.5 -105.5q68 -69 105 -158.5t37 -188.5q0 -98 -37.5 -187.5t-104.5 -156.5q-68 -68 -157.5 -105.5t-188.5 -37.5zM532 121q151 0 253 105q102 104 102 249q0 147 -102 251q-104 104 -253 104q-147 0 -251 -104t-104 -251q0 -145 104 -249
q102 -105 251 -105z" />
    <glyph glyph-name="oacute" unicode="&#xf3;" horiz-adv-x="1064" 
d="M532 -12q-201 0 -344 143q-69 67 -106.5 156.5t-37.5 187.5q0 99 37.5 189.5t106.5 157.5q143 143 344 143q99 0 188.5 -37.5t157.5 -105.5q68 -69 105 -158.5t37 -188.5q0 -98 -37.5 -187.5t-104.5 -156.5q-68 -68 -157.5 -105.5t-188.5 -37.5zM532 121q151 0 253 105
q102 104 102 249q0 147 -102 251q-104 104 -253 104q-147 0 -251 -104t-104 -251q0 -145 104 -249q102 -105 251 -105zM571 1138q-27 0 -46.5 19t-19.5 48q0 22 13 39.5t36 24.5l212 102q9 3 19 3q27 0 47 -20t20 -49q0 -22 -13 -39t-35 -24l-213 -101q-10 -3 -20 -3z" />
    <glyph glyph-name="ocircumflex" unicode="&#xf4;" horiz-adv-x="1064" 
d="M534 1441q19 0 30 -8l12 -10l232 -233q17 -17 17 -38q0 -22 -17 -39t-39 -17q-21 0 -38 17l-195 197l-195 -197q-16 -16 -38 -16t-39 16t-17 39q0 20 18 38l231 233q9 12 38 18zM532 -12q-201 0 -344 143q-69 67 -106.5 156.5t-37.5 187.5q0 99 37.5 189.5t106.5 157.5
q143 143 344 143q99 0 188.5 -37.5t157.5 -105.5q68 -69 105 -158.5t37 -188.5q0 -98 -37.5 -187.5t-104.5 -156.5q-68 -68 -157.5 -105.5t-188.5 -37.5zM532 121q151 0 253 105q102 104 102 249q0 147 -102 251q-104 104 -253 104q-147 0 -251 -104t-104 -251
q0 -145 104 -249q102 -105 251 -105z" />
    <glyph glyph-name="otilde" unicode="&#xf5;" horiz-adv-x="1064" 
d="M532 -12q-201 0 -344 143q-69 67 -106.5 156.5t-37.5 187.5q0 99 37.5 189.5t106.5 157.5q143 143 344 143q99 0 188.5 -37.5t157.5 -105.5q68 -69 105 -158.5t37 -188.5q0 -98 -37.5 -187.5t-104.5 -156.5q-68 -68 -157.5 -105.5t-188.5 -37.5zM532 121q151 0 253 105
q102 104 102 249q0 147 -102 251q-104 104 -253 104q-147 0 -251 -104t-104 -251q0 -145 104 -249q102 -105 251 -105zM696 1092q-73 0 -166 72q-29 22 -54 38q-35 19 -66 19q-75 0 -126 -85q-5 -18 -19.5 -29t-30.5 -11q-23 0 -39 16t-16 38q0 20 13 36l1 1q25 52 71 90
q64 54 142 54q42 0 76.5 -15.5t80.5 -50.5q35 -28 60 -41q41 -23 69 -23q38 0 66 21t54 65q5 17 20 28t31 11q22 0 38 -15.5t16 -36.5t-15 -39q-24 -52 -67 -89q-63 -54 -139 -54z" />
    <glyph glyph-name="odieresis" unicode="&#xf6;" horiz-adv-x="1064" 
d="M532 -12q-201 0 -344 143q-69 67 -106.5 156.5t-37.5 187.5q0 99 37.5 189.5t106.5 157.5q143 143 344 143q99 0 188.5 -37.5t157.5 -105.5q68 -69 105 -158.5t37 -188.5q0 -98 -37.5 -187.5t-104.5 -156.5q-68 -68 -157.5 -105.5t-188.5 -37.5zM532 121q151 0 253 105
q102 104 102 249q0 147 -102 251q-104 104 -253 104q-147 0 -251 -104t-104 -251q0 -145 104 -249q102 -105 251 -105zM364 1102q-34 0 -57 23t-23 57q0 35 23 58t57 23q35 0 58.5 -23t23.5 -58q0 -34 -23.5 -57t-58.5 -23zM706 1102q-33 0 -56 23q-24 24 -24 57q0 34 24 58
q23 23 56 23q35 0 58 -23t23 -58q0 -34 -23 -57t-58 -23z" />
    <glyph glyph-name="divide" unicode="&#xf7;" horiz-adv-x="808" 
d="M412 857q-35 0 -59.5 25.5t-24.5 60.5q0 36 24.5 60.5t59.5 24.5q37 0 62 -24.5t25 -60.5q0 -38 -25 -60q-26 -26 -62 -26zM711 483h-614q-27 0 -46 19.5t-19 45.5t19 44t46 18h614q27 0 45.5 -18t18.5 -44q0 -27 -18.5 -46t-45.5 -19zM411 95q-35 0 -60 25t-25 61t25 61
t60 25q36 0 61 -25t25 -61t-25 -61t-61 -25z" />
    <glyph glyph-name="oslash" unicode="&#xf8;" horiz-adv-x="1064" 
d="M242 -45q-27 0 -46.5 20t-19.5 47q0 22 9 35l31 47q-82 72 -127 168t-45 203q0 99 37.5 189.5t106.5 157.5q143 143 344 143q115 0 220 -52l23 35q23 35 59 35q28 0 47 -20t19 -47q0 -21 -9 -35l-29 -44q158 -150 158 -362q0 -98 -37.5 -187.5t-104.5 -156.5
q-68 -68 -157.5 -105.5t-188.5 -37.5q-101 0 -203 44l-28 -42q-20 -35 -59 -35zM290 216l387 584q-69 30 -145 30q-147 0 -251 -104t-104 -251q0 -158 113 -259zM532 121q151 0 253 105q103 103 103 249q0 148 -101 249l-384 -579q60 -24 129 -24z" />
    <glyph glyph-name="ugrave" unicode="&#xf9;" horiz-adv-x="1079" 
d="M571 1135q-9 0 -20 3l-213 101q-22 7 -35 24t-13 39q0 29 20 49t47 20q10 0 19 -3l212 -102q23 -7 36 -24.5t13 -39.5q0 -29 -19.5 -48t-46.5 -19zM547 -12q-193 0 -326 138q-132 134 -132 330v444q0 29 19.5 48t46.5 19q28 0 47.5 -19t19.5 -48v-444q0 -139 94 -236
q93 -99 231 -99t224 99q85 94 85 237v443q0 29 20 48.5t48 19.5t47 -19.5t19 -48.5v-446q0 -196 -125 -329q-128 -137 -318 -137z" />
    <glyph glyph-name="uacute" unicode="&#xfa;" horiz-adv-x="1079" 
d="M547 -12q-193 0 -326 138q-132 134 -132 330v444q0 29 19.5 48t46.5 19q28 0 47.5 -19t19.5 -48v-444q0 -139 94 -236q93 -99 231 -99t224 99q85 94 85 237v443q0 29 20 48.5t48 19.5t47 -19.5t19 -48.5v-446q0 -196 -125 -329q-128 -137 -318 -137zM557 1118
q-27 0 -46.5 19t-19.5 48q0 22 13 39.5t36 24.5l212 102q9 3 19 3q27 0 47 -20t20 -49q0 -22 -13 -39t-35 -24l-213 -101q-10 -3 -20 -3z" />
    <glyph glyph-name="ucircumflex" unicode="&#xfb;" horiz-adv-x="1079" 
d="M549 1425q19 0 30 -8l12 -10l232 -233q17 -17 17 -38q0 -22 -17 -39t-39 -17q-21 0 -38 17l-195 197l-195 -197q-16 -16 -38 -16t-39 16t-17 39q0 20 18 38l231 233q9 12 38 18zM547 -12q-193 0 -326 138q-132 134 -132 330v444q0 29 19.5 48t46.5 19q28 0 47.5 -19
t19.5 -48v-444q0 -139 94 -236q93 -99 231 -99t224 99q85 94 85 237v443q0 29 20 48.5t48 19.5t47 -19.5t19 -48.5v-446q0 -196 -125 -329q-128 -137 -318 -137z" />
    <glyph glyph-name="udieresis" unicode="&#xfc;" horiz-adv-x="1079" 
d="M547 -12q-193 0 -326 138q-132 134 -132 330v444q0 29 19.5 48t46.5 19q28 0 47.5 -19t19.5 -48v-444q0 -139 94 -236q93 -99 231 -99t224 99q85 94 85 237v443q0 29 20 48.5t48 19.5t47 -19.5t19 -48.5v-446q0 -196 -125 -329q-128 -137 -318 -137zM369 1094
q-34 0 -57 23t-23 57q0 35 23 58t57 23q35 0 58.5 -23t23.5 -58q0 -34 -23.5 -57t-58.5 -23zM711 1094q-33 0 -56 23q-24 24 -24 57q0 34 24 58q23 23 56 23q35 0 58 -23t23 -58q0 -34 -23 -57t-58 -23z" />
    <glyph glyph-name="yacute" unicode="&#xfd;" horiz-adv-x="1114" 
d="M976 -298q-28 0 -47 19t-19 48v406q-68 -81 -156 -125.5t-188 -44.5q-96 0 -184 36.5t-155 103.5q-141 141 -141 339v414q0 29 20 49t49 20q27 0 47 -20t20 -49v-419q0 -68 27 -130.5t75 -108.5q102 -100 242 -100q139 0 242 100q48 46 75 108.5t27 130.5v419q0 29 20 49
t47 20q28 0 48 -20t20 -49v-1129q0 -29 -20 -48t-49 -19zM558 1119q-27 0 -46.5 19t-19.5 48q0 22 13 39.5t36 24.5l212 102q9 3 19 3q27 0 47 -20t20 -49q0 -22 -13 -39t-35 -24l-213 -101q-10 -3 -20 -3z" />
    <glyph glyph-name="thorn" unicode="&#xfe;" horiz-adv-x="1185" 
d="M201 -311q-28 0 -48 20.5t-20 49.5v1480q0 30 20 50.5t48 20.5q30 0 48 -20t18 -51v-427q144 153 355 153q98 0 187.5 -37.5t157.5 -105.5q67 -67 104.5 -157.5t37.5 -189.5q0 -98 -37.5 -187.5t-104.5 -156.5q-68 -68 -157.5 -105.5t-187.5 -37.5q-211 0 -355 153v-382
q0 -30 -18.5 -50t-47.5 -20zM622 121q150 0 252 105q103 103 103 249q0 148 -103 251q-104 104 -252 104t-252 -104q-103 -103 -103 -251q0 -146 103 -249q102 -105 252 -105z" />
    <glyph glyph-name="ydieresis" unicode="&#xff;" horiz-adv-x="1114" 
d="M976 -298q-28 0 -47 19t-19 48v406q-68 -81 -156 -125.5t-188 -44.5q-96 0 -184 36.5t-155 103.5q-141 141 -141 339v414q0 29 20 49t49 20q27 0 47 -20t20 -49v-419q0 -68 27 -130.5t75 -108.5q102 -100 242 -100q139 0 242 100q48 46 75 108.5t27 130.5v419q0 29 20 49
t47 20q28 0 48 -20t20 -49v-1129q0 -29 -20 -48t-49 -19zM390 1098q-34 0 -57 23t-23 57q0 35 23 58t57 23q35 0 58.5 -23t23.5 -58q0 -34 -23.5 -57t-58.5 -23zM732 1098q-33 0 -56 23q-24 24 -24 57q0 34 24 58q23 23 56 23q35 0 58 -23t23 -58q0 -34 -23 -57t-58 -23z
" />
    <glyph glyph-name="Amacron" unicode="&#x100;" horiz-adv-x="1199" 
d="M197 -5q-29 0 -49 19.5t-20 48.5v776q0 200 121 335q132 146 340 146q221 0 356 -149q126 -142 126 -350v-758q0 -29 -20.5 -48.5t-48.5 -19.5q-29 0 -49 19.5t-20 48.5v341h-667v-341q0 -29 -20.5 -48.5t-48.5 -19.5zM266 541h667v276q0 160 -95 263q-99 105 -246 105
q-148 0 -236 -99q-90 -101 -90 -257v-288zM801 1461h-427q-25 0 -41 17t-16 43q0 24 16.5 40t40.5 16h427q26 0 42.5 -16t16.5 -40q0 -25 -16.5 -42.5t-42.5 -17.5z" />
    <glyph glyph-name="amacron" unicode="&#x101;" horiz-adv-x="1109" 
d="M532 -12q-202 0 -342 143q-67 67 -104 156.5t-37 187.5q0 203 141 347q140 143 342 143q203 0 343 -143q66 -67 103 -157.5t37 -189.5v-411q0 -29 -20 -49t-49 -20t-47 19.5t-18 49.5l-1 72q-142 -148 -348 -148zM532 121q151 0 250 105q99 102 99 249q0 150 -99 251
q-102 104 -250 104q-146 0 -248 -104q-101 -103 -101 -251q0 -146 101 -249q100 -105 248 -105zM747 1112h-427q-25 0 -41 17t-16 43q0 24 16.5 40t40.5 16h427q26 0 42.5 -16t16.5 -40q0 -25 -16.5 -42.5t-42.5 -17.5z" />
    <glyph glyph-name="Abreve" unicode="&#x102;" horiz-adv-x="1199" 
d="M197 -5q-29 0 -49 19.5t-20 48.5v776q0 200 121 335q132 146 340 146q221 0 356 -149q126 -142 126 -350v-758q0 -29 -20.5 -48.5t-48.5 -19.5q-29 0 -49 19.5t-20 48.5v341h-667v-341q0 -29 -20.5 -48.5t-48.5 -19.5zM266 541h667v276q0 160 -95 263q-99 105 -246 105
q-148 0 -236 -99q-90 -101 -90 -257v-288zM598 1425q-89 0 -152 63q-62 62 -62 151q0 20 13.5 34t32.5 14q20 0 34 -14t14 -34v-4q2 -49 36 -82q35 -35 84 -35t84 35q35 34 37 82v4q0 20 13 34t33 14t33.5 -14t13.5 -34v-4q-2 -86 -65 -148q-64 -62 -149 -62z" />
    <glyph glyph-name="abreve" unicode="&#x103;" horiz-adv-x="1109" 
d="M532 -12q-202 0 -342 143q-67 67 -104 156.5t-37 187.5q0 203 141 347q140 143 342 143q203 0 343 -143q66 -67 103 -157.5t37 -189.5v-411q0 -29 -20 -49t-49 -20t-47 19.5t-18 49.5l-1 72q-142 -148 -348 -148zM532 121q151 0 250 105q99 102 99 249q0 150 -99 251
q-102 104 -250 104q-146 0 -248 -104q-101 -103 -101 -251q0 -146 101 -249q100 -105 248 -105zM551 1103q-89 0 -152 63q-62 62 -62 151q0 20 13.5 34t32.5 14q20 0 34 -14t14 -34v-4q2 -49 36 -82q35 -35 84 -35t84 35q35 34 37 82v4q0 20 13 34t33 14t33.5 -14t13.5 -34
v-4q-2 -86 -65 -148q-64 -62 -149 -62z" />
    <glyph glyph-name="Aogonek" unicode="&#x104;" horiz-adv-x="1199" 
d="M1162 -150q18 0 31 -13t13 -30v-1q0 -84 -59 -143t-143 -59q-83 0 -142 59t-59 143q0 91 65 148l74 74q-9 15 -9 35v341h-667v-341q0 -29 -20.5 -48.5t-48.5 -19.5q-29 0 -49 19.5t-20 48.5v776q0 200 121 335q132 146 340 146q221 0 356 -149q126 -142 126 -350v-758
q0 -29 -21 -49l-127 -125q-35 -35 -35 -82t33 -80q32 -34 81 -34q48 0 81 33q34 32 34 81q0 18 12.5 30.5t32.5 12.5zM933 541v276q0 160 -95 263q-99 105 -246 105q-148 0 -236 -99q-90 -101 -90 -257v-288h667z" />
    <glyph glyph-name="aogonek" unicode="&#x105;" horiz-adv-x="1109" 
d="M1105 -145q18 0 31 -13t13 -30v-1q0 -84 -59 -143t-143 -59q-83 0 -142 59t-59 143q0 91 65 148l76 75q-6 14 -6 30l-1 72q-142 -148 -348 -148q-202 0 -342 143q-67 67 -104 156.5t-37 187.5q0 203 141 347q140 143 342 143q203 0 343 -143q66 -67 103 -157.5t37 -189.5
v-411q0 -45 -40 -63l-109 -107q-35 -35 -35 -82t33 -80q32 -34 81 -34q48 0 81 33q34 32 34 81q0 18 12.5 30.5t32.5 12.5zM782 226q99 102 99 249q0 150 -99 251q-102 104 -250 104q-146 0 -248 -104q-101 -103 -101 -251q0 -146 101 -249q100 -105 248 -105q151 0 250 105
z" />
    <glyph glyph-name="Cacute" unicode="&#x106;" horiz-adv-x="1125" 
d="M591 -12q-199 0 -338 147q-64 67 -99 155.5t-35 184.5v362q0 95 35.5 184t98.5 156q139 147 338 147q145 0 257 -72q100 -66 163 -172q14 -23 14 -43q0 -26 -20.5 -45.5t-49.5 -19.5q-31 0 -47 25q-49 90 -121 138q-81 54 -196 54q-148 0 -247 -110q-92 -101 -92 -241
v-364q0 -140 92 -241q98 -111 247 -111q115 0 196 54q69 46 121 138q16 25 47 25q29 0 49.5 -19.5t20.5 -45.5q0 -20 -14 -43q-69 -112 -163 -172q-112 -71 -257 -71zM609 1463q-27 0 -46.5 19t-19.5 48q0 22 13 39.5t36 24.5l212 102q9 3 19 3q27 0 47 -20t20 -49
q0 -22 -13 -39t-35 -24l-213 -101q-10 -3 -20 -3z" />
    <glyph glyph-name="cacute" unicode="&#x107;" horiz-adv-x="929" 
d="M531 -11q-202 0 -344 140q-143 140 -143 341q0 204 140 349q142 145 347 145q96 0 183 -33.5t146 -95.5q24 -26 24 -56q0 -29 -24 -48q-20 -17 -43 -17q-18 0 -53 23l-28 21q-22 16 -27 19q-80 52 -183 52q-146 0 -248 -107q-98 -104 -98 -244q0 -144 97 -247
q101 -107 249 -107q72 0 131 25q56 24 128 80q19 9 33 9q24 0 43 -17q23 -21 23 -48q0 -31 -24 -55q-59 -62 -146 -95.5t-183 -33.5zM540 1138q-27 0 -46.5 19t-19.5 48q0 22 13 39.5t36 24.5l212 102q9 3 19 3q27 0 47 -20t20 -49q0 -22 -13 -39t-35 -24l-213 -101
q-10 -3 -20 -3z" />
    <glyph glyph-name="Ccircumflex" unicode="&#x108;" horiz-adv-x="1125" 
d="M597 1773q19 0 30 -8l12 -10l232 -233q17 -17 17 -38q0 -22 -17 -39t-39 -17q-21 0 -38 17l-195 197l-195 -197q-16 -16 -38 -16t-39 16t-17 39q0 20 18 38l231 233q9 12 38 18zM591 -12q-199 0 -338 147q-64 67 -99 155.5t-35 184.5v362q0 95 35.5 184t98.5 156
q139 147 338 147q145 0 257 -72q100 -66 163 -172q14 -23 14 -43q0 -26 -20.5 -45.5t-49.5 -19.5q-31 0 -47 25q-49 90 -121 138q-81 54 -196 54q-148 0 -247 -110q-92 -101 -92 -241v-364q0 -140 92 -241q98 -111 247 -111q115 0 196 54q69 46 121 138q16 25 47 25
q29 0 49.5 -19.5t20.5 -45.5q0 -20 -14 -43q-69 -112 -163 -172q-112 -71 -257 -71z" />
    <glyph glyph-name="ccircumflex" unicode="&#x109;" horiz-adv-x="929" 
d="M528 1439q19 0 30 -8l12 -10l232 -233q17 -17 17 -38q0 -22 -17 -39t-39 -17q-21 0 -38 17l-195 197l-195 -197q-16 -16 -38 -16t-39 16t-17 39q0 20 18 38l231 233q9 12 38 18zM531 -11q-202 0 -344 140q-143 140 -143 341q0 204 140 349q142 145 347 145
q96 0 183 -33.5t146 -95.5q24 -26 24 -56q0 -29 -24 -48q-20 -17 -43 -17q-18 0 -53 23l-28 21q-22 16 -27 19q-80 52 -183 52q-146 0 -248 -107q-98 -104 -98 -244q0 -144 97 -247q101 -107 249 -107q72 0 131 25q56 24 128 80q19 9 33 9q24 0 43 -17q23 -21 23 -48
q0 -31 -24 -55q-59 -62 -146 -95.5t-183 -33.5z" />
    <glyph glyph-name="Cdotaccent" unicode="&#x10a;" horiz-adv-x="1125" 
d="M591 -11q-199 0 -338 147q-64 67 -99 155.5t-35 184.5v362q0 95 35.5 184t98.5 156q139 147 338 147q145 0 257 -72q100 -66 163 -172q14 -23 14 -43q0 -26 -20.5 -45.5t-49.5 -19.5q-31 0 -47 25q-49 90 -121 138q-81 54 -196 54q-148 0 -247 -110q-92 -101 -92 -241
v-364q0 -140 92 -241q98 -111 247 -111q115 0 196 54q69 46 121 138q16 25 47 25q29 0 49.5 -19.5t20.5 -45.5q0 -20 -14 -43q-69 -112 -163 -172q-112 -71 -257 -71zM592 1451q-35 0 -60 25t-25 60q0 36 25 61t60 25q36 0 61 -25t25 -61q0 -35 -25 -60t-61 -25z" />
    <glyph glyph-name="cdotaccent" unicode="&#x10b;" horiz-adv-x="929" 
d="M531 -11q-202 0 -344 140q-143 140 -143 341q0 204 140 349q142 145 347 145q96 0 183 -33.5t146 -95.5q24 -26 24 -56q0 -29 -24 -48q-20 -17 -43 -17q-18 0 -53 23l-28 21q-22 16 -27 19q-80 52 -183 52q-146 0 -248 -107q-98 -104 -98 -244q0 -144 97 -247
q101 -107 249 -107q72 0 131 25q56 24 128 80q19 9 33 9q24 0 43 -17q23 -21 23 -48q0 -31 -24 -55q-59 -62 -146 -95.5t-183 -33.5zM526 1102q-35 0 -60 25t-25 60q0 36 25 61t60 25q36 0 61 -25t25 -61q0 -35 -25 -60t-61 -25z" />
    <glyph glyph-name="Ccaron" unicode="&#x10c;" horiz-adv-x="1125" 
d="M591 -12q-199 0 -338 147q-64 67 -99 155.5t-35 184.5v362q0 95 35.5 184t98.5 156q139 147 338 147q145 0 257 -72q100 -66 163 -172q14 -23 14 -43q0 -26 -20.5 -45.5t-49.5 -19.5q-31 0 -47 25q-49 90 -121 138q-81 54 -196 54q-148 0 -247 -110q-92 -101 -92 -241
v-364q0 -140 92 -241q98 -111 247 -111q115 0 196 54q69 46 121 138q16 25 47 25q29 0 49.5 -19.5t20.5 -45.5q0 -20 -14 -43q-69 -112 -163 -172q-112 -71 -257 -71zM587 1437q-29 6 -38 18l-231 233q-18 18 -18 38q0 23 17 39t39 16t38 -16l195 -197l195 197q17 17 38 17
q22 0 39 -17t17 -39q0 -21 -17 -38l-232 -233l-12 -10q-11 -8 -30 -8z" />
    <glyph glyph-name="ccaron" unicode="&#x10d;" horiz-adv-x="929" 
d="M531 -11q-202 0 -344 140q-143 140 -143 341q0 204 140 349q142 145 347 145q96 0 183 -33.5t146 -95.5q24 -26 24 -56q0 -29 -24 -48q-20 -17 -43 -17q-18 0 -53 23l-28 21q-22 16 -27 19q-80 52 -183 52q-146 0 -248 -107q-98 -104 -98 -244q0 -144 97 -247
q101 -107 249 -107q72 0 131 25q56 24 128 80q19 9 33 9q24 0 43 -17q23 -21 23 -48q0 -31 -24 -55q-59 -62 -146 -95.5t-183 -33.5zM532 1094q-29 6 -38 18l-231 233q-18 18 -18 38q0 23 17 39t39 16t38 -16l195 -197l195 197q17 17 38 17q22 0 39 -17t17 -39
q0 -21 -17 -38l-232 -233l-12 -10q-11 -8 -30 -8z" />
    <glyph glyph-name="Dcaron" unicode="&#x10e;" horiz-adv-x="1140" 
d="M583 0h-384q-27 0 -46.5 19t-19.5 47v1185q0 29 19 47.5t47 18.5h384q204 0 338 -132q63 -63 98.5 -150t35.5 -182v-395q0 -194 -134 -325q-135 -133 -338 -133zM267 133h316q149 0 246 95q92 90 92 229v397q0 143 -92 235q-96 94 -246 94h-316v-1050zM505 1441
q-29 6 -38 18l-231 233q-18 18 -18 38q0 23 17 39t39 16t38 -16l195 -197l195 197q17 17 38 17q22 0 39 -17t17 -39q0 -21 -17 -38l-232 -233l-12 -10q-11 -8 -30 -8z" />
    <glyph glyph-name="dcaron" unicode="&#x10f;" horiz-adv-x="1109" 
d="M532 -12q-201 0 -344 143q-69 67 -106.5 156.5t-37.5 187.5q0 99 37.5 189.5t106.5 157.5q143 143 344 143q249 0 355 -226v507q0 30 18.5 49.5t47.5 19.5q28 0 47.5 -20t19.5 -49v-777q-1 -96 -39 -184.5t-105 -155.5t-156.5 -104t-187.5 -37zM532 121q151 0 253 105
q102 104 102 249q0 147 -102 251q-104 104 -253 104q-147 0 -251 -104t-104 -251q0 -145 104 -249q102 -105 251 -105zM529 1095q-29 6 -38 18l-231 233q-18 18 -18 38q0 23 17 39t39 16t38 -16l195 -197l195 197q17 17 38 17q22 0 39 -17t17 -39q0 -21 -17 -38l-232 -233
l-12 -10q-11 -8 -30 -8z" />
    <glyph glyph-name="Dcroat" unicode="&#x110;" horiz-adv-x="1275" 
d="M921 1185q63 -63 98.5 -150t35.5 -182v-395q0 -194 -134 -325q-135 -133 -338 -133h-384q-27 0 -46.5 19t-19.5 47v531h-109q-24 0 -41 16.5t-17 40.5q0 25 16.5 41t41.5 16h109v540q0 29 19 47.5t47 18.5h384q204 0 338 -132zM921 457v397q0 143 -92 235q-96 94 -246 94
h-316v-472h163q24 0 41 -16.5t17 -39.5q0 -24 -17 -41t-41 -17h-163v-464h316q149 0 246 95q92 90 92 229z" />
    <glyph glyph-name="dcroat" unicode="&#x111;" horiz-adv-x="1109" 
d="M1020 1125h154q20 0 34.5 -14t14.5 -33q0 -20 -14 -32.5t-35 -12.5h-154v-564q-1 -96 -39 -184.5t-105 -155.5t-156.5 -104t-187.5 -37q-201 0 -344 143q-69 67 -106.5 156.5t-37.5 187.5q0 99 37.5 189.5t106.5 157.5q143 143 344 143q249 0 355 -226v294h-166
q-20 0 -33.5 12.5t-13.5 32.5t13.5 33.5t33.5 13.5h166v121q0 30 18.5 49.5t47.5 19.5q28 0 47.5 -20t19.5 -49v-121zM785 226q102 104 102 249q0 147 -102 251q-104 104 -253 104q-147 0 -251 -104t-104 -251q0 -145 104 -249q102 -105 251 -105q151 0 253 105z" />
    <glyph glyph-name="Emacron" unicode="&#x112;" horiz-adv-x="985" 
d="M872 0h-677q-27 2 -44.5 21.5t-17.5 46.5v1184q0 29 20 48t48 19h671q28 0 47 -19t19 -48q0 -28 -19 -47.5t-47 -19.5h-605v-450h436q29 0 48 -18.5t19 -46.5t-19 -46.5t-48 -18.5h-436v-472h605q28 0 47 -19.5t19 -46.5q0 -30 -19 -48.5t-47 -18.5zM773 1453h-427
q-25 0 -41 17t-16 43q0 24 16.5 40t40.5 16h427q26 0 42.5 -16t16.5 -40q0 -25 -16.5 -42.5t-42.5 -17.5z" />
    <glyph glyph-name="emacron" unicode="&#x113;" horiz-adv-x="1066" 
d="M533 -12q-98 0 -187.5 37.5t-157.5 105.5q-69 67 -106.5 157t-37.5 188t37.5 187.5t106.5 158.5q68 68 157.5 105.5t187.5 37.5q97 0 186.5 -37.5t158.5 -105.5q68 -68 106 -157t39 -186q0 -27 -18 -45.5t-47 -18.5h-766q17 -125 113 -212q100 -87 228 -87q59 0 98 11
q31 8 80 35q19 12 41 12q27 0 46 -21.5t19 -48.5q0 -36 -32 -54q-57 -32 -109 -46q-63 -16 -143 -16zM188 527h699q-17 135 -115 221q-102 89 -237 89t-236 -91q-97 -89 -111 -219zM743 1122h-427q-25 0 -41 17t-16 43q0 24 16.5 40t40.5 16h427q26 0 42.5 -16t16.5 -40
q0 -25 -16.5 -42.5t-42.5 -17.5z" />
    <glyph glyph-name="Ebreve" unicode="&#x114;" horiz-adv-x="985" 
d="M872 0h-677q-27 2 -44.5 21.5t-17.5 46.5v1184q0 29 20 48t48 19h671q28 0 47 -19t19 -48q0 -28 -19 -47.5t-47 -19.5h-605v-450h436q29 0 48 -18.5t19 -46.5t-19 -46.5t-48 -18.5h-436v-472h605q28 0 47 -19.5t19 -46.5q0 -30 -19 -48.5t-47 -18.5zM568 1432
q-89 0 -152 63q-62 62 -62 151q0 20 13.5 34t32.5 14q20 0 34 -14t14 -34v-4q2 -49 36 -82q35 -35 84 -35t84 35q35 34 37 82v4q0 20 13 34t33 14t33.5 -14t13.5 -34v-4q-2 -86 -65 -148q-64 -62 -149 -62z" />
    <glyph glyph-name="ebreve" unicode="&#x115;" horiz-adv-x="1066" 
d="M533 -12q-98 0 -187.5 37.5t-157.5 105.5q-69 67 -106.5 157t-37.5 188t37.5 187.5t106.5 158.5q68 68 157.5 105.5t187.5 37.5q97 0 186.5 -37.5t158.5 -105.5q68 -68 106 -157t39 -186q0 -27 -18 -45.5t-47 -18.5h-766q17 -125 113 -212q100 -87 228 -87q59 0 98 11
q31 8 80 35q19 12 41 12q27 0 46 -21.5t19 -48.5q0 -36 -32 -54q-57 -32 -109 -46q-63 -16 -143 -16zM188 527h699q-17 135 -115 221q-102 89 -237 89t-236 -91q-97 -89 -111 -219zM562 1097q-89 0 -152 63q-62 62 -62 151q0 20 13.5 34t32.5 14q20 0 34 -14t14 -34v-4
q2 -49 36 -82q35 -35 84 -35t84 35q35 34 37 82v4q0 20 13 34t33 14t33.5 -14t13.5 -34v-4q-2 -86 -65 -148q-64 -62 -149 -62z" />
    <glyph glyph-name="Edotaccent" unicode="&#x116;" horiz-adv-x="985" 
d="M872 0h-677q-27 2 -44.5 21.5t-17.5 46.5v1184q0 29 20 48t48 19h671q28 0 47 -19t19 -48q0 -28 -19 -47.5t-47 -19.5h-605v-450h436q29 0 48 -18.5t19 -46.5t-19 -46.5t-48 -18.5h-436v-472h605q28 0 47 -19.5t19 -46.5q0 -30 -19 -48.5t-47 -18.5zM581 1456
q-35 0 -60 25t-25 60q0 36 25 61t60 25q36 0 61 -25t25 -61q0 -35 -25 -60t-61 -25z" />
    <glyph glyph-name="edotaccent" unicode="&#x117;" horiz-adv-x="1066" 
d="M533 -12q-98 0 -187.5 37.5t-157.5 105.5q-69 67 -106.5 157t-37.5 188t37.5 187.5t106.5 158.5q68 68 157.5 105.5t187.5 37.5q97 0 186.5 -37.5t158.5 -105.5q68 -68 106 -157t39 -186q0 -27 -18 -45.5t-47 -18.5h-766q17 -125 113 -212q100 -87 228 -87q59 0 98 11
q31 8 80 35q19 12 41 12q27 0 46 -21.5t19 -48.5q0 -36 -32 -54q-57 -32 -109 -46q-63 -16 -143 -16zM188 527h699q-17 135 -115 221q-102 89 -237 89t-236 -91q-97 -89 -111 -219zM541 1107q-35 0 -60 25t-25 60q0 36 25 61t60 25q36 0 61 -25t25 -61q0 -35 -25 -60
t-61 -25z" />
    <glyph glyph-name="Eogonek" unicode="&#x118;" horiz-adv-x="985" 
d="M1026 -149q18 0 31 -13t13 -30v-1q0 -84 -59 -143t-143 -59q-83 0 -142 59t-59 143q0 91 65 148l45 45h-582q-27 2 -44.5 21.5t-17.5 46.5v1184q0 29 20 48t48 19h671q28 0 47 -19t19 -48q0 -28 -19 -47.5t-47 -19.5h-605v-450h436q29 0 48 -18.5t19 -46.5t-19 -46.5
t-48 -18.5h-436v-472h605q28 0 47 -19.5t19 -46.5q0 -37 -28 -55l-123 -122q-35 -35 -35 -82t33 -80q32 -34 81 -34q48 0 81 33q34 32 34 81q0 18 12.5 30.5t32.5 12.5z" />
    <glyph glyph-name="eogonek" unicode="&#x119;" horiz-adv-x="1066" 
d="M878 822q68 -68 106 -157t39 -186q0 -27 -18 -45.5t-47 -18.5h-766q17 -125 113 -212q100 -87 228 -87q59 0 98 11q31 8 80 35q19 12 41 12q27 0 46 -21.5t19 -48.5q0 -33 -27 -51l-118 -116q-35 -35 -35 -82t33 -80q32 -34 81 -34q48 0 81 33q34 32 34 81
q0 18 12.5 30.5t32.5 12.5q18 0 31 -13t13 -30v-1q0 -84 -59 -143t-143 -59q-83 0 -142 59t-59 143q0 79 54 138q-25 -4 -73 -4q-98 0 -187.5 37.5t-157.5 105.5q-69 67 -106.5 157t-37.5 188t37.5 187.5t106.5 158.5q68 68 157.5 105.5t187.5 37.5q97 0 186.5 -37.5
t158.5 -105.5zM188 527h699q-17 135 -115 221q-102 89 -237 89t-236 -91q-97 -89 -111 -219z" />
    <glyph glyph-name="Ecaron" unicode="&#x11a;" horiz-adv-x="985" 
d="M872 0h-677q-27 2 -44.5 21.5t-17.5 46.5v1184q0 29 20 48t48 19h671q28 0 47 -19t19 -48q0 -28 -19 -47.5t-47 -19.5h-605v-450h436q29 0 48 -18.5t19 -46.5t-19 -46.5t-48 -18.5h-436v-472h605q28 0 47 -19.5t19 -46.5q0 -30 -19 -48.5t-47 -18.5zM587 1425
q-29 6 -38 18l-231 233q-18 18 -18 38q0 23 17 39t39 16t38 -16l195 -197l195 197q17 17 38 17q22 0 39 -17t17 -39q0 -21 -17 -38l-232 -233l-12 -10q-11 -8 -30 -8z" />
    <glyph glyph-name="ecaron" unicode="&#x11b;" horiz-adv-x="1066" 
d="M533 -12q-98 0 -187.5 37.5t-157.5 105.5q-69 67 -106.5 157t-37.5 188t37.5 187.5t106.5 158.5q68 68 157.5 105.5t187.5 37.5q97 0 186.5 -37.5t158.5 -105.5q68 -68 106 -157t39 -186q0 -27 -18 -45.5t-47 -18.5h-766q17 -125 113 -212q100 -87 228 -87q59 0 98 11
q31 8 80 35q19 12 41 12q27 0 46 -21.5t19 -48.5q0 -36 -32 -54q-57 -32 -109 -46q-63 -16 -143 -16zM188 527h699q-17 135 -115 221q-102 89 -237 89t-236 -91q-97 -89 -111 -219zM548 1110q-29 6 -38 18l-231 233q-18 18 -18 38q0 23 17 39t39 16t38 -16l195 -197l195 197
q17 17 38 17q22 0 39 -17t17 -39q0 -21 -17 -38l-232 -233l-12 -10q-11 -8 -30 -8z" />
    <glyph glyph-name="Gcircumflex" unicode="&#x11c;" horiz-adv-x="1157" 
d="M599 1775q19 0 30 -8l12 -10l232 -233q17 -17 17 -38q0 -22 -17 -39t-39 -17q-21 0 -38 17l-195 197l-195 -197q-16 -16 -38 -16t-39 16t-17 39q0 20 18 38l231 233q9 12 38 18zM595 -12q-199 0 -338 147q-64 67 -99 155.5t-35 184.5v362q0 96 33.5 184.5t94.5 155.5
q134 147 333 147q144 0 257 -72q96 -60 163 -172q14 -23 14 -44q0 -26 -20 -45t-49 -19q-31 0 -47 25q-49 90 -121 138q-83 54 -197 54q-147 0 -241 -110q-87 -101 -87 -241v-364q0 -140 93 -241q98 -111 246 -111q112 0 200 59q72 50 125 143v223h-180q-28 0 -47.5 19.5
t-19.5 47.5q0 27 20 46.5t47 19.5l235 -1q30 0 49.5 -18t19.5 -47v-279q0 -39 -13 -63q-65 -129 -177 -206q-112 -78 -259 -78z" />
    <glyph glyph-name="gcircumflex" unicode="&#x11d;" horiz-adv-x="1066" 
d="M534 1445q19 0 30 -8l12 -10l232 -233q17 -17 17 -38q0 -22 -17 -39t-39 -17q-21 0 -38 17l-195 197l-195 -197q-16 -16 -38 -16t-39 16t-17 39q0 20 18 38l231 233q9 12 38 18zM287 -421q-27 0 -49 19.5t-22 46.5q0 59 99 90q69 23 146 23q41 0 81 -3t81 -3
q121 0 188 57t67 162q0 44 -12 79q-8 20 -26 46q-133 -108 -308 -108q-201 0 -344 143q-69 67 -106.5 156.5t-37.5 187.5q0 99 37.5 189.5t106.5 157.5q143 143 344 143q99 0 188.5 -37.5t157.5 -105.5q68 -69 105 -158.5t37 -188.5q0 -153 -88 -278q78 -84 78 -226
q0 -161 -105 -260q-98 -91 -238 -93q-45 0 -96 9q-59 8 -101 8q-32 0 -69 -8q-44 -11 -74 -33q-20 -15 -40 -15zM532 121q151 0 253 105q103 103 103 249q0 148 -103 251q-104 104 -253 104q-147 0 -251 -104t-104 -251q0 -145 104 -249q102 -105 251 -105z" />
    <glyph glyph-name="Gbreve" unicode="&#x11e;" horiz-adv-x="1157" 
d="M595 -12q-199 0 -338 147q-64 67 -99 155.5t-35 184.5v362q0 96 33.5 184.5t94.5 155.5q134 147 333 147q144 0 257 -72q96 -60 163 -172q14 -23 14 -44q0 -26 -20 -45t-49 -19q-31 0 -47 25q-49 90 -121 138q-83 54 -197 54q-147 0 -241 -110q-87 -101 -87 -241v-364
q0 -140 93 -241q98 -111 246 -111q112 0 200 59q72 50 125 143v223h-180q-28 0 -47.5 19.5t-19.5 47.5q0 27 20 46.5t47 19.5l235 -1q30 0 49.5 -18t19.5 -47v-279q0 -39 -13 -63q-65 -129 -177 -206q-112 -78 -259 -78zM596 1432q-89 0 -152 63q-62 62 -62 151
q0 20 13.5 34t32.5 14q20 0 34 -14t14 -34v-4q2 -49 36 -82q35 -35 84 -35t84 35q35 34 37 82v4q0 20 13 34t33 14t33.5 -14t13.5 -34v-4q-2 -86 -65 -148q-64 -62 -149 -62z" />
    <glyph glyph-name="gbreve" unicode="&#x11f;" horiz-adv-x="1066" 
d="M287 -421q-27 0 -49 19.5t-22 46.5q0 59 99 90q69 23 146 23q41 0 81 -3t81 -3q121 0 188 57t67 162q0 44 -12 79q-8 20 -26 46q-133 -108 -308 -108q-201 0 -344 143q-69 67 -106.5 156.5t-37.5 187.5q0 99 37.5 189.5t106.5 157.5q143 143 344 143q99 0 188.5 -37.5
t157.5 -105.5q68 -69 105 -158.5t37 -188.5q0 -153 -88 -278q78 -84 78 -226q0 -161 -105 -260q-98 -91 -238 -93q-45 0 -96 9q-59 8 -101 8q-32 0 -69 -8q-44 -11 -74 -33q-20 -15 -40 -15zM532 121q151 0 253 105q103 103 103 249q0 148 -103 251q-104 104 -253 104
q-147 0 -251 -104t-104 -251q0 -145 104 -249q102 -105 251 -105zM527 1104q-89 0 -152 63q-62 62 -62 151q0 20 13.5 34t32.5 14q20 0 34 -14t14 -34v-4q2 -49 36 -82q35 -35 84 -35t84 35q35 34 37 82v4q0 20 13 34t33 14t33.5 -14t13.5 -34v-4q-2 -86 -65 -148
q-64 -62 -149 -62z" />
    <glyph glyph-name="Gdotaccent" unicode="&#x120;" horiz-adv-x="1157" 
d="M595 -12q-199 0 -338 147q-64 67 -99 155.5t-35 184.5v362q0 96 33.5 184.5t94.5 155.5q134 147 333 147q144 0 257 -72q96 -60 163 -172q14 -23 14 -44q0 -26 -20 -45t-49 -19q-31 0 -47 25q-49 90 -121 138q-83 54 -197 54q-147 0 -241 -110q-87 -101 -87 -241v-364
q0 -140 93 -241q98 -111 246 -111q112 0 200 59q72 50 125 143v223h-180q-28 0 -47.5 19.5t-19.5 47.5q0 27 20 46.5t47 19.5l235 -1q30 0 49.5 -18t19.5 -47v-279q0 -39 -13 -63q-65 -129 -177 -206q-112 -78 -259 -78zM599 1446q-35 0 -60 25t-25 60q0 36 25 61t60 25
q36 0 61 -25t25 -61q0 -35 -25 -60t-61 -25z" />
    <glyph glyph-name="gdotaccent" unicode="&#x121;" horiz-adv-x="1066" 
d="M287 -421q-27 0 -49 19.5t-22 46.5q0 59 99 90q69 23 146 23q41 0 81 -3t81 -3q121 0 188 57t67 162q0 44 -12 79q-8 20 -26 46q-133 -108 -308 -108q-201 0 -344 143q-69 67 -106.5 156.5t-37.5 187.5q0 99 37.5 189.5t106.5 157.5q143 143 344 143q99 0 188.5 -37.5
t157.5 -105.5q68 -69 105 -158.5t37 -188.5q0 -153 -88 -278q78 -84 78 -226q0 -161 -105 -260q-98 -91 -238 -93q-45 0 -96 9q-59 8 -101 8q-32 0 -69 -8q-44 -11 -74 -33q-20 -15 -40 -15zM532 121q151 0 253 105q103 103 103 249q0 148 -103 251q-104 104 -253 104
q-147 0 -251 -104t-104 -251q0 -145 104 -249q102 -105 251 -105zM537 1112q-35 0 -60 25t-25 60q0 36 25 61t60 25q36 0 61 -25t25 -61q0 -35 -25 -60t-61 -25z" />
    <glyph glyph-name="uni0122" unicode="&#x122;" horiz-adv-x="1157" 
d="M595 -12q-199 0 -338 147q-64 67 -99 155.5t-35 184.5v362q0 96 33.5 184.5t94.5 155.5q134 147 333 147q144 0 257 -72q96 -60 163 -172q14 -23 14 -44q0 -26 -20 -45t-49 -19q-31 0 -47 25q-49 90 -121 138q-83 54 -197 54q-147 0 -241 -110q-87 -101 -87 -241v-364
q0 -140 93 -241q98 -111 246 -111q112 0 200 59q72 50 125 143v223h-180q-28 0 -47.5 19.5t-19.5 47.5q0 27 20 46.5t47 19.5l235 -1q30 0 49.5 -18t19.5 -47v-279q0 -39 -13 -63q-65 -129 -177 -206q-112 -78 -259 -78zM596 -553q-28 0 -47.5 19t-19.5 48v303q0 29 20 48
t48 19q27 0 45.5 -19t18.5 -48v-303q0 -29 -18.5 -48t-46.5 -19z" />
    <glyph glyph-name="uni0123" unicode="&#x123;" horiz-adv-x="1066" 
d="M287 -421q-27 0 -49 19.5t-22 46.5q0 59 99 90q69 23 146 23q41 0 81 -3t81 -3q121 0 188 57t67 162q0 44 -12 79q-8 20 -26 46q-133 -108 -308 -108q-201 0 -344 143q-69 67 -106.5 156.5t-37.5 187.5q0 99 37.5 189.5t106.5 157.5q143 143 344 143q99 0 188.5 -37.5
t157.5 -105.5q68 -69 105 -158.5t37 -188.5q0 -153 -88 -278q78 -84 78 -226q0 -161 -105 -260q-98 -91 -238 -93q-45 0 -96 9q-59 8 -101 8q-32 0 -69 -8q-44 -11 -74 -33q-20 -15 -40 -15zM532 121q151 0 253 105q103 103 103 249q0 148 -103 251q-104 104 -253 104
q-147 0 -251 -104t-104 -251q0 -145 104 -249q102 -105 251 -105zM535 1109q-28 0 -47.5 19t-19.5 48v303q0 29 20 48t48 19q27 0 45.5 -19t18.5 -48v-303q0 -29 -18.5 -48t-46.5 -19z" />
    <glyph glyph-name="Hcircumflex" unicode="&#x124;" horiz-adv-x="1162" 
d="M651 1781q19 0 30 -8l12 -10l232 -233q17 -17 17 -38q0 -22 -17 -39t-39 -17q-21 0 -38 17l-195 197l-195 -197q-16 -16 -38 -16t-39 16t-17 39q0 20 18 38l231 233q9 12 38 18zM194 -5q-28 0 -47.5 19t-19.5 46v1191q0 28 19.5 47t47.5 19q27 0 46.5 -19t19.5 -47v-573
h658v573q0 27 20 46.5t47 19.5q28 0 47 -19t19 -47v-1191q0 -27 -19.5 -46t-47.5 -19q-27 0 -46.5 19t-19.5 46v485h-658v-485q0 -27 -19.5 -46t-46.5 -19z" />
    <glyph glyph-name="hcircumflex" unicode="&#x125;" horiz-adv-x="1123" 
d="M208 1658q19 0 30 -8l12 -10l232 -233q17 -17 17 -38q0 -22 -17 -39t-39 -17q-21 0 -38 17l-195 197l-195 -197q-16 -16 -38 -16t-39 16t-17 39q0 20 18 38l231 233q9 12 38 18zM951 -1q-28 0 -47 18.5t-19 47.5v431q0 142 -82 238q-88 98 -221 98q-140 0 -241 -96
q-103 -98 -103 -237v-432q0 -28 -19.5 -47.5t-47.5 -19.5t-47.5 19.5t-19.5 47.5v1180q0 29 20 49t47 20q29 0 48 -20t19 -49v-470q62 87 149 136q91 51 195 51q191 0 314 -136q122 -135 122 -332v-431q0 -29 -19 -47.5t-48 -18.5z" />
    <glyph glyph-name="Hbar" unicode="&#x126;" horiz-adv-x="1162" 
d="M985 1317q28 0 47 -19t19 -47v-1191q0 -27 -19.5 -46t-47.5 -19q-27 0 -46.5 19t-19.5 46v485h-658v-485q0 -27 -19.5 -46t-46.5 -19q-28 0 -47.5 19t-19.5 46v1191q0 28 19.5 47t47.5 19q27 0 46.5 -19t19.5 -47v-194h658v194q0 27 20 46.5t47 19.5zM260 678h658v259
h-658v-259z" />
    <glyph glyph-name="hbar" unicode="&#x127;" horiz-adv-x="1123" 
d="M896 828q122 -135 122 -332v-431q0 -29 -19 -47.5t-48 -18.5q-28 0 -47 18.5t-19 47.5v431q0 142 -82 238q-88 98 -221 98q-140 0 -241 -96q-103 -98 -103 -237v-432q0 -28 -19.5 -47.5t-47.5 -19.5t-47.5 19.5t-19.5 47.5v1013h-60q-21 0 -35 14.5t-14 34.5t14 33.5
t35 13.5h60v71q0 29 20 49t47 20q29 0 48 -20t19 -49v-71h171q21 0 35 -13.5t14 -33.5t-14 -34.5t-35 -14.5h-171v-303q62 87 149 136q91 51 195 51q191 0 314 -136z" />
    <glyph glyph-name="Itilde" unicode="&#x128;" 
d="M199 -5q-27 0 -46.5 19t-19.5 46v1191q0 29 19 47.5t47 18.5t48 -18.5t20 -47.5v-1191q0 -27 -20 -46t-48 -19zM350 1423q-73 0 -166 72q-29 22 -54 38q-35 19 -66 19q-75 0 -126 -85q-5 -18 -19.5 -29t-30.5 -11q-23 0 -39 16t-16 38q0 20 13 36l1 1q25 52 71 90
q65 54 142 54q42 0 76.5 -15.5t80.5 -50.5q35 -28 60 -41q41 -23 69 -23q38 0 66 21t54 65q5 17 20 28t31 11q22 0 38 -15.5t16 -36.5t-15 -39q-24 -52 -67 -89q-63 -54 -139 -54z" />
    <glyph glyph-name="itilde" unicode="&#x129;" horiz-adv-x="409" 
d="M355 1101q-73 0 -166 72q-29 22 -54 38q-35 19 -66 19q-75 0 -126 -85q-5 -18 -19.5 -29t-30.5 -11q-23 0 -39 16t-16 38q0 20 13 36l1 1q25 52 71 90q65 54 142 54q42 0 76.5 -15.5t80.5 -50.5q35 -28 60 -41q41 -23 69 -23q38 0 66 21t54 65q5 17 20 28t31 11
q22 0 38 -15.5t16 -36.5t-15 -39q-24 -52 -67 -89q-63 -54 -139 -54zM206 0q-28 0 -48 19.5t-20 48.5v828q0 29 20 49t49 20q28 0 47 -20t19 -49v-828q0 -29 -20 -48.5t-47 -19.5z" />
    <glyph glyph-name="Imacron" unicode="&#x12a;" 
d="M199 -5q-27 0 -46.5 19t-19.5 46v1191q0 29 19 47.5t47 18.5t48 -18.5t20 -47.5v-1191q0 -27 -20 -46t-48 -19zM415 1454h-427q-25 0 -41 17t-16 43q0 24 16.5 40t40.5 16h427q26 0 42.5 -16t16.5 -40q0 -25 -16.5 -42.5t-42.5 -17.5z" />
    <glyph glyph-name="imacron" unicode="&#x12b;" horiz-adv-x="409" 
d="M423 1097h-427q-25 0 -41 17t-16 43q0 24 16.5 40t40.5 16h427q26 0 42.5 -16t16.5 -40q0 -25 -16.5 -42.5t-42.5 -17.5zM206 0q-28 0 -48 19.5t-20 48.5v828q0 29 20 49t49 20q28 0 47 -20t19 -49v-828q0 -29 -20 -48.5t-47 -19.5z" />
    <glyph glyph-name="Ibreve" unicode="&#x12c;" 
d="M199 -5q-27 0 -46.5 19t-19.5 46v1191q0 29 19 47.5t47 18.5t48 -18.5t20 -47.5v-1191q0 -27 -20 -46t-48 -19zM205 1426q-89 0 -152 63q-62 62 -62 151q0 20 13.5 34t32.5 14q20 0 34 -14t14 -34v-4q2 -49 36 -82q35 -35 84 -35t84 35q35 34 37 82v4q0 20 13 34t33 14
t33.5 -14t13.5 -34v-4q-2 -86 -65 -148q-64 -62 -149 -62z" />
    <glyph glyph-name="ibreve" unicode="&#x12d;" horiz-adv-x="409" 
d="M217 1101q-89 0 -152 63q-62 62 -62 151q0 20 13.5 34t32.5 14q20 0 34 -14t14 -34v-4q2 -49 36 -82q35 -35 84 -35t84 35q35 34 37 82v4q0 20 13 34t33 14t33.5 -14t13.5 -34v-4q-2 -86 -65 -148q-64 -62 -149 -62zM206 0q-28 0 -48 19.5t-20 48.5v828q0 29 20 49t49 20
q28 0 47 -20t19 -49v-828q0 -29 -20 -48.5t-47 -19.5z" />
    <glyph glyph-name="Iogonek" unicode="&#x12e;" 
d="M361 -146q18 0 31 -13t13 -30v-1q0 -84 -59 -143t-143 -59q-83 0 -142 59t-59 143q0 91 65 148l73 73q-7 13 -7 29v1191q0 29 19 47.5t47 18.5t48 -18.5t20 -47.5v-1191q0 -35 -30 -54l-115 -113q-35 -35 -35 -82t33 -80q32 -34 81 -34q48 0 81 33q34 32 34 81
q0 18 12.5 30.5t32.5 12.5z" />
    <glyph glyph-name="iogonek" unicode="&#x12f;" horiz-adv-x="409" 
d="M366 -142q18 0 31 -13t13 -30v-1q0 -84 -59 -143t-143 -59q-83 0 -142 59t-59 143q0 91 65 148l74 73q-8 18 -8 33v828q0 29 20 49t49 20q28 0 47 -20t19 -49v-828q0 -38 -30 -57l-116 -114q-35 -35 -35 -82t33 -80q32 -34 81 -34q48 0 81 33q34 32 34 81q0 18 12.5 30.5
t32.5 12.5z" />
    <glyph glyph-name="Idotaccent" unicode="&#x130;" 
d="M199 -5q-27 0 -46.5 19t-19.5 46v1191q0 29 19 47.5t47 18.5t48 -18.5t20 -47.5v-1191q0 -27 -20 -46t-48 -19zM201 1427q-35 0 -60 25t-25 60q0 36 25 61t60 25q36 0 61 -25t25 -61q0 -35 -25 -60t-61 -25z" />
    <glyph glyph-name="dotlessi" unicode="&#x131;" horiz-adv-x="409" 
d="M206 0q-28 0 -48 19.5t-20 48.5v828q0 29 20 49t49 20q28 0 47 -20t19 -49v-828q0 -29 -20 -48.5t-47 -19.5z" />
    <glyph glyph-name="IJ" unicode="&#x132;" horiz-adv-x="800" 
d="M199 -5q-27 0 -46.5 19t-19.5 46v1191q0 29 19 47.5t47 18.5t48 -18.5t20 -47.5v-1191q0 -27 -20 -46t-48 -19zM243 -281q-32 0 -51 18.5t-19 46.5t18.5 47t50.5 21q124 2 208 89q83 85 83 207v1100q0 29 19 49t47 20q29 0 48.5 -20t19.5 -49v-1103q0 -179 -123 -302
q-124 -124 -301 -124z" />
    <glyph glyph-name="ij" unicode="&#x133;" horiz-adv-x="833" 
d="M179 1101q-34 0 -57 23.5t-23 56.5q0 34 23 57t57 23t57.5 -23t23.5 -57q0 -33 -23.5 -56.5t-57.5 -23.5zM179 -5q-28 0 -48 19.5t-20 47.5v835q0 29 20 48.5t48 19.5q29 0 47.5 -19.5t18.5 -48.5v-835q0 -28 -19.5 -47.5t-46.5 -19.5zM629 1099q-32 0 -54.5 23.5
t-22.5 56.5q0 35 23 57.5t57 22.5t56.5 -22.5t22.5 -57.5q0 -32 -24 -56t-58 -24zM381 -291q-28 0 -48 19t-20 47q0 29 20 49t48 20h10q71 0 122 51t51 121v879q0 29 19.5 49.5t46.5 20.5q29 0 48.5 -20.5t19.5 -49.5v-879q0 -126 -91 -217q-90 -90 -216 -90l-1 1
q-1 -1 -9 -1z" />
    <glyph glyph-name="Jcircumflex" unicode="&#x134;" 
d="M204 1766q19 0 30 -8l12 -10l232 -233q17 -17 17 -38q0 -22 -17 -39t-39 -17q-21 0 -38 17l-195 197l-195 -197q-16 -16 -38 -16t-39 16t-17 39q0 20 18 38l231 233q9 12 38 18zM-157 -281q-32 0 -51 18.5t-19 46.5t18.5 47t50.5 21q124 2 208 89q83 85 83 207v1100
q0 29 19 49t47 20q29 0 48.5 -20t19.5 -49v-1103q0 -179 -123 -302q-124 -124 -301 -124z" />
    <glyph glyph-name="jcircumflex" unicode="&#x135;" horiz-adv-x="402" 
d="M212 1432q19 0 30 -8l12 -10l232 -233q17 -17 17 -38q0 -22 -17 -39t-39 -17q-21 0 -38 17l-195 197l-195 -197q-16 -16 -38 -16t-39 16t-17 39q0 20 18 38l231 233q9 12 38 18zM-55 -298q-29 0 -48.5 19.5t-19.5 47.5q0 29 19.5 48.5t48.5 19.5h11q72 0 123 51
q52 51 54 122v885q0 30 20 50t47 20q29 0 49 -20t20 -50v-879q0 -130 -92 -222t-221 -92l-2 1q-1 -1 -9 -1z" />
    <glyph glyph-name="uni0136" unicode="&#x136;" horiz-adv-x="1038" 
d="M199 0q-27 0 -46.5 19t-19.5 47v1185q0 28 19.5 47t46.5 19q28 0 48 -19t20 -47v-470l579 517q22 19 45 19q25 0 48 -20q21 -23 21 -49q-1 -31 -22 -48l-578 -512l627 -574q20 -17 20 -48q0 -26 -20 -46t-47 -20q-24 -1 -47 20l-626 572v-526q0 -28 -20 -47t-48 -19z
M546 -471q-28 0 -47.5 19t-19.5 48v303q0 29 20 48t48 19q27 0 45.5 -19t18.5 -48v-303q0 -29 -18.5 -48t-46.5 -19z" />
    <glyph glyph-name="uni0137" unicode="&#x137;" horiz-adv-x="826" 
d="M172 0q-28 0 -48 19t-20 47v1178q0 29 20 48t48 19t47 -19t19 -48v-661l375 350q19 17 45 17q27 0 47 -20t20 -47q2 -26 -21 -47l-355 -331l412 -392q18 -18 18 -43q0 -27 -19.5 -47.5t-46.5 -20.5q-29 0 -49 20l-426 405v-361q0 -28 -19.5 -47t-46.5 -19zM473 -449
q-28 0 -47.5 19t-19.5 48v303q0 29 20 48t48 19q27 0 45.5 -19t18.5 -48v-303q0 -29 -18.5 -48t-46.5 -19z" />
    <glyph glyph-name="kgreenlandic" unicode="&#x138;" horiz-adv-x="826" 
d="M172 0q-28 0 -48 19t-20 47v987q0 27 20.5 46.5t47.5 19.5q28 0 47 -19t19 -47v-470l375 350q19 17 45 17q27 0 47 -20t20 -47q2 -26 -21 -47l-355 -331l412 -392q18 -18 18 -43q0 -27 -19.5 -47.5t-46.5 -20.5q-29 0 -49 20l-426 405v-361q0 -28 -19.5 -47t-46.5 -19z
" />
    <glyph glyph-name="Lacute" unicode="&#x139;" horiz-adv-x="1010" 
d="M872 0h-679q-25 0 -42.5 20t-17.5 46v1183q0 29 19.5 48.5t46.5 19.5q28 0 48 -19.5t20 -48.5v-1116l605 -1q28 0 47 -19t19 -46q0 -30 -19 -48.5t-47 -18.5zM223 1463q-27 0 -46.5 19t-19.5 48q0 22 13 39.5t36 24.5l212 102q9 3 19 3q27 0 47 -20t20 -49q0 -22 -13 -39
t-35 -24l-213 -101q-10 -3 -20 -3z" />
    <glyph glyph-name="lacute" unicode="&#x13a;" horiz-adv-x="561" 
d="M510 64q0 -29 -18 -47t-47 -18h-1h-1q-140 0 -233 93t-93 246v905q0 29 18.5 48.5t46.5 19.5t48 -19.5t20 -48.5v-903q0 -98 49.5 -153t139.5 -57h5q29 0 47.5 -19t18.5 -47zM199 1453q-27 0 -46.5 19t-19.5 48q0 22 13 39.5t36 24.5l212 102q9 3 19 3q27 0 47 -20
t20 -49q0 -22 -13 -39t-35 -24l-213 -101q-11 -3 -20 -3z" />
    <glyph glyph-name="uni013B" unicode="&#x13b;" horiz-adv-x="1010" 
d="M872 0h-679q-25 0 -42.5 20t-17.5 46v1183q0 29 19.5 48.5t46.5 19.5q28 0 48 -19.5t20 -48.5v-1116l605 -1q28 0 47 -19t19 -46q0 -30 -19 -48.5t-47 -18.5zM555 -542q-28 0 -47.5 19t-19.5 48v303q0 29 20 48t48 19q27 0 45.5 -19t18.5 -48v-303q0 -29 -18.5 -48
t-46.5 -19z" />
    <glyph glyph-name="uni013C" unicode="&#x13c;" horiz-adv-x="561" 
d="M510 64q0 -29 -18 -47t-47 -18h-1h-1q-140 0 -233 93t-93 246v905q0 29 18.5 48.5t46.5 19.5t48 -19.5t20 -48.5v-903q0 -98 49.5 -153t139.5 -57h5q29 0 47.5 -19t18.5 -47zM202 -494q-28 0 -47.5 19t-19.5 48v303q0 29 20 48t48 19q27 0 45.5 -19t18.5 -48v-303
q0 -29 -18.5 -48t-46.5 -19z" />
    <glyph glyph-name="Lcaron" unicode="&#x13d;" horiz-adv-x="1010" 
d="M872 0h-679q-25 0 -42.5 20t-17.5 46v1183q0 29 19.5 48.5t46.5 19.5q28 0 48 -19.5t20 -48.5v-1116l605 -1q28 0 47 -19t19 -46q0 -30 -19 -48.5t-47 -18.5zM200 1422q-29 6 -38 18l-231 233q-18 18 -18 38q0 23 17 39t39 16t38 -16l195 -197l195 197q17 17 38 17
q22 0 39 -17t17 -39q0 -21 -17 -38l-232 -233l-12 -10q-11 -8 -30 -8z" />
    <glyph glyph-name="lcaron" unicode="&#x13e;" horiz-adv-x="561" 
d="M510 64q0 -29 -18 -47t-47 -18h-1h-1q-140 0 -233 93t-93 246v905q0 29 18.5 48.5t46.5 19.5t48 -19.5t20 -48.5v-903q0 -98 49.5 -153t139.5 -57h5q29 0 47.5 -19t18.5 -47zM483 871q-28 0 -47.5 19t-19.5 48v303q0 29 20 48t48 19q27 0 45.5 -19t18.5 -48v-303
q0 -29 -18.5 -48t-46.5 -19z" />
    <glyph glyph-name="Ldot" unicode="&#x13f;" horiz-adv-x="1010" 
d="M872 0h-679q-25 0 -42.5 20t-17.5 46v1183q0 29 19.5 48.5t46.5 19.5q28 0 48 -19.5t20 -48.5v-1116l605 -1q28 0 47 -19t19 -46q0 -30 -19 -48.5t-47 -18.5zM650 540q-35 0 -60 25t-25 60q0 36 25 61t60 25q36 0 61 -25t25 -61q0 -35 -25 -60t-61 -25z" />
    <glyph glyph-name="ldot" unicode="&#x140;" horiz-adv-x="561" 
d="M510 64q0 -29 -18 -47t-47 -18h-1h-1q-140 0 -233 93t-93 246v905q0 29 18.5 48.5t46.5 19.5t48 -19.5t20 -48.5v-903q0 -98 49.5 -153t139.5 -57h5q29 0 47.5 -19t18.5 -47zM487 549q-35 0 -60 25t-25 60q0 36 25 61t60 25q36 0 61 -25t25 -61q0 -35 -25 -60t-61 -25z
" />
    <glyph glyph-name="Lslash" unicode="&#x141;" horiz-adv-x="1010" 
d="M267 133l605 -1q28 0 47 -19t19 -46q0 -30 -19 -48.5t-47 -18.5h-679q-25 0 -42.5 20t-17.5 46v489l-125 -46q-7 -4 -18 -4q-19 0 -32 13t-13 32q0 32 30 43l158 59v597q0 29 19.5 48.5t46.5 19.5q28 0 48 -19.5t20 -48.5v-547l133 49q7 4 18 4q19 0 32 -12.5t13 -32.5
q0 -33 -30 -44l-166 -61v-472z" />
    <glyph glyph-name="lslash" unicode="&#x142;" horiz-adv-x="561" 
d="M510 64q0 -29 -18 -47t-47 -18h-1h-1q-140 0 -233 93t-93 246v223l-87 -35q-9 -3 -18 -3q-19 0 -33.5 13.5t-14.5 34.5q0 33 31 45l122 49v578q0 29 18.5 48.5t46.5 19.5t48 -19.5t20 -48.5v-524l108 44q8 4 18 4q20 0 33.5 -14.5t13.5 -35.5q0 -31 -31 -44l-142 -58
v-275q0 -98 49.5 -153t139.5 -57h5q29 0 47.5 -19t18.5 -47z" />
    <glyph glyph-name="Nacute" unicode="&#x143;" horiz-adv-x="1162" 
d="M196 -5q-29 0 -49 19.5t-20 48.5v776q0 200 121 335q132 146 340 146q220 0 355 -149q126 -142 126 -350v-758q0 -29 -19.5 -48.5t-48.5 -19.5t-49 19.5t-20 48.5v754q0 160 -95 263q-99 105 -246 105q-148 0 -236 -99q-91 -99 -91 -257v-766q0 -29 -20 -48.5t-48 -19.5z
M631 1465q-27 0 -46.5 19t-19.5 48q0 22 13 39.5t36 24.5l212 102q9 3 19 3q27 0 47 -20t20 -49q0 -22 -13 -39t-35 -24l-213 -101q-11 -3 -20 -3z" />
    <glyph glyph-name="nacute" unicode="&#x144;" horiz-adv-x="1079" 
d="M143 0q-28 0 -48.5 19.5t-20.5 46.5v430q0 196 130 332q131 137 324 137q190 0 323 -136q128 -137 128 -332v-431q0 -29 -18.5 -47.5t-47.5 -18.5q-28 0 -47.5 18.5t-19.5 47.5v426q0 142 -89 239q-93 99 -229 99q-135 0 -229 -97q-91 -96 -91 -238v-429q0 -29 -18 -47.5
t-47 -18.5zM615 1134q-27 0 -46.5 19t-19.5 48q0 22 13 39.5t36 24.5l212 102q9 3 19 3q27 0 47 -20t20 -49q0 -22 -13 -39t-35 -24l-213 -101q-10 -3 -20 -3z" />
    <glyph glyph-name="uni0145" unicode="&#x145;" horiz-adv-x="1162" 
d="M196 -5q-29 0 -49 19.5t-20 48.5v776q0 200 121 335q132 146 340 146q220 0 355 -149q126 -142 126 -350v-758q0 -29 -19.5 -48.5t-48.5 -19.5t-49 19.5t-20 48.5v754q0 160 -95 263q-99 105 -246 105q-148 0 -236 -99q-91 -99 -91 -257v-766q0 -29 -20 -48.5t-48 -19.5z
M596 -467q-28 0 -47.5 19t-19.5 48v303q0 29 20 48t48 19q27 0 45.5 -19t18.5 -48v-303q0 -29 -18.5 -48t-46.5 -19z" />
    <glyph glyph-name="uni0146" unicode="&#x146;" horiz-adv-x="1079" 
d="M143 0q-28 0 -48.5 19.5t-20.5 46.5v430q0 196 130 332q131 137 324 137q190 0 323 -136q128 -137 128 -332v-431q0 -29 -18.5 -47.5t-47.5 -18.5q-28 0 -47.5 18.5t-19.5 47.5v426q0 142 -89 239q-93 99 -229 99q-135 0 -229 -97q-91 -96 -91 -238v-429q0 -29 -18 -47.5
t-47 -18.5zM549 -445q-28 0 -47.5 19t-19.5 48v303q0 29 20 48t48 19q27 0 45.5 -19t18.5 -48v-303q0 -29 -18.5 -48t-46.5 -19z" />
    <glyph glyph-name="Ncaron" unicode="&#x147;" horiz-adv-x="1162" 
d="M196 -5q-29 0 -49 19.5t-20 48.5v776q0 200 121 335q132 146 340 146q220 0 355 -149q126 -142 126 -350v-758q0 -29 -19.5 -48.5t-48.5 -19.5t-49 19.5t-20 48.5v754q0 160 -95 263q-99 105 -246 105q-148 0 -236 -99q-91 -99 -91 -257v-766q0 -29 -20 -48.5t-48 -19.5z
M597 1425q-29 6 -38 18l-231 233q-18 18 -18 38q0 23 17 39t39 16t38 -16l195 -197l195 197q17 17 38 17q22 0 39 -17t17 -39q0 -21 -17 -38l-232 -233l-12 -10q-11 -8 -30 -8z" />
    <glyph glyph-name="ncaron" unicode="&#x148;" horiz-adv-x="1079" 
d="M143 0q-28 0 -48.5 19.5t-20.5 46.5v430q0 196 130 332q131 137 324 137q190 0 323 -136q128 -137 128 -332v-431q0 -29 -18.5 -47.5t-47.5 -18.5q-28 0 -47.5 18.5t-19.5 47.5v426q0 142 -89 239q-93 99 -229 99q-135 0 -229 -97q-91 -96 -91 -238v-429q0 -29 -18 -47.5
t-47 -18.5zM546 1094q-29 6 -38 18l-231 233q-18 18 -18 38q0 23 17 39t39 16t38 -16l195 -197l195 197q17 17 38 17q22 0 39 -17t17 -39q0 -21 -17 -38l-232 -233l-12 -10q-11 -8 -30 -8z" />
    <glyph glyph-name="napostrophe" unicode="&#x149;" horiz-adv-x="1079" 
d="M143 0q-28 0 -48.5 19.5t-20.5 46.5v430q0 196 130 332q131 137 324 137q190 0 323 -136q128 -137 128 -332v-431q0 -29 -18.5 -47.5t-47.5 -18.5q-28 0 -47.5 18.5t-19.5 47.5v426q0 142 -89 239q-93 99 -229 99q-135 0 -229 -97q-91 -96 -91 -238v-429q0 -29 -18 -47.5
t-47 -18.5zM40 873q-28 0 -47.5 19t-19.5 48v303q0 29 20 48t48 19q27 0 45.5 -19t18.5 -48v-303q0 -29 -18.5 -48t-46.5 -19z" />
    <glyph glyph-name="Eng" unicode="&#x14a;" horiz-adv-x="1162" 
d="M732 -314h-22q-29 0 -48 19t-19 48q0 28 19 47.5t48 19.5h8q94 0 153 53q61 55 61 142v802q0 160 -95 263q-99 105 -246 105q-148 0 -236 -99q-91 -99 -91 -257v-766q0 -29 -20 -48.5t-48 -19.5q-29 0 -49 19.5t-20 48.5v776q0 200 121 335q132 146 340 146
q220 0 355 -149q126 -142 126 -350v-806q0 -138 -99 -232q-100 -97 -238 -97z" />
    <glyph glyph-name="eng" unicode="&#x14b;" horiz-adv-x="1079" 
d="M613 -290h-24q-29 0 -47 19t-18 47q0 27 18.5 46t47.5 19h23q84 0 161 66q79 67 83 161v425q0 144 -87 239q-90 99 -226 99t-230 -97q-92 -98 -92 -238v-431q0 -29 -18 -47.5t-47 -18.5q-28 0 -48 18.5t-20 47.5v432q0 195 131 332t324 137t320 -136q126 -137 126 -332
v-409v-6q-1 -1 -1 -5v-4q0 -151 -119 -260q-115 -104 -257 -104z" />
    <glyph glyph-name="Omacron" unicode="&#x14c;" horiz-adv-x="1204" 
d="M602 -12q-99 0 -187.5 36.5t-156.5 102.5q-140 138 -140 331v395q0 192 140 332q141 139 344 139q202 0 343 -139q140 -140 140 -332v-395q0 -193 -140 -331q-145 -139 -343 -139zM602 122q149 0 251 100q98 95 98 235v397q0 140 -98 235q-102 100 -251 100t-252 -100
q-99 -96 -99 -235v-397q0 -141 99 -235q103 -100 252 -100zM894 1435h-427q-25 0 -41 17t-16 43q0 24 16.5 40t40.5 16h427q26 0 42.5 -16t16.5 -40q0 -25 -16.5 -42.5t-42.5 -17.5z" />
    <glyph glyph-name="omacron" unicode="&#x14d;" horiz-adv-x="1064" 
d="M532 -12q-201 0 -344 143q-69 67 -106.5 156.5t-37.5 187.5q0 99 37.5 189.5t106.5 157.5q143 143 344 143q99 0 188.5 -37.5t157.5 -105.5q68 -69 105 -158.5t37 -188.5q0 -98 -37.5 -187.5t-104.5 -156.5q-68 -68 -157.5 -105.5t-188.5 -37.5zM532 121q151 0 253 105
q102 104 102 249q0 147 -102 251q-104 104 -253 104q-147 0 -251 -104t-104 -251q0 -145 104 -249q102 -105 251 -105zM742 1099h-427q-25 0 -41 17t-16 43q0 24 16.5 40t40.5 16h427q26 0 42.5 -16t16.5 -40q0 -25 -16.5 -42.5t-42.5 -17.5z" />
    <glyph glyph-name="Obreve" unicode="&#x14e;" horiz-adv-x="1204" 
d="M602 -12q-99 0 -187.5 36.5t-156.5 102.5q-140 138 -140 331v395q0 192 140 332q141 139 344 139q202 0 343 -139q140 -140 140 -332v-395q0 -193 -140 -331q-145 -139 -343 -139zM602 122q149 0 251 100q98 95 98 235v397q0 140 -98 235q-102 100 -251 100t-252 -100
q-99 -96 -99 -235v-397q0 -141 99 -235q103 -100 252 -100zM689 1429q-89 0 -152 63q-62 62 -62 151q0 20 13.5 34t32.5 14q20 0 34 -14t14 -34v-4q2 -49 36 -82q35 -35 84 -35t84 35q35 34 37 82v4q0 20 13 34t33 14t33.5 -14t13.5 -34v-4q-2 -86 -65 -148
q-64 -62 -149 -62z" />
    <glyph glyph-name="obreve" unicode="&#x14f;" horiz-adv-x="1064" 
d="M532 -12q-201 0 -344 143q-69 67 -106.5 156.5t-37.5 187.5q0 99 37.5 189.5t106.5 157.5q143 143 344 143q99 0 188.5 -37.5t157.5 -105.5q68 -69 105 -158.5t37 -188.5q0 -98 -37.5 -187.5t-104.5 -156.5q-68 -68 -157.5 -105.5t-188.5 -37.5zM532 121q151 0 253 105
q102 104 102 249q0 147 -102 251q-104 104 -253 104q-147 0 -251 -104t-104 -251q0 -145 104 -249q102 -105 251 -105zM534 1097q-89 0 -152 63q-62 62 -62 151q0 20 13.5 34t32.5 14q20 0 34 -14t14 -34v-4q2 -49 36 -82q35 -35 84 -35t84 35q35 34 37 82v4q0 20 13 34
t33 14t33.5 -14t13.5 -34v-4q-2 -86 -65 -148q-64 -62 -149 -62z" />
    <glyph glyph-name="Ohungarumlaut" unicode="&#x150;" horiz-adv-x="1204" 
d="M602 -12q-99 0 -187.5 36.5t-156.5 102.5q-140 138 -140 331v395q0 192 140 332q141 139 344 139q202 0 343 -139q140 -140 140 -332v-395q0 -193 -140 -331q-145 -139 -343 -139zM602 122q149 0 251 100q98 95 98 235v397q0 140 -98 235q-102 100 -251 100t-252 -100
q-99 -96 -99 -235v-397q0 -141 99 -235q103 -100 252 -100zM483 1416q-24 0 -41 17.5t-17 40.5t18 41l158 161q18 18 43 18q23 0 41 -17.5t18 -40.5t-18 -41l-160 -161q-18 -18 -42 -18zM879 1416q-23 0 -40.5 17t-17.5 40q0 25 17 42l159 161q18 18 42 18t41.5 -18.5
t17.5 -40.5q0 -23 -17 -40l-160 -161q-18 -18 -42 -18z" />
    <glyph glyph-name="ohungarumlaut" unicode="&#x151;" horiz-adv-x="1064" 
d="M532 -12q-201 0 -344 143q-69 67 -106.5 156.5t-37.5 187.5q0 99 37.5 189.5t106.5 157.5q143 143 344 143q99 0 188.5 -37.5t157.5 -105.5q68 -69 105 -158.5t37 -188.5q0 -98 -37.5 -187.5t-104.5 -156.5q-68 -68 -157.5 -105.5t-188.5 -37.5zM532 121q151 0 253 105
q102 104 102 249q0 147 -102 251q-104 104 -253 104q-147 0 -251 -104t-104 -251q0 -145 104 -249q102 -105 251 -105zM357 1090q-24 0 -41 17.5t-17 40.5t18 41l158 161q18 18 43 18q23 0 41 -17.5t18 -40.5t-18 -41l-160 -161q-18 -18 -42 -18zM753 1090q-23 0 -40.5 17
t-17.5 40q0 25 17 42l159 161q18 18 42 18t41.5 -18.5t17.5 -40.5q0 -23 -17 -40l-160 -161q-18 -18 -42 -18z" />
    <glyph glyph-name="OE" unicode="&#x152;" horiz-adv-x="1764" 
d="M1054 133h605q28 0 47 -19.5t19 -46.5q0 -30 -19 -48.5t-47 -18.5h-677q-27 2 -44.5 21.5t-17.5 46.5v66l-7 -7q-145 -139 -343 -139q-99 0 -187.5 36.5t-156.5 102.5q-140 138 -140 331v395q0 192 140 332q141 139 344 139q202 0 343 -139l7 -7v74q0 29 20 48t48 19h671
q28 0 47 -19t19 -48q0 -28 -19 -47.5t-47 -19.5h-605v-450h436q29 0 48 -18.5t19 -46.5t-19 -46.5t-48 -18.5h-436v-472zM919 457v397q0 140 -98 235q-102 100 -251 100t-252 -100q-99 -96 -99 -235v-397q0 -141 99 -235q103 -100 252 -100t251 100q98 95 98 235z" />
    <glyph glyph-name="oe" unicode="&#x153;" horiz-adv-x="1909" 
d="M1722 822q68 -68 106 -157t39 -186q0 -27 -18 -45.5t-47 -18.5h-766q17 -125 113 -212q100 -87 228 -87q59 0 98 11q31 8 80 35q19 12 41 12q27 0 46 -21.5t19 -48.5q0 -36 -32 -54q-57 -32 -109 -46q-63 -16 -143 -16q-98 0 -187.5 37.5t-157.5 105.5q-44 44 -77 99
q-34 -56 -77 -99q-68 -68 -157.5 -105.5t-188.5 -37.5q-201 0 -344 143q-69 67 -106.5 156.5t-37.5 187.5q0 99 37.5 189.5t106.5 157.5q143 143 344 143q99 0 188.5 -37.5t157.5 -105.5q40 -40 77 -100q30 53 77 100q68 68 157.5 105.5t187.5 37.5q97 0 186.5 -37.5
t158.5 -105.5zM1032 527h699q-17 135 -115 221q-102 89 -237 89t-236 -91q-97 -89 -111 -219zM785 226q102 104 102 249q0 147 -102 251q-104 104 -253 104q-147 0 -251 -104t-104 -251q0 -145 104 -249q102 -105 251 -105q151 0 253 105z" />
    <glyph glyph-name="Racute" unicode="&#x154;" horiz-adv-x="1084" 
d="M195 -1q-28 0 -47.5 19t-19.5 47v1185q0 29 19.5 48t47.5 19h355q200 0 336 -130q66 -61 102 -148t36 -185q0 -179 -119 -303q-118 -123 -297 -143l302 -293q20 -17 20 -49q0 -27 -20.5 -46.5t-47.5 -19.5t-47 20l-396 385h-157v-340q0 -28 -19.5 -47t-47.5 -19zM262 540
h288q151 0 246 92q95 89 95 222q0 66 -25.5 127.5t-70.5 105.5q-97 95 -242 95h-291v-642zM486 1464q-27 0 -46.5 19t-19.5 48q0 22 13 39.5t36 24.5l212 102q9 3 19 3q27 0 47 -20t20 -49q0 -22 -13 -39t-35 -24l-213 -101q-11 -3 -20 -3z" />
    <glyph glyph-name="racute" unicode="&#x155;" horiz-adv-x="694" 
d="M158 0q-28 0 -48.5 19t-20.5 48v388q0 101 39 194.5t110 165.5q150 150 357 150h8q32 0 50.5 -18.5t18.5 -48.5q0 -29 -19.5 -47.5t-49.5 -18.5h-8q-152 0 -262 -110q-52 -52 -81.5 -122t-29.5 -145v-388q0 -29 -18.5 -48t-45.5 -19zM438 1139q-27 0 -46.5 19t-19.5 48
q0 22 13 39.5t36 24.5l212 102q9 3 19 3q27 0 47 -20t20 -49q0 -22 -13 -39t-35 -24l-213 -101q-10 -3 -20 -3z" />
    <glyph glyph-name="uni0156" unicode="&#x156;" horiz-adv-x="1084" 
d="M195 -1q-28 0 -47.5 19t-19.5 47v1185q0 29 19.5 48t47.5 19h355q200 0 336 -130q66 -61 102 -148t36 -185q0 -179 -119 -303q-118 -123 -297 -143l302 -293q20 -17 20 -49q0 -27 -20.5 -46.5t-47.5 -19.5t-47 20l-396 385h-157v-340q0 -28 -19.5 -47t-47.5 -19zM262 540
h288q151 0 246 92q95 89 95 222q0 66 -25.5 127.5t-70.5 105.5q-97 95 -242 95h-291v-642zM502 -440q-28 0 -47.5 19t-19.5 48v303q0 29 20 48t48 19q27 0 45.5 -19t18.5 -48v-303q0 -29 -18.5 -48t-46.5 -19z" />
    <glyph glyph-name="uni0157" unicode="&#x157;" horiz-adv-x="694" 
d="M158 0q-28 0 -48.5 19t-20.5 48v388q0 101 39 194.5t110 165.5q150 150 357 150h8q32 0 50.5 -18.5t18.5 -48.5q0 -29 -19.5 -47.5t-49.5 -18.5h-8q-152 0 -262 -110q-52 -52 -81.5 -122t-29.5 -145v-388q0 -29 -18.5 -48t-45.5 -19zM152 -501q-28 0 -47.5 19t-19.5 48
v303q0 29 20 48t48 19q27 0 45.5 -19t18.5 -48v-303q0 -29 -18.5 -48t-46.5 -19z" />
    <glyph glyph-name="Rcaron" unicode="&#x158;" horiz-adv-x="1084" 
d="M195 -1q-28 0 -47.5 19t-19.5 47v1185q0 29 19.5 48t47.5 19h355q200 0 336 -130q66 -61 102 -148t36 -185q0 -179 -119 -303q-118 -123 -297 -143l302 -293q20 -17 20 -49q0 -27 -20.5 -46.5t-47.5 -19.5t-47 20l-396 385h-157v-340q0 -28 -19.5 -47t-47.5 -19zM262 540
h288q151 0 246 92q95 89 95 222q0 66 -25.5 127.5t-70.5 105.5q-97 95 -242 95h-291v-642zM515 1436q-29 6 -38 18l-231 233q-18 18 -18 38q0 23 17 39t39 16t38 -16l195 -197l195 197q17 17 38 17q22 0 39 -17t17 -39q0 -21 -17 -38l-232 -233l-12 -10q-11 -8 -30 -8z" />
    <glyph glyph-name="rcaron" unicode="&#x159;" horiz-adv-x="694" 
d="M158 0q-28 0 -48.5 19t-20.5 48v388q0 101 39 194.5t110 165.5q150 150 357 150h8q32 0 50.5 -18.5t18.5 -48.5q0 -29 -19.5 -47.5t-49.5 -18.5h-8q-152 0 -262 -110q-52 -52 -81.5 -122t-29.5 -145v-388q0 -29 -18.5 -48t-45.5 -19zM462 1090q-29 6 -38 18l-231 233
q-18 18 -18 38q0 23 17 39t39 16t38 -16l195 -197l195 197q17 17 38 17q22 0 39 -17t17 -39q0 -21 -17 -38l-232 -233l-12 -10q-11 -8 -30 -8z" />
    <glyph glyph-name="Sacute" unicode="&#x15a;" horiz-adv-x="1038" 
d="M597 0h-371q-36 0 -57 19t-21 52q0 61 78 61h388q88 0 157 69t69 174q0 102 -73 169q-68 62 -160 62h-166q-150 0 -257 97q-107 96 -107 247q0 74 28.5 143.5t78.5 118.5q110 105 257 105h368q79 0 79 -65q0 -33 -21 -51t-58 -18h-390q-83 0 -146 -63t-63 -160
q0 -93 63 -158q64 -64 146 -64h183q155 -2 263 -102q109 -104 109 -254q0 -155 -111 -269q-110 -113 -266 -113zM542 1464q-27 0 -46.5 19t-19.5 48q0 22 13 39.5t36 24.5l212 102q9 3 19 3q27 0 47 -20t20 -49q0 -22 -13 -39t-35 -24l-213 -101q-11 -3 -20 -3z" />
    <glyph glyph-name="sacute" unicode="&#x15b;" horiz-adv-x="880" 
d="M553 0h-435q-27 0 -44.5 19t-17.5 49q0 29 17.5 47t44.5 18h423q62 0 105 41q49 46 49 110q0 63 -47 104q-42 36 -108 38h-197q-113 0 -192 82q-77 80 -77 192q0 108 79 187q78 78 190 78h365q30 0 48.5 -17.5t18.5 -47.5q0 -31 -19 -50t-48 -19h-366q-55 0 -96 -41
q-39 -41 -39 -94q0 -57 40 -95q39 -41 95 -41h209q118 0 198 -82q79 -81 79 -197q0 -114 -78 -197q-81 -84 -197 -84zM496 1134q-27 0 -46.5 19t-19.5 48q0 22 13 39.5t36 24.5l212 102q9 3 19 3q27 0 47 -20t20 -49q0 -22 -13 -39t-35 -24l-213 -101q-10 -3 -20 -3z" />
    <glyph glyph-name="Scircumflex" unicode="&#x15c;" horiz-adv-x="1038" 
d="M530 1776q19 0 30 -8l12 -10l232 -233q17 -17 17 -38q0 -22 -17 -39t-39 -17q-21 0 -38 17l-195 197l-195 -197q-16 -16 -38 -16t-39 16t-17 39q0 20 18 38l231 233q9 12 38 18zM597 0h-371q-36 0 -57 19t-21 52q0 61 78 61h388q88 0 157 69t69 174q0 102 -73 169
q-68 62 -160 62h-166q-150 0 -257 97q-107 96 -107 247q0 74 28.5 143.5t78.5 118.5q110 105 257 105h368q79 0 79 -65q0 -33 -21 -51t-58 -18h-390q-83 0 -146 -63t-63 -160q0 -93 63 -158q64 -64 146 -64h183q155 -2 263 -102q109 -104 109 -254q0 -155 -111 -269
q-110 -113 -266 -113z" />
    <glyph glyph-name="scircumflex" unicode="&#x15d;" horiz-adv-x="880" 
d="M480 1453q19 0 30 -8l12 -10l232 -233q17 -17 17 -38q0 -22 -17 -39t-39 -17q-21 0 -38 17l-195 197l-195 -197q-16 -16 -38 -16t-39 16t-17 39q0 20 18 38l231 233q9 12 38 18zM553 0h-435q-27 0 -44.5 19t-17.5 49q0 29 17.5 47t44.5 18h423q62 0 105 41q49 46 49 110
q0 63 -47 104q-42 36 -108 38h-197q-113 0 -192 82q-77 80 -77 192q0 108 79 187q78 78 190 78h365q30 0 48.5 -17.5t18.5 -47.5q0 -31 -19 -50t-48 -19h-366q-55 0 -96 -41q-39 -41 -39 -94q0 -57 40 -95q39 -41 95 -41h209q118 0 198 -82q79 -81 79 -197q0 -114 -78 -197
q-81 -84 -197 -84z" />
    <glyph glyph-name="Scedilla" unicode="&#x15e;" horiz-adv-x="1038" 
d="M865 636q109 -104 109 -254q0 -155 -111 -269q-110 -113 -266 -113h-75v-95q74 -8 124 -64q50 -58 50 -135q0 -82 -59 -141t-142 -59q-82 0 -141 59q-60 60 -60 141q0 20 13 33t33 13q18 0 30 -12.5t12 -32.5q0 -48 34 -80q31 -34 80 -34q48 0 82 34q33 33 33 80
q0 51 -35.5 82.5t-92.5 31.5q-49 0 -49 37v142h-208q-36 0 -57 19t-21 52q0 61 78 61h388q88 0 157 69t69 174q0 102 -73 169q-68 62 -160 62h-166q-150 0 -257 97q-107 96 -107 247q0 74 28.5 143.5t78.5 118.5q110 105 257 105h368q79 0 79 -65q0 -33 -21 -51t-58 -18
h-390q-83 0 -146 -63t-63 -160q0 -93 63 -158q64 -64 146 -64h183q155 -2 263 -102z" />
    <glyph glyph-name="scedilla" unicode="&#x15f;" horiz-adv-x="880" 
d="M749 478q79 -81 79 -197q0 -114 -78 -197q-81 -84 -197 -84h-92v-83q74 -8 124 -64q50 -58 50 -135q0 -82 -59 -141t-142 -59q-82 0 -141 59q-60 60 -60 141q0 20 13 33t33 13q18 0 30 -12.5t12 -32.5q0 -48 34 -80q31 -34 80 -34q48 0 82 34q33 33 33 80
q0 51 -35.5 82.5t-92.5 31.5q-49 0 -49 37v130h-255q-27 0 -44.5 19t-17.5 49q0 29 17.5 47t44.5 18h423q62 0 105 41q49 46 49 110q0 63 -47 104q-42 36 -108 38h-197q-113 0 -192 82q-77 80 -77 192q0 108 79 187q78 78 190 78h365q30 0 48.5 -17.5t18.5 -47.5
q0 -31 -19 -50t-48 -19h-366q-55 0 -96 -41q-39 -41 -39 -94q0 -57 40 -95q39 -41 95 -41h209q118 0 198 -82z" />
    <glyph glyph-name="Scaron" unicode="&#x160;" horiz-adv-x="1038" 
d="M597 0h-371q-36 0 -57 19t-21 52q0 61 78 61h388q88 0 157 69t69 174q0 102 -73 169q-68 62 -160 62h-166q-150 0 -257 97q-107 96 -107 247q0 74 28.5 143.5t78.5 118.5q110 105 257 105h368q79 0 79 -65q0 -33 -21 -51t-58 -18h-390q-83 0 -146 -63t-63 -160
q0 -93 63 -158q64 -64 146 -64h183q155 -2 263 -102q109 -104 109 -254q0 -155 -111 -269q-110 -113 -266 -113zM538 1425q-29 6 -38 18l-231 233q-18 18 -18 38q0 23 17 39t39 16t38 -16l195 -197l195 197q17 17 38 17q22 0 39 -17t17 -39q0 -21 -17 -38l-232 -233l-12 -10
q-11 -8 -30 -8z" />
    <glyph glyph-name="scaron" unicode="&#x161;" horiz-adv-x="880" 
d="M553 0h-435q-27 0 -44.5 19t-17.5 49q0 29 17.5 47t44.5 18h423q62 0 105 41q49 46 49 110q0 63 -47 104q-42 36 -108 38h-197q-113 0 -192 82q-77 80 -77 192q0 108 79 187q78 78 190 78h365q30 0 48.5 -17.5t18.5 -47.5q0 -31 -19 -50t-48 -19h-366q-55 0 -96 -41
q-39 -41 -39 -94q0 -57 40 -95q39 -41 95 -41h209q118 0 198 -82q79 -81 79 -197q0 -114 -78 -197q-81 -84 -197 -84zM494 1095q-29 6 -38 18l-231 233q-18 18 -18 38q0 23 17 39t39 16t38 -16l195 -197l195 197q17 17 38 17q22 0 39 -17t17 -39q0 -21 -17 -38l-232 -233
l-12 -10q-11 -8 -30 -8z" />
    <glyph glyph-name="uni0162" unicode="&#x162;" horiz-adv-x="1037" 
d="M517 -6q-27 0 -45 19.5t-18 46.5v1124h-342q-27 0 -46.5 19.5t-19.5 47.5q0 27 19.5 46.5t46.5 19.5h822q27 0 46.5 -20t19.5 -47q0 -29 -19 -47.5t-47 -18.5h-350v-1124q0 -27 -19 -46.5t-48 -19.5zM523 -523q-28 0 -47.5 19t-19.5 48v303q0 29 20 48t48 19
q27 0 45.5 -19t18.5 -48v-303q0 -29 -18.5 -48t-46.5 -19z" />
    <glyph glyph-name="uni0163" unicode="&#x163;" horiz-adv-x="944" 
d="M580 -13q-206 0 -347 138q-144 139 -144 341v719q0 28 20 48t47 20q28 0 48.5 -19.5t20.5 -48.5v-229h441q28 0 48 -20t20 -48q0 -27 -19.5 -45.5t-48.5 -18.5h-441v-359q0 -145 103 -245t252 -100q134 0 231 85q28 22 52 22t41.5 -18.5t17.5 -44.5q0 -33 -25 -56
q-127 -121 -317 -121zM533 -528q-28 0 -47.5 19t-19.5 48v303q0 29 20 48t48 19q27 0 45.5 -19t18.5 -48v-303q0 -29 -18.5 -48t-46.5 -19z" />
    <glyph glyph-name="Tcaron" unicode="&#x164;" horiz-adv-x="1037" 
d="M517 -6q-27 0 -45 19.5t-18 46.5v1124h-342q-27 0 -46.5 19.5t-19.5 47.5q0 27 19.5 46.5t46.5 19.5h822q27 0 46.5 -20t19.5 -47q0 -29 -19 -47.5t-47 -18.5h-350v-1124q0 -27 -19 -46.5t-48 -19.5zM527 1428q-29 6 -38 18l-231 233q-18 18 -18 38q0 23 17 39t39 16
t38 -16l195 -197l195 197q17 17 38 17q22 0 39 -17t17 -39q0 -21 -17 -38l-232 -233l-12 -10q-11 -8 -30 -8z" />
    <glyph glyph-name="tcaron" unicode="&#x165;" horiz-adv-x="944" 
d="M580 -13q-206 0 -347 138q-144 139 -144 341v719q0 28 20 48t47 20q28 0 48.5 -19.5t20.5 -48.5v-229h441q28 0 48 -20t20 -48q0 -27 -19.5 -45.5t-48.5 -18.5h-441v-359q0 -145 103 -245t252 -100q134 0 231 85q28 22 52 22t41.5 -18.5t17.5 -44.5q0 -33 -25 -56
q-127 -121 -317 -121zM889 871q-28 0 -47.5 19t-19.5 48v303q0 29 20 48t48 19q27 0 45.5 -19t18.5 -48v-303q0 -29 -18.5 -48t-46.5 -19z" />
    <glyph glyph-name="Tbar" unicode="&#x166;" horiz-adv-x="1037" 
d="M112 1317h822q27 0 46.5 -20t19.5 -47q0 -29 -19 -47.5t-47 -18.5h-350v-461h173q26 0 43.5 -17t17.5 -42t-17.5 -42.5t-43.5 -17.5h-173v-544q0 -27 -19 -46.5t-48 -19.5q-27 0 -45 19.5t-18 46.5v544h-172q-25 0 -42 17.5t-17 42.5t17 42t42 17h172v461h-342
q-27 0 -46.5 19.5t-19.5 47.5q0 27 19.5 46.5t46.5 19.5z" />
    <glyph glyph-name="tbar" unicode="&#x167;" horiz-adv-x="944" 
d="M863 227q24 0 41.5 -18.5t17.5 -44.5q0 -33 -25 -56q-127 -121 -317 -121q-206 0 -347 138q-144 139 -144 341v68h-116q-26 0 -42.5 17t-16.5 42t16.5 42.5t42.5 17.5h116v532q0 28 20 48t47 20q28 0 48.5 -19.5t20.5 -48.5v-229h441q28 0 48 -20t20 -48
q0 -27 -19.5 -45.5t-48.5 -18.5h-441v-171h136q24 0 42 -17.5t18 -42.5q0 -24 -18 -41.5t-42 -17.5h-136v-69q0 -145 103 -245t252 -100q134 0 231 85q28 22 52 22z" />
    <glyph glyph-name="Utilde" unicode="&#x168;" horiz-adv-x="1199" 
d="M589 -12q-207 0 -340 147q-121 133 -121 334v781q0 29 20 48.5t49 19.5q28 0 48.5 -19.5t20.5 -48.5v-772q0 -156 90 -255t236 -99q148 0 246 104q95 101 95 263v759q0 29 20 48.5t49 19.5q28 0 48.5 -19.5t20.5 -48.5v-763q0 -207 -126 -349q-133 -150 -356 -150z
M767 1431q-73 0 -166 72q-29 22 -54 38q-35 19 -66 19q-75 0 -126 -85q-5 -18 -19.5 -29t-30.5 -11q-23 0 -39 16t-16 38q0 20 13 36l1 1q25 52 71 90q64 54 142 54q42 0 76.5 -15.5t80.5 -50.5q35 -28 60 -41q41 -23 69 -23q38 0 66 21t54 65q5 17 20 28t31 11
q22 0 38 -15.5t16 -36.5t-15 -39q-24 -52 -67 -89q-63 -54 -139 -54z" />
    <glyph glyph-name="utilde" unicode="&#x169;" horiz-adv-x="1079" 
d="M547 -12q-193 0 -326 138q-132 134 -132 330v444q0 29 19.5 48t46.5 19q28 0 47.5 -19t19.5 -48v-444q0 -139 94 -236q93 -99 231 -99t224 99q85 94 85 237v443q0 29 20 48.5t48 19.5t47 -19.5t19 -48.5v-446q0 -196 -125 -329q-128 -137 -318 -137zM694 1093
q-73 0 -166 72q-29 22 -54 38q-35 19 -66 19q-75 0 -126 -85q-5 -18 -19.5 -29t-30.5 -11q-23 0 -39 16t-16 38q0 20 13 36l1 1q25 52 71 90q65 54 142 54q42 0 76.5 -15.5t80.5 -50.5q35 -28 60 -41q41 -23 69 -23q38 0 66 21t54 65q5 17 20 28t31 11q22 0 38 -15.5
t16 -36.5t-15 -39q-24 -52 -67 -89q-63 -54 -139 -54z" />
    <glyph glyph-name="Umacron" unicode="&#x16a;" horiz-adv-x="1199" 
d="M589 -12q-207 0 -340 147q-121 133 -121 334v781q0 29 20 48.5t49 19.5q28 0 48.5 -19.5t20.5 -48.5v-772q0 -156 90 -255t236 -99q148 0 246 104q95 101 95 263v759q0 29 20 48.5t49 19.5q28 0 48.5 -19.5t20.5 -48.5v-763q0 -207 -126 -349q-133 -150 -356 -150z
M847 1451h-427q-25 0 -41 17t-16 43q0 24 16.5 40t40.5 16h427q26 0 42.5 -16t16.5 -40q0 -25 -16.5 -42.5t-42.5 -17.5z" />
    <glyph glyph-name="umacron" unicode="&#x16b;" horiz-adv-x="1079" 
d="M547 -12q-193 0 -326 138q-132 134 -132 330v444q0 29 19.5 48t46.5 19q28 0 47.5 -19t19.5 -48v-444q0 -139 94 -236q93 -99 231 -99t224 99q85 94 85 237v443q0 29 20 48.5t48 19.5t47 -19.5t19 -48.5v-446q0 -196 -125 -329q-128 -137 -318 -137zM756 1109h-427
q-25 0 -41 17t-16 43q0 24 16.5 40t40.5 16h427q26 0 42.5 -16t16.5 -40q0 -25 -16.5 -42.5t-42.5 -17.5z" />
    <glyph glyph-name="Ubreve" unicode="&#x16c;" horiz-adv-x="1199" 
d="M589 -12q-207 0 -340 147q-121 133 -121 334v781q0 29 20 48.5t49 19.5q28 0 48.5 -19.5t20.5 -48.5v-772q0 -156 90 -255t236 -99q148 0 246 104q95 101 95 263v759q0 29 20 48.5t49 19.5q28 0 48.5 -19.5t20.5 -48.5v-763q0 -207 -126 -349q-133 -150 -356 -150z
M621 1396q-89 0 -152 63q-62 62 -62 151q0 20 13.5 34t32.5 14q20 0 34 -14t14 -34v-4q2 -49 36 -82q35 -35 84 -35t84 35q35 34 37 82v4q0 20 13 34t33 14t33.5 -14t13.5 -34v-4q-2 -86 -65 -148q-64 -62 -149 -62z" />
    <glyph glyph-name="ubreve" unicode="&#x16d;" horiz-adv-x="1079" 
d="M547 -12q-193 0 -326 138q-132 134 -132 330v444q0 29 19.5 48t46.5 19q28 0 47.5 -19t19.5 -48v-444q0 -139 94 -236q93 -99 231 -99t224 99q85 94 85 237v443q0 29 20 48.5t48 19.5t47 -19.5t19 -48.5v-446q0 -196 -125 -329q-128 -137 -318 -137zM559 1084
q-89 0 -152 63q-62 62 -62 151q0 20 13.5 34t32.5 14q20 0 34 -14t14 -34v-4q2 -49 36 -82q35 -35 84 -35t84 35q35 34 37 82v4q0 20 13 34t33 14t33.5 -14t13.5 -34v-4q-2 -86 -65 -148q-64 -62 -149 -62z" />
    <glyph glyph-name="Uring" unicode="&#x16e;" horiz-adv-x="1199" 
d="M589 -12q-207 0 -340 147q-121 133 -121 334v781q0 29 20 48.5t49 19.5q28 0 48.5 -19.5t20.5 -48.5v-772q0 -156 90 -255t236 -99q148 0 246 104q95 101 95 263v759q0 29 20 48.5t49 19.5q28 0 48.5 -19.5t20.5 -48.5v-763q0 -207 -126 -349q-133 -150 -356 -150z
M613 1398q-78 0 -128 55q-54 55 -54 129q0 75 54 129q51 53 128 53t130 -53q53 -56 53 -129t-53 -129q-52 -55 -130 -55zM614 1492q37 0 63 26t26 63q0 38 -26 64t-63 26q-38 0 -64 -26t-26 -64q0 -37 26 -63t64 -26z" />
    <glyph glyph-name="uring" unicode="&#x16f;" horiz-adv-x="1079" 
d="M547 -12q-193 0 -326 138q-132 134 -132 330v444q0 29 19.5 48t46.5 19q28 0 47.5 -19t19.5 -48v-444q0 -139 94 -236q93 -99 231 -99t224 99q85 94 85 237v443q0 29 20 48.5t48 19.5t47 -19.5t19 -48.5v-446q0 -196 -125 -329q-128 -137 -318 -137zM552 1051
q-78 0 -128 55q-54 56 -54 129q0 75 54 129q51 53 128 53t130 -53q53 -56 53 -129t-53 -129q-52 -55 -130 -55zM553 1145q37 0 63 26t26 63q0 38 -26 64t-63 26q-38 0 -64 -26t-26 -64q0 -37 26 -63t64 -26z" />
    <glyph glyph-name="Uhungarumlaut" unicode="&#x170;" horiz-adv-x="1199" 
d="M589 -12q-207 0 -340 147q-121 133 -121 334v781q0 29 20 48.5t49 19.5q28 0 48.5 -19.5t20.5 -48.5v-772q0 -156 90 -255t236 -99q148 0 246 104q95 101 95 263v759q0 29 20 48.5t49 19.5q28 0 48.5 -19.5t20.5 -48.5v-763q0 -207 -126 -349q-133 -150 -356 -150z
M413 1419q-24 0 -41 17.5t-17 40.5t18 41l158 161q18 18 43 18q23 0 41 -17.5t18 -40.5t-18 -41l-160 -161q-18 -18 -42 -18zM809 1419q-23 0 -40.5 17t-17.5 40q0 25 17 42l159 161q18 18 42 18t41.5 -18.5t17.5 -40.5q0 -23 -17 -40l-160 -161q-18 -18 -42 -18z" />
    <glyph glyph-name="uhungarumlaut" unicode="&#x171;" horiz-adv-x="1079" 
d="M547 -12q-193 0 -326 138q-132 134 -132 330v444q0 29 19.5 48t46.5 19q28 0 47.5 -19t19.5 -48v-444q0 -139 94 -236q93 -99 231 -99t224 99q85 94 85 237v443q0 29 20 48.5t48 19.5t47 -19.5t19 -48.5v-446q0 -196 -125 -329q-128 -137 -318 -137zM337 1075
q-24 0 -41 17.5t-17 40.5t18 41l158 161q18 18 43 18q23 0 41 -17.5t18 -40.5t-18 -41l-160 -161q-18 -18 -42 -18zM733 1075q-23 0 -40.5 17t-17.5 40q0 25 17 42l159 161q18 18 42 18t41.5 -18.5t17.5 -40.5q0 -23 -17 -40l-160 -161q-18 -18 -42 -18z" />
    <glyph glyph-name="Uogonek" unicode="&#x172;" horiz-adv-x="1199" 
d="M895 90l-116 -114q-35 -35 -35 -82t33 -80q32 -34 81 -34q48 0 81 33q34 32 34 81q0 18 12.5 30.5t32.5 12.5q18 0 31 -13t13 -30v-1q0 -84 -59 -143t-143 -59q-83 0 -142 59t-59 143q0 58 28 104q-47 -9 -98 -9q-207 0 -340 147q-121 133 -121 334v781q0 29 20 48.5
t49 19.5q28 0 48.5 -19.5t20.5 -48.5v-772q0 -156 90 -255t236 -99q148 0 246 104q95 101 95 263v759q0 29 20 48.5t49 19.5q28 0 48.5 -19.5t20.5 -48.5v-763q0 -207 -126 -349q-20 -22 -50 -48z" />
    <glyph glyph-name="uogonek" unicode="&#x173;" horiz-adv-x="1079" 
d="M968 -47q18 0 31 -13t13 -30v-1q0 -84 -59 -143t-143 -59q-83 0 -142 59t-59 143q0 47 19 86q-34 -7 -81 -7q-193 0 -326 138q-132 134 -132 330v444q0 29 19.5 48t46.5 19q28 0 47.5 -19t19.5 -48v-444q0 -139 94 -236q93 -99 231 -99t224 99q85 94 85 237v443
q0 29 20 48.5t48 19.5t47 -19.5t19 -48.5v-446q0 -196 -125 -329q-18 -18 -34 -32l-102 -101q-35 -35 -35 -82t33 -80q32 -34 81 -34q48 0 81 33q34 32 34 81q0 18 12.5 30.5t32.5 12.5z" />
    <glyph glyph-name="Wcircumflex" unicode="&#x174;" horiz-adv-x="1559" 
d="M785 1773q19 0 30 -8l12 -10l232 -233q17 -17 17 -38q0 -22 -17 -39t-39 -17q-21 0 -38 17l-195 197l-195 -197q-16 -16 -38 -16t-39 16t-17 39q0 20 18 38l231 233q9 12 38 18zM483 -12q-151 0 -258 107t-107 257v898q0 28 20 47.5t49 19.5q28 0 48 -19.5t20 -47.5v-893
q0 -95 67 -162q66 -66 161 -66q94 0 162 68q66 66 66 160v892q0 28 19.5 48t48.5 20t49.5 -20t20.5 -48v-892q0 -93 65 -160q65 -68 160 -68t161 66q68 65 68 161v894q0 28 20.5 47.5t49.5 19.5q28 0 48 -19.5t20 -47.5v-898q0 -151 -106 -257q-107 -107 -260 -107
q-89 0 -165.5 40.5t-130.5 112.5q-54 -72 -130.5 -112.5t-165.5 -40.5z" />
    <glyph glyph-name="wcircumflex" unicode="&#x175;" horiz-adv-x="1304" 
d="M654 1436q19 0 30 -8l12 -10l232 -233q17 -17 17 -38q0 -22 -17 -39t-39 -17q-21 0 -38 17l-195 197l-195 -197q-16 -16 -38 -16t-39 16t-17 39q0 20 18 38l231 233q9 12 38 18zM409 -12q-129 0 -221 92t-92 222v599q0 29 19.5 48t47.5 19q27 0 46.5 -19t20.5 -48l2 -598
v-6q-1 -1 -1 -6q6 -68 58 -117t123 -49q73 0 129 56q52 55 52 131v588q0 29 19 48.5t47 19.5q27 0 47 -19.5t20 -48.5v-593v-5q-1 -1 -1 -6q4 -68 56 -120q52 -50 123 -50q76 0 129 53t55 125v597q0 29 19.5 48t47.5 19t47.5 -19t19.5 -48v-601q0 -130 -95 -220
q-95 -92 -224 -92q-75 0 -139 32t-107 89q-45 -58 -109.5 -89.5t-138.5 -31.5z" />
    <glyph glyph-name="Ycircumflex" unicode="&#x176;" horiz-adv-x="1062" 
d="M539 1763q19 0 30 -8l12 -10l232 -233q17 -17 17 -38q0 -22 -17 -39t-39 -17q-21 0 -38 17l-195 197l-195 -197q-16 -16 -38 -16t-39 16t-17 39q0 20 18 38l231 233q9 12 38 18zM545 0q-29 0 -48.5 19.5t-19.5 48.5v424q-168 20 -283 149q-113 126 -118 302v308
q0 29 20 48t48 19q29 0 47.5 -19t18.5 -48v-301q0 -138 93 -234q94 -99 229 -99t229 97q91 97 91 236v301q0 29 19.5 48t47.5 19q29 0 47.5 -19t18.5 -48v-295q0 -178 -104 -304q-106 -128 -270 -157v-427q0 -29 -19.5 -48.5t-46.5 -19.5z" />
    <glyph glyph-name="ycircumflex" unicode="&#x177;" horiz-adv-x="1114" 
d="M570 1436q19 0 30 -8l12 -10l232 -233q17 -17 17 -38q0 -22 -17 -39t-39 -17q-21 0 -38 17l-195 197l-195 -197q-16 -16 -38 -16t-39 16t-17 39q0 20 18 38l231 233q9 12 38 18zM976 -298q-28 0 -47 19t-19 48v406q-68 -81 -156 -125.5t-188 -44.5q-96 0 -184 36.5
t-155 103.5q-141 141 -141 339v414q0 29 20 49t49 20q27 0 47 -20t20 -49v-419q0 -68 27 -130.5t75 -108.5q102 -100 242 -100q139 0 242 100q48 46 75 108.5t27 130.5v419q0 29 20 49t47 20q28 0 48 -20t20 -49v-1129q0 -29 -20 -48t-49 -19z" />
    <glyph glyph-name="Ydieresis" unicode="&#x178;" horiz-adv-x="1062" 
d="M545 0q-29 0 -48.5 19.5t-19.5 48.5v424q-168 20 -283 149q-113 126 -118 302v308q0 29 20 48t48 19q29 0 47.5 -19t18.5 -48v-301q0 -138 93 -234q94 -99 229 -99t229 97q91 97 91 236v301q0 29 19.5 48t47.5 19q29 0 47.5 -19t18.5 -48v-295q0 -178 -104 -304
q-106 -128 -270 -157v-427q0 -29 -19.5 -48.5t-46.5 -19.5zM373 1404q-34 0 -57 23t-23 57q0 35 23 58t57 23q35 0 58.5 -23t23.5 -58q0 -34 -23.5 -57t-58.5 -23zM715 1404q-33 0 -56 23q-24 24 -24 57q0 34 24 58q23 23 56 23q35 0 58 -23t23 -58q0 -34 -23 -57t-58 -23z
" />
    <glyph glyph-name="Zacute" unicode="&#x179;" horiz-adv-x="1073" 
d="M961 0h-854q-27 0 -46.5 19.5t-19.5 46.5q0 12 8 33l7 12l727 1072h-646q-27 0 -46.5 19.5t-19.5 47.5t20 47.5t48 19.5h780q29 -1 47.5 -20.5t18.5 -46.5q0 -15 -5 -23q-5 -9 -10 -22l-734 -1072h725q28 0 47 -19.5t19 -47.5q0 -27 -19 -46.5t-47 -19.5zM570 1473
q-27 0 -46.5 19t-19.5 48q0 22 13 39.5t36 24.5l212 102q9 3 19 3q27 0 47 -20t20 -49q0 -22 -13 -39t-35 -24l-213 -101q-11 -3 -20 -3z" />
    <glyph glyph-name="zacute" unicode="&#x17a;" horiz-adv-x="1014" 
d="M902 0h-790q-28 0 -48 19.5t-20 45.5q0 24 20 47l671 722h-606q-28 0 -47.5 19t-19.5 47t19.5 47t47.5 19h748q26 0 44.5 -18t20.5 -45v-9q-6 -29 -20 -43l-672 -721h652q29 0 48.5 -18t19.5 -46t-19.5 -47t-48.5 -19zM509 1135q-27 0 -46.5 19t-19.5 48q0 22 13 39.5
t36 24.5l212 102q9 3 19 3q27 0 47 -20t20 -49q0 -22 -13 -39t-35 -24l-213 -101q-10 -3 -20 -3z" />
    <glyph glyph-name="Zdotaccent" unicode="&#x17b;" horiz-adv-x="1073" 
d="M961 0h-854q-27 0 -46.5 19.5t-19.5 46.5q0 12 8 33l7 12l727 1072h-646q-27 0 -46.5 19.5t-19.5 47.5t20 47.5t48 19.5h780q29 -1 47.5 -20.5t18.5 -46.5q0 -15 -5 -23q-5 -9 -10 -22l-734 -1072h725q28 0 47 -19.5t19 -47.5q0 -27 -19 -46.5t-47 -19.5zM606 1430
q-35 0 -60 25t-25 60q0 36 25 61t60 25q36 0 61 -25t25 -61q0 -35 -25 -60t-61 -25z" />
    <glyph glyph-name="zdotaccent" unicode="&#x17c;" horiz-adv-x="1014" 
d="M902 0h-790q-28 0 -48 19.5t-20 45.5q0 24 20 47l671 722h-606q-28 0 -47.5 19t-19.5 47t19.5 47t47.5 19h748q26 0 44.5 -18t20.5 -45v-9q-6 -29 -20 -43l-672 -721h652q29 0 48.5 -18t19.5 -46t-19.5 -47t-48.5 -19zM522 1109q-35 0 -60 25t-25 60q0 36 25 61t60 25
q36 0 61 -25t25 -61q0 -35 -25 -60t-61 -25z" />
    <glyph glyph-name="Zcaron" unicode="&#x17d;" horiz-adv-x="1073" 
d="M961 0h-854q-27 0 -46.5 19.5t-19.5 46.5q0 12 8 33l7 12l727 1072h-646q-27 0 -46.5 19.5t-19.5 47.5t20 47.5t48 19.5h780q29 -1 47.5 -20.5t18.5 -46.5q0 -15 -5 -23q-5 -9 -10 -22l-734 -1072h725q28 0 47 -19.5t19 -47.5q0 -27 -19 -46.5t-47 -19.5zM597 1439
q-29 6 -38 18l-231 233q-18 18 -18 38q0 23 17 39t39 16t38 -16l195 -197l195 197q17 17 38 17q22 0 39 -17t17 -39q0 -21 -17 -38l-232 -233l-12 -10q-11 -8 -30 -8z" />
    <glyph glyph-name="zcaron" unicode="&#x17e;" horiz-adv-x="1014" 
d="M902 0h-790q-28 0 -48 19.5t-20 45.5q0 24 20 47l671 722h-606q-28 0 -47.5 19t-19.5 47t19.5 47t47.5 19h748q26 0 44.5 -18t20.5 -45v-9q-6 -29 -20 -43l-672 -721h652q29 0 48.5 -18t19.5 -46t-19.5 -47t-48.5 -19zM537 1095q-29 6 -38 18l-231 233q-18 18 -18 38
q0 23 17 39t39 16t38 -16l195 -197l195 197q17 17 38 17q22 0 39 -17t17 -39q0 -21 -17 -38l-232 -233l-12 -10q-11 -8 -30 -8z" />
    <glyph glyph-name="longs" unicode="&#x17f;" horiz-adv-x="1707" 
 />
    <glyph glyph-name="florin" unicode="&#x192;" horiz-adv-x="677" 
d="M102 -285q-27 0 -46.5 19t-19.5 48q0 27 19.5 46.5t46.5 19.5q74 0 124 52q48 50 48 123v521h-93q-28 0 -47.5 19t-19.5 48q0 27 19.5 46.5t47.5 19.5h93v341q2 123 92 212q89 89 213 89q29 0 48.5 -19.5t19.5 -48.5q0 -27 -19.5 -46.5t-48.5 -19.5q-71 0 -121 -50
q-49 -49 -51 -119v-339h150q29 0 48.5 -19.5t19.5 -46.5q0 -29 -19.5 -48t-48.5 -19h-150v-521q0 -127 -88 -217q-91 -91 -217 -91z" />
    <glyph glyph-name="AEacute" unicode="&#x1fc;" horiz-adv-x="1711" 
d="M197 -5q-29 0 -49 19.5t-20 48.5v776q0 197 121 330q126 142 340 142h1015q28 0 47 -19t19 -48q0 -28 -19 -47.5t-47 -19.5h-605v-442h437q28 0 47 -18.5t19 -46.5t-19 -46.5t-47 -18.5h-437v-472h605q28 0 47 -19.5t19 -46.5q0 -30 -19 -48.5t-47 -18.5h-677
q-27 2 -44.5 21.5t-17.5 46.5v336h-599v-341q0 -29 -20.5 -48.5t-48.5 -19.5zM266 541h599v633h-273q-147 0 -236 -94q-90 -96 -90 -251v-288zM1065 1490q-27 0 -46.5 19t-19.5 48q0 22 13 39.5t36 24.5l212 102q9 3 19 3q27 0 47 -20t20 -49q0 -22 -13 -39t-35 -24
l-213 -101q-11 -3 -20 -3z" />
    <glyph glyph-name="aeacute" unicode="&#x1fd;" horiz-adv-x="1938" 
d="M1008 1126q-27 0 -46.5 19t-19.5 48q0 22 13 39.5t36 24.5l212 102q9 3 19 3q27 0 47 -20t20 -49q0 -22 -13 -39t-35 -24l-213 -101q-10 -3 -20 -3zM532 -12q-201 0 -344 143q-69 67 -106.5 156.5t-37.5 187.5q0 99 37.5 189.5t106.5 157.5q143 143 344 143
q129 0 242 -64q107 -62 174 -170q64 118 182 191t260 73q100 0 192 -38.5t163 -108.5q147 -147 149 -354q0 -28 -18.5 -46.5t-47.5 -18.5h-793q17 -134 117 -222q101 -90 238 -90q164 0 264 119q23 17 46 17q27 0 46 -21.5t19 -48.5q0 -32 -25 -51q-64 -64 -144 -102
q-92 -42 -206 -42q-108 0 -204 42t-166 119v-80q0 -29 -19.5 -49t-48.5 -20t-46.5 19.5t-18.5 49.5l-2 82q-70 -77 -161.5 -120t-191.5 -43zM1031 542h725q-14 134 -118 230q-106 93 -246 93q-143 0 -245 -94t-116 -229zM532 121q151 0 253 105q102 104 102 249
q0 147 -102 251q-104 104 -253 104q-147 0 -251 -104t-104 -251q0 -145 104 -249q102 -105 251 -105z" />
    <glyph glyph-name="Oslashacute" unicode="&#x1fe;" horiz-adv-x="1204" 
d="M357 -89q-29 0 -48.5 20t-19.5 48q0 9 3 20l27 76q-93 65 -147 165t-54 218v395q0 192 140 332q141 139 344 139q74 0 158 -26l10 28q18 50 66 50q29 0 48.5 -19.5t19.5 -46.5q0 -10 -3 -20l-19 -54q92 -64 148 -165q55 -101 55 -218v-395q0 -193 -140 -331
q-145 -139 -343 -139q-77 0 -161 26l-19 -54q-20 -49 -65 -49zM367 207l347 965q-59 17 -112 17q-149 0 -252 -100q-99 -96 -99 -235v-397q0 -149 116 -250zM602 122q149 0 251 100q98 95 98 235v397q0 147 -117 251l-348 -966q60 -17 116 -17zM745 1470q-27 0 -46.5 19
t-19.5 48q0 22 13 39.5t36 24.5l212 102q9 3 19 3q27 0 47 -20t20 -49q0 -22 -13 -39t-35 -24l-213 -101q-11 -3 -20 -3z" />
    <glyph glyph-name="oslashacute" unicode="&#x1ff;" horiz-adv-x="1064" 
d="M584 1145q-27 0 -46.5 19t-19.5 48q0 22 13 39.5t36 24.5l212 102q9 3 19 3q27 0 47 -20t20 -49q0 -22 -13 -39t-35 -24l-213 -101q-11 -3 -20 -3zM242 -45q-27 0 -46.5 20t-19.5 47q0 22 9 35l31 47q-82 72 -127 168t-45 203q0 99 37.5 189.5t106.5 157.5
q143 143 344 143q115 0 220 -52l23 35q23 35 59 35q28 0 47 -20t19 -47q0 -21 -9 -35l-29 -44q158 -150 158 -362q0 -98 -37.5 -187.5t-104.5 -156.5q-68 -68 -157.5 -105.5t-188.5 -37.5q-101 0 -203 44l-28 -42q-20 -35 -59 -35zM290 216l387 584q-69 30 -145 30
q-147 0 -251 -104t-104 -251q0 -158 113 -259zM532 121q151 0 253 105q103 103 103 249q0 148 -101 249l-384 -579q60 -24 129 -24z" />
    <glyph glyph-name="uni0218" unicode="&#x218;" horiz-adv-x="1038" 
d="M597 0h-371q-36 0 -57 19t-21 52q0 61 78 61h388q88 0 157 69t69 174q0 102 -73 169q-68 62 -160 62h-166q-150 0 -257 97q-107 96 -107 247q0 74 28.5 143.5t78.5 118.5q110 105 257 105h368q79 0 79 -65q0 -33 -21 -51t-58 -18h-390q-83 0 -146 -63t-63 -160
q0 -93 63 -158q64 -64 146 -64h183q155 -2 263 -102q109 -104 109 -254q0 -155 -111 -269q-110 -113 -266 -113zM532 -518q-28 0 -47.5 19t-19.5 48v303q0 29 20 48t48 19q27 0 45.5 -19t18.5 -48v-303q0 -29 -18.5 -48t-46.5 -19z" />
    <glyph glyph-name="uni0219" unicode="&#x219;" horiz-adv-x="880" 
d="M553 0h-435q-27 0 -44.5 19t-17.5 49q0 29 17.5 47t44.5 18h423q62 0 105 41q49 46 49 110q0 63 -47 104q-42 36 -108 38h-197q-113 0 -192 82q-77 80 -77 192q0 108 79 187q78 78 190 78h365q30 0 48.5 -17.5t18.5 -47.5q0 -31 -19 -50t-48 -19h-366q-55 0 -96 -41
q-39 -41 -39 -94q0 -57 40 -95q39 -41 95 -41h209q118 0 198 -82q79 -81 79 -197q0 -114 -78 -197q-81 -84 -197 -84zM409 -516q-28 0 -47.5 19t-19.5 48v303q0 29 20 48t48 19q27 0 45.5 -19t18.5 -48v-303q0 -29 -18.5 -48t-46.5 -19z" />
    <glyph glyph-name="uni021A" unicode="&#x21a;" horiz-adv-x="1099" 
d="M550 0q-27 0 -46 19t-18 47v1112h-383q-27 0 -46.5 19.5t-19.5 47.5q0 27 19.5 46.5t46.5 19.5h905q29 0 48 -19.5t19 -47.5q0 -29 -19 -47.5t-48 -18.5h-391v-1112q0 -28 -19 -47t-48 -19zM549 -544q-29 0 -48.5 20t-19.5 49v326q0 29 19.5 49t48.5 20t47 -19.5
t18 -49.5v-326q0 -30 -18 -49.5t-47 -19.5z" />
    <glyph glyph-name="uni021B" unicode="&#x21b;" horiz-adv-x="950" 
d="M585 -13q-206 0 -347 138q-144 139 -144 341v741q0 29 20 49t47 20q28 0 49 -20t21 -49v-240h440q28 0 48 -19.5t20 -47.5q0 -27 -19.5 -46t-48.5 -19h-440v-370q0 -145 103 -245q102 -100 251 -100q134 0 231 85q28 22 52 22t41.5 -19t17.5 -44q0 -33 -25 -56
q-127 -121 -317 -121zM160 -464q-29 0 -48.5 19.5t-19.5 48.5v327q0 29 19.5 49t48.5 20t47.5 -19.5t18.5 -49.5v-327q0 -29 -18.5 -48.5t-47.5 -19.5z" />
    <glyph glyph-name="uni0237" unicode="&#x237;" horiz-adv-x="402" 
d="M-55 -298q-29 0 -48.5 19.5t-19.5 47.5q0 29 19.5 48.5t48.5 19.5h11q72 0 123 51q52 51 54 122v885q0 30 20 50t47 20q29 0 49 -20t20 -50v-879q0 -130 -92 -222t-221 -92l-2 1q-1 -1 -9 -1z" />
    <glyph glyph-name="circumflex" unicode="&#x2c6;" horiz-adv-x="748" 
d="M349 1515q19 0 30 -8l12 -10l232 -233q17 -17 17 -38q0 -22 -17 -39t-39 -17q-21 0 -38 17l-195 197l-195 -197q-16 -16 -38 -16t-39 16t-17 39q0 20 18 38l231 233q9 12 38 18z" />
    <glyph glyph-name="caron" unicode="&#x2c7;" horiz-adv-x="745" 
d="M339 1165q-29 6 -38 18l-231 233q-18 18 -18 38q0 23 17 39t39 16t38 -16l195 -197l195 197q17 17 38 17q22 0 39 -17t17 -39q0 -21 -17 -38l-232 -233l-12 -10q-11 -8 -30 -8z" />
    <glyph glyph-name="uni02C9" unicode="&#x2c9;" horiz-adv-x="905" 
d="M748 1128h-590q-37 0 -63 29q-25 26 -25 64q0 39 24.5 64.5t63.5 25.5h590q36 0 62 -26t26 -64q0 -35 -26 -64q-27 -29 -62 -29z" />
    <glyph glyph-name="breve" unicode="&#x2d8;" horiz-adv-x="559" 
d="M245 1124q-89 0 -152 63q-62 62 -62 151q0 20 13.5 34t32.5 14q20 0 34 -14t14 -34v-4q2 -49 36 -82q35 -35 84 -35t84 35q35 34 37 82v4q0 20 13 34t33 14t33.5 -14t13.5 -34v-4q-2 -86 -65 -148q-64 -62 -149 -62z" />
    <glyph glyph-name="dotaccent" unicode="&#x2d9;" horiz-adv-x="391" 
d="M136 1156q-35 0 -60 25t-25 60q0 36 25 61t60 25q36 0 61 -25t25 -61q0 -35 -25 -60t-61 -25z" />
    <glyph glyph-name="ring" unicode="&#x2da;" horiz-adv-x="485" 
d="M204 1126q-78 0 -128 55q-54 55 -54 129q0 75 54 129q51 53 128 53t130 -53q53 -56 53 -129t-53 -129q-52 -55 -130 -55zM205 1220q37 0 63 26t26 63q0 38 -26 64t-63 26q-38 0 -64 -26t-26 -64q0 -37 26 -63t64 -26z" />
    <glyph glyph-name="ogonek" unicode="&#x2db;" horiz-adv-x="483" 
d="M159 -509q-83 0 -142 59t-59 143q0 91 65 148l123 122q11 8 23 8q19 0 34 -12t15 -29q0 -16 -12 -28l-128 -126q-35 -35 -35 -82t33 -80q32 -34 81 -34q48 0 81 33q34 32 34 81q0 18 12.5 30.5t32.5 12.5q18 0 31 -13t13 -30v-1q0 -84 -59 -143t-143 -59z" />
    <glyph glyph-name="tilde" unicode="&#x2dc;" horiz-adv-x="825" 
d="M551 1128q-73 0 -166 72q-29 22 -54 38q-35 19 -66 19q-75 0 -126 -85q-5 -18 -19.5 -29t-30.5 -11q-23 0 -39 16t-16 38q0 20 13 36l1 1q25 52 71 90q65 54 142 54q42 0 76.5 -15.5t80.5 -50.5q35 -28 60 -41q41 -23 69 -23q38 0 66 21t54 65q5 17 20 28t31 11
q22 0 38 -15.5t16 -36.5t-15 -39q-24 -52 -67 -89q-63 -54 -139 -54z" />
    <glyph glyph-name="hungarumlaut" unicode="&#x2dd;" horiz-adv-x="918" 
d="M167 1427q-24 0 -41 17.5t-17 40.5t18 41l158 161q18 18 43 18q23 0 41 -17.5t18 -40.5t-18 -41l-160 -161q-18 -18 -42 -18zM563 1427q-23 0 -40.5 17t-17.5 40q0 25 17 42l159 161q18 18 42 18t41.5 -18.5t17.5 -40.5q0 -23 -17 -40l-160 -161q-18 -18 -42 -18z" />
    <glyph glyph-name="uni037E" unicode="&#x37e;" horiz-adv-x="413" 
d="M188 280q-28 0 -48 19.5t-20 48.5v326q0 29 20 49.5t48 20.5q29 0 47.5 -20t18.5 -50v-326q0 -29 -18.5 -48.5t-47.5 -19.5z" />
    <glyph glyph-name="tonos" unicode="&#x384;" horiz-adv-x="403" 
d="M134 1117q-28 0 -47.5 19t-19.5 47v193q0 29 19 48.5t48 19.5q27 0 46 -19.5t19 -48.5v-193q0 -27 -19 -46.5t-46 -19.5z" />
    <glyph glyph-name="dieresistonos" unicode="&#x385;" horiz-adv-x="1036" 
d="M412 1222q-28 0 -47.5 19t-19.5 47v193q0 29 19 48.5t48 19.5q27 0 46 -19.5t19 -48.5v-193q0 -27 -19 -46.5t-46 -19.5zM170 1155q-35 0 -60 25t-25 60q0 36 25 60.5t60 24.5q36 0 61.5 -24.5t25.5 -60.5t-25.5 -60.5t-61.5 -24.5zM655 1155q-34 0 -59.5 25t-25.5 60
t25.5 60t59.5 25q36 0 61 -24.5t25 -60.5q0 -35 -25 -60t-61 -25z" />
    <glyph glyph-name="Alphatonos" unicode="&#x386;" horiz-adv-x="1199" 
d="M197 -5q-29 0 -49 19.5t-20 48.5v776q0 200 121 335q132 146 340 146q221 0 356 -149q126 -142 126 -350v-758q0 -29 -20.5 -48.5t-48.5 -19.5q-29 0 -49 19.5t-20 48.5v341h-667v-341q0 -29 -20.5 -48.5t-48.5 -19.5zM266 541h667v276q0 160 -95 263q-99 105 -246 105
q-148 0 -236 -99q-90 -101 -90 -257v-288zM606 1439q-28 0 -47.5 19t-19.5 47v193q0 29 19 48.5t48 19.5q27 0 46 -19.5t19 -48.5v-193q0 -27 -19 -46.5t-46 -19.5z" />
    <glyph glyph-name="anoteleia" unicode="&#x387;" horiz-adv-x="424" 
d="M171 447q-35 0 -61 27q-26 26 -26 62t26 62t61 26q38 0 64 -26t26 -62t-26 -62q-25 -27 -64 -27z" />
    <glyph glyph-name="Epsilontonos" unicode="&#x388;" horiz-adv-x="985" 
d="M872 0h-677q-27 2 -44.5 21.5t-17.5 46.5v1184q0 29 20 48t48 19h671q28 0 47 -19t19 -48q0 -28 -19 -47.5t-47 -19.5h-605v-450h436q29 0 48 -18.5t19 -46.5t-19 -46.5t-48 -18.5h-436v-472h605q28 0 47 -19.5t19 -46.5q0 -30 -19 -48.5t-47 -18.5zM602 1427
q-28 0 -47.5 19t-19.5 47v193q0 29 19 48.5t48 19.5q27 0 46 -19.5t19 -48.5v-193q0 -27 -19 -46.5t-46 -19.5z" />
    <glyph glyph-name="Etatonos" unicode="&#x389;" horiz-adv-x="1162" 
d="M194 -4q-28 0 -47.5 19t-19.5 46v1191q0 28 19.5 47t47.5 19q27 0 46.5 -19t19.5 -47v-573h658v573q0 27 20 46.5t47 19.5q28 0 47 -19t19 -47v-1191q0 -27 -19.5 -46t-47.5 -19q-27 0 -46.5 19t-19.5 46v485h-658v-485q0 -27 -19.5 -46t-46.5 -19zM613 1377
q-28 0 -47.5 19t-19.5 47v193q0 29 19 48.5t48 19.5q27 0 46 -19.5t19 -48.5v-193q0 -27 -19 -46.5t-46 -19.5z" />
    <glyph glyph-name="Iotatonos" unicode="&#x38a;" 
d="M199 -5q-27 0 -46.5 19t-19.5 46v1191q0 29 19 47.5t47 18.5t48 -18.5t20 -47.5v-1191q0 -27 -20 -46t-48 -19zM201 1422q-28 0 -47.5 19t-19.5 47v193q0 29 19 48.5t48 19.5q27 0 46 -19.5t19 -48.5v-193q0 -27 -19 -46.5t-46 -19.5z" />
    <glyph glyph-name="Omicrontonos" unicode="&#x38c;" horiz-adv-x="1204" 
d="M602 -12q-99 0 -187.5 36.5t-156.5 102.5q-140 138 -140 331v395q0 192 140 332q141 139 344 139q202 0 343 -139q140 -140 140 -332v-395q0 -193 -140 -331q-145 -139 -343 -139zM602 122q149 0 251 100q98 95 98 235v397q0 140 -98 235q-102 100 -251 100t-252 -100
q-99 -96 -99 -235v-397q0 -141 99 -235q103 -100 252 -100zM615 1448q-28 0 -47.5 19t-19.5 47v193q0 29 19 48.5t48 19.5q27 0 46 -19.5t19 -48.5v-193q0 -27 -19 -46.5t-46 -19.5z" />
    <glyph glyph-name="Upsilontonos" unicode="&#x38e;" horiz-adv-x="1062" 
d="M545 0q-29 0 -48.5 19.5t-19.5 48.5v424q-168 20 -283 149q-113 126 -118 302v308q0 29 20 48t48 19q29 0 47.5 -19t18.5 -48v-301q0 -138 93 -234q94 -99 229 -99t229 97q91 97 91 236v301q0 29 19.5 48t47.5 19q29 0 47.5 -19t18.5 -48v-295q0 -178 -104 -304
q-106 -128 -270 -157v-427q0 -29 -19.5 -48.5t-46.5 -19.5zM548 1403q-28 0 -47.5 19t-19.5 47v193q0 29 19 48.5t48 19.5q27 0 46 -19.5t19 -48.5v-193q0 -27 -19 -46.5t-46 -19.5z" />
    <glyph glyph-name="Omegatonos" unicode="&#x38f;" horiz-adv-x="1305" 
d="M477 0l-253 2q-29 0 -48.5 19t-19.5 49q0 29 19.5 48.5t48.5 19.5l180 -1v89q-146 74 -228 205q-88 136 -88 303q0 120 45 227t127 189q82 81 190.5 125.5t228.5 44.5t227 -44t188 -126t125.5 -189.5t44.5 -226.5q0 -166 -87 -302q-85 -132 -227 -205v-90l179 1
q29 0 48.5 -19.5t19.5 -48.5q0 -30 -19.5 -49t-48.5 -19l-250 -2q-26 0 -44.5 20t-18.5 47v218q0 44 38 62v1q127 49 199 147q78 107 78 249q0 85 -34.5 166t-95.5 145q-63 64 -146 99t-175 35q-189 0 -325 -134q-63 -61 -98.5 -142.5t-35.5 -168.5q0 -139 76 -243
q68 -96 188 -148q53 -11 53 -68v-218q0 -26 -17.5 -45t-43.5 -22zM28 981q-28 0 -47.5 19t-19.5 47v193q0 29 19 48.5t48 19.5q27 0 46 -19.5t19 -48.5v-193q0 -27 -19 -46.5t-46 -19.5z" />
    <glyph glyph-name="iotadieresistonos" unicode="&#x390;" horiz-adv-x="409" 
d="M206 0q-28 0 -48 19.5t-20 48.5v828q0 29 20 49t49 20q28 0 47 -20t19 -49v-828q0 -29 -20 -48.5t-47 -19.5zM213 1161q-28 0 -47.5 19t-19.5 47v193q0 29 19 48.5t48 19.5q27 0 46 -19.5t19 -48.5v-193q0 -27 -19 -46.5t-46 -19.5zM-29 1094q-35 0 -60 25t-25 60
q0 36 25 60.5t60 24.5q36 0 61.5 -24.5t25.5 -60.5t-25.5 -60.5t-61.5 -24.5zM456 1094q-34 0 -59.5 25t-25.5 60t25.5 60t59.5 25q36 0 61 -24.5t25 -60.5q0 -35 -25 -60t-61 -25z" />
    <glyph glyph-name="Alpha" unicode="&#x391;" horiz-adv-x="1199" 
d="M197 -5q-29 0 -49 19.5t-20 48.5v776q0 200 121 335q132 146 340 146q221 0 356 -149q126 -142 126 -350v-758q0 -29 -20.5 -48.5t-48.5 -19.5q-29 0 -49 19.5t-20 48.5v341h-667v-341q0 -29 -20.5 -48.5t-48.5 -19.5zM266 541h667v276q0 160 -95 263q-99 105 -246 105
q-148 0 -236 -99q-90 -101 -90 -257v-288z" />
    <glyph glyph-name="Beta" unicode="&#x392;" horiz-adv-x="1126" 
d="M682 0h-517q-33 1 -53 34l-2 4l-3 7q-4 7 -4 23v1181q0 28 19 48.5t48 20.5h499q146 0 249 -106q48 -49 75.5 -118.5t27.5 -142.5q0 -83 -35.5 -154t-99.5 -120q77 -52 120 -133t43 -175q0 -152 -108 -260q-107 -109 -259 -109zM240 741h438q88 2 147 64q60 63 60 146
q0 100 -66 166q-65 61 -159 63h-420v-439zM240 137h442q89 0 159 70q65 68 65 162q0 93 -64 163q-66 70 -156 72h-446v-467z" />
    <glyph glyph-name="Gamma" unicode="&#x393;" horiz-adv-x="1035" 
d="M201 -1q-28 0 -48 19.5t-20 48.5v1176q0 23 14.5 41.5t37.5 24.5l10 2h755q28 0 47.5 -20.5t19.5 -49.5t-19.5 -47t-47.5 -18h-683v-1109q0 -29 -18.5 -48.5t-47.5 -19.5z" />
    <glyph glyph-name="Epsilon" unicode="&#x395;" horiz-adv-x="985" 
d="M872 0h-677q-27 2 -44.5 21.5t-17.5 46.5v1184q0 29 20 48t48 19h671q28 0 47 -19t19 -48q0 -28 -19 -47.5t-47 -19.5h-605v-450h436q29 0 48 -18.5t19 -46.5t-19 -46.5t-48 -18.5h-436v-472h605q28 0 47 -19.5t19 -46.5q0 -30 -19 -48.5t-47 -18.5z" />
    <glyph glyph-name="Zeta" unicode="&#x396;" horiz-adv-x="1073" 
d="M961 0h-854q-27 0 -46.5 19.5t-19.5 46.5q0 12 8 33l7 12l727 1072h-646q-27 0 -46.5 19.5t-19.5 47.5t20 47.5t48 19.5h780q29 -1 47.5 -20.5t18.5 -46.5q0 -15 -5 -23q-5 -9 -10 -22l-734 -1072h725q28 0 47 -19.5t19 -47.5q0 -27 -19 -46.5t-47 -19.5z" />
    <glyph glyph-name="Eta" unicode="&#x397;" horiz-adv-x="1162" 
d="M194 -5q-28 0 -47.5 19t-19.5 46v1191q0 28 19.5 47t47.5 19q27 0 46.5 -19t19.5 -47v-573h658v573q0 27 20 46.5t47 19.5q28 0 47 -19t19 -47v-1191q0 -27 -19.5 -46t-47.5 -19q-27 0 -46.5 19t-19.5 46v485h-658v-485q0 -27 -19.5 -46t-46.5 -19z" />
    <glyph glyph-name="Theta" unicode="&#x398;" horiz-adv-x="1204" 
d="M602 -12q-99 0 -187.5 36.5t-156.5 102.5q-140 138 -140 331v395q0 192 140 332q141 139 344 139q202 0 343 -139q140 -140 140 -332v-395q0 -193 -140 -331q-145 -139 -343 -139zM602 122q149 0 251 100q98 95 98 235v397q0 140 -98 235q-102 100 -251 100t-252 -100
q-99 -96 -99 -235v-397q0 -141 99 -235q103 -100 252 -100zM820 588h-456q-30 0 -49 18.5t-19 46.5q0 30 19 49.5t49 19.5h456q28 0 48 -20t20 -49q0 -27 -20 -46t-48 -19z" />
    <glyph glyph-name="Iota" unicode="&#x399;" 
d="M199 -5q-27 0 -46.5 19t-19.5 46v1191q0 29 19 47.5t47 18.5t48 -18.5t20 -47.5v-1191q0 -27 -20 -46t-48 -19z" />
    <glyph glyph-name="Kappa" unicode="&#x39a;" horiz-adv-x="1038" 
d="M199 0q-27 0 -46.5 19t-19.5 47v1185q0 28 19.5 47t46.5 19q28 0 48 -19t20 -47v-470l579 517q22 19 45 19q25 0 48 -20q21 -23 21 -49q-1 -31 -22 -48l-578 -512l627 -574q20 -17 20 -48q0 -26 -20 -46t-47 -20q-24 -1 -47 20l-626 572v-526q0 -28 -20 -47t-48 -19z" />
    <glyph glyph-name="Lambda" unicode="&#x39b;" horiz-adv-x="1197" 
d="M90 0q-30 0 -49 20t-19 47q0 14 6 29l501 1168q2 4 3 5v2l3 5q23 32 62 32q19 0 35 -12l6 -4q1 -1 7 -9l8 -10l516 -1177q5 -13 5 -27q0 -28 -20.5 -48.5t-49.5 -20.5q-44 0 -61 41l-450 1027l-440 -1027q-17 -41 -63 -41z" />
    <glyph glyph-name="Mu" unicode="&#x39c;" horiz-adv-x="1559" 
d="M187 0q-29 0 -49 19.5t-20 47.5v884q0 151 107 258t258 107q89 0 165.5 -41t130.5 -114q54 73 130.5 114t165.5 41q153 0 260 -107q106 -106 106 -258v-884q0 -28 -20 -47.5t-48 -19.5q-29 0 -49.5 19.5t-20.5 47.5v879q0 95 -67 162q-66 66 -162 66q-95 0 -160 -68
q-65 -67 -65 -160v-878q0 -28 -20.5 -48t-49.5 -20t-48.5 20t-19.5 48v879q0 92 -67 159q-68 68 -161 68q-96 0 -161 -65q-67 -67 -67 -162v-880q0 -28 -20 -47.5t-48 -19.5z" />
    <glyph glyph-name="Nu" unicode="&#x39d;" horiz-adv-x="1162" 
d="M196 -5q-29 0 -49 19.5t-20 48.5v776q0 200 121 335q132 146 340 146q220 0 355 -149q126 -142 126 -350v-758q0 -29 -19.5 -48.5t-48.5 -19.5t-49 19.5t-20 48.5v754q0 160 -95 263q-99 105 -246 105q-148 0 -236 -99q-91 -99 -91 -257v-766q0 -29 -20 -48.5t-48 -19.5z
" />
    <glyph glyph-name="Xi" unicode="&#x39e;" horiz-adv-x="974" 
d="M862 1177h-750q-30 0 -49 17.5t-19 46.5q0 28 20 49t48 21h750q28 0 47.5 -20.5t19.5 -49.5t-19.5 -46.5t-47.5 -17.5zM727 609h-482q-30 0 -48.5 17t-18.5 44q0 28 19.5 48t47.5 20h482q30 0 49.5 -18.5t19.5 -48.5q0 -29 -19 -45.5t-50 -16.5zM863 0h-755
q-29 0 -46.5 19t-17.5 49t18.5 51.5t45.5 21.5h755q28 0 47.5 -22t19.5 -51q0 -30 -19.5 -49t-47.5 -19z" />
    <glyph glyph-name="Omicron" unicode="&#x39f;" horiz-adv-x="1204" 
d="M602 -12q-99 0 -187.5 36.5t-156.5 102.5q-140 138 -140 331v395q0 192 140 332q141 139 344 139q202 0 343 -139q140 -140 140 -332v-395q0 -193 -140 -331q-145 -139 -343 -139zM602 122q149 0 251 100q98 95 98 235v397q0 140 -98 235q-102 100 -251 100t-252 -100
q-99 -96 -99 -235v-397q0 -141 99 -235q103 -100 252 -100z" />
    <glyph glyph-name="Pi" unicode="&#x3a0;" horiz-adv-x="1331" 
d="M201 0q-28 0 -48 19.5t-20 47.5v1176q0 28 19.5 48t47.5 20h929q21 0 38.5 -12.5t24.5 -31.5q5 -5 5 -24v-1176q0 -28 -20.5 -47.5t-48.5 -19.5q-29 0 -47.5 19.5t-18.5 47.5v1106h-795v-1106q0 -28 -18.5 -47.5t-47.5 -19.5z" />
    <glyph glyph-name="Rho" unicode="&#x3a1;" horiz-adv-x="1095" 
d="M199 -6q-28 0 -47 19.5t-19 46.5v1190q0 29 19.5 48t46.5 19h372q196 0 337 -136q65 -64 101.5 -153t36.5 -186q0 -198 -138 -330q-140 -135 -338 -135h-303v-317q0 -28 -20 -47t-48 -19zM267 510h305q144 0 245 103q94 99 94 229q0 63 -25 126.5t-70 110.5
q-98 104 -242 104h-307v-673z" />
    <glyph glyph-name="Sigma" unicode="&#x3a3;" horiz-adv-x="1063" 
d="M952 0h-838q-27 0 -47 19q-22 19 -22 45q0 29 20 55l467 543l-466 530q-21 27 -21 55q0 25 21 44.5t51 19.5h835q28 0 47.5 -20t19.5 -48q0 -29 -17.5 -47.5t-45.5 -18.5h-699l410 -464l8 -13q11 -20 11 -38q2 -20 -12 -40l-7 -11l-409 -474h694q28 0 47.5 -20t19.5 -49
q0 -28 -19.5 -48t-47.5 -20z" />
    <glyph glyph-name="Tau" unicode="&#x3a4;" horiz-adv-x="1037" 
d="M517 -6q-27 0 -45 19.5t-18 46.5v1124h-342q-27 0 -46.5 19.5t-19.5 47.5q0 27 19.5 46.5t46.5 19.5h822q27 0 46.5 -20t19.5 -47q0 -29 -19 -47.5t-47 -18.5h-350v-1124q0 -27 -19 -46.5t-48 -19.5z" />
    <glyph glyph-name="Upsilon" unicode="&#x3a5;" horiz-adv-x="1062" 
d="M545 0q-29 0 -48.5 19.5t-19.5 48.5v424q-168 20 -283 149q-113 126 -118 302v301q0 29 20 48t48 19q29 0 47.5 -19t18.5 -48v-294q0 -138 93 -234q94 -99 229 -99t229 97q91 97 91 236v294q0 29 19.5 48t47.5 19q29 0 47.5 -19t18.5 -48v-288q0 -178 -104 -304
q-106 -128 -270 -157v-427q0 -29 -19.5 -48.5t-46.5 -19.5z" />
    <glyph glyph-name="Phi" unicode="&#x3a6;" horiz-adv-x="1259" 
d="M628 -14q-28 0 -48 20t-20 48v54q-224 25 -368 178q-149 157 -149 378q0 222 149 377q144 153 368 178v34q0 29 20 48.5t48 19.5q29 0 49 -19.5t20 -48.5v-34q225 -23 369 -176q149 -157 149 -379t-149 -379q-149 -155 -369 -178v-53q0 -28 -20 -48t-49 -20zM560 245v838
q-165 -23 -271 -137q-110 -116 -110 -282q0 -169 110 -282q106 -114 271 -137zM697 1083v-838q164 20 273 135q109 118 109 284q0 165 -109 283q-107 113 -273 136z" />
    <glyph glyph-name="Chi" unicode="&#x3a7;" horiz-adv-x="1233" 
d="M169 -1q-27 0 -47.5 19.5t-20.5 46.5q0 24 16 46l376 541l-376 551q-16 22 -16 47q0 27 19.5 46.5t46.5 19.5q31 0 49 -23l357 -525l359 525q17 23 47 23q28 0 47.5 -20t19.5 -47q0 -24 -16 -46l-376 -551l375 -541q16 -22 16 -47q0 -27 -20 -46t-47 -19q-30 0 -47 23
l-358 514l-357 -514q-17 -23 -47 -23z" />
    <glyph glyph-name="Psi" unicode="&#x3a8;" horiz-adv-x="1198" 
d="M603 0q-28 0 -48 19.5t-20 47.5v347l-2 -3q-90 0 -172 34.5t-143 97.5q-129 132 -129 314v385q0 29 20 49t48 20q29 0 47 -19.5t18 -49.5v-388q0 -127 91 -216q91 -91 219 -91l3 -4v701q0 29 20.5 48t48.5 19q29 0 46.5 -18.5t17.5 -48.5v-697q130 0 219 91q84 86 89 220
v384q0 30 17 49.5t46 19.5q30 0 49.5 -20t19.5 -49v-385q0 -184 -128 -314q-61 -63 -142 -97.5t-170 -34.5v-344q0 -28 -18 -47.5t-47 -19.5z" />
    <glyph glyph-name="Iotadieresis" unicode="&#x3aa;" 
d="M199 -5q-27 0 -46.5 19t-19.5 46v1191q0 29 19 47.5t47 18.5t48 -18.5t20 -47.5v-1191q0 -27 -20 -46t-48 -19zM30 1435q-34 0 -57 23t-23 57q0 35 23 58t57 23q35 0 58.5 -23t23.5 -58q0 -34 -23.5 -57t-58.5 -23zM372 1435q-33 0 -56 23q-24 24 -24 57q0 34 24 58
q23 23 56 23q35 0 58 -23t23 -58q0 -34 -23 -57t-58 -23z" />
    <glyph glyph-name="Upsilondieresis" unicode="&#x3ab;" horiz-adv-x="1062" 
d="M545 0q-29 0 -48.5 19.5t-19.5 48.5v424q-168 20 -283 149q-113 126 -118 302v308q0 29 20 48t48 19q29 0 47.5 -19t18.5 -48v-301q0 -138 93 -234q94 -99 229 -99t229 97q91 97 91 236v301q0 29 19.5 48t47.5 19q29 0 47.5 -19t18.5 -48v-295q0 -178 -104 -304
q-106 -128 -270 -157v-427q0 -29 -19.5 -48.5t-46.5 -19.5zM342 1421q-34 0 -57 23t-23 57q0 35 23 58t57 23q35 0 58.5 -23t23.5 -58q0 -34 -23.5 -57t-58.5 -23zM684 1421q-33 0 -56 23q-24 24 -24 57q0 34 24 58q23 23 56 23q35 0 58 -23t23 -58q0 -34 -23 -57t-58 -23z
" />
    <glyph glyph-name="alphatonos" unicode="&#x3ac;" horiz-adv-x="1109" 
d="M532 -12q-202 0 -342 143q-67 67 -104 156.5t-37 187.5q0 203 141 347q140 143 342 143q203 0 343 -143q66 -67 103 -157.5t37 -189.5v-411q0 -29 -20 -49t-49 -20t-47 19.5t-18 49.5l-1 72q-142 -148 -348 -148zM532 121q151 0 250 105q99 102 99 249q0 150 -99 251
q-102 104 -250 104q-146 0 -248 -104q-101 -103 -101 -251q0 -146 101 -249q100 -105 248 -105zM547 1112q-28 0 -47.5 19t-19.5 47v193q0 29 19 48.5t48 19.5q27 0 46 -19.5t19 -48.5v-193q0 -27 -19 -46.5t-46 -19.5z" />
    <glyph glyph-name="epsilontonos" unicode="&#x3ad;" horiz-adv-x="712" 
d="M423 1100q-28 0 -47.5 19t-19.5 47v193q0 29 19 48.5t48 19.5q27 0 46 -19.5t19 -48.5v-193q0 -27 -19 -46.5t-46 -19.5zM592 0h-276q-114 0 -192 84q-80 82 -80 195q0 57 30.5 113.5t84.5 99.5q-54 37 -84.5 91t-30.5 114q0 114 79 190q78 76 192 78h277q29 0 48.5 -20
t19.5 -48t-19.5 -47t-48.5 -19h-267q-58 -1 -101 -38q-43 -40 -43 -98q0 -60 43 -97q39 -36 101 -38h178q30 0 49.5 -17t19.5 -46q0 -27 -19.5 -44.5t-49.5 -17.5h-178q-59 -5 -100 -47q-42 -45 -42 -103t40 -103q42 -48 103 -49h266q27 0 47.5 -19.5t20.5 -46.5t-20.5 -47
t-47.5 -20z" />
    <glyph glyph-name="etatonos" unicode="&#x3ae;" horiz-adv-x="1079" 
d="M924 -348q-28 0 -47.5 18.5t-19.5 47.5v775q0 144 -87 239q-90 99 -226 99t-230 -97q-92 -98 -92 -238v-431q0 -29 -18 -47.5t-47 -18.5q-28 0 -48 18.5t-20 47.5v432q0 195 131 332t324 137t320 -136q126 -137 126 -332v-780q0 -29 -18.5 -47.5t-47.5 -18.5zM551 1122
q-28 0 -47.5 19t-19.5 47v193q0 29 19 48.5t48 19.5q27 0 46 -19.5t19 -48.5v-193q0 -27 -19 -46.5t-46 -19.5z" />
    <glyph glyph-name="iotatonos" unicode="&#x3af;" horiz-adv-x="409" 
d="M206 1100q-28 0 -47.5 19t-19.5 47v193q0 29 19 48.5t48 19.5q27 0 46 -19.5t19 -48.5v-193q0 -27 -19 -46.5t-46 -19.5zM206 0q-28 0 -48 19.5t-20 48.5v828q0 29 20 49t49 20q28 0 47 -20t19 -49v-828q0 -29 -20 -48.5t-47 -19.5z" />
    <glyph glyph-name="upsilondieresistonos" unicode="&#x3b0;" horiz-adv-x="1053" 
d="M530 -12q-175 0 -302 122q-60 58 -94.5 135t-37.5 161v491q0 29 20.5 48.5t48.5 19.5q29 0 46.5 -19t17.5 -49v-478q0 -122 88 -210t213 -88t212 87q84 84 89 209v480q0 30 17.5 49.5t46.5 19.5q28 0 48.5 -20t20.5 -49v-481q0 -175 -129 -302q-128 -126 -305 -126z
M535 1162q-28 0 -47.5 19t-19.5 47v193q0 29 19 48.5t48 19.5q27 0 46 -19.5t19 -48.5v-193q0 -27 -19 -46.5t-46 -19.5zM293 1095q-35 0 -60 25t-25 60q0 36 25 60.5t60 24.5q36 0 61.5 -24.5t25.5 -60.5t-25.5 -60.5t-61.5 -24.5zM778 1095q-34 0 -59.5 25t-25.5 60
t25.5 60t59.5 25q36 0 61 -24.5t25 -60.5q0 -35 -25 -60t-61 -25z" />
    <glyph glyph-name="alpha" unicode="&#x3b1;" horiz-adv-x="1109" 
d="M532 -12q-202 0 -342 143q-67 67 -104 156.5t-37 187.5q0 203 141 347q140 143 342 143q203 0 343 -143q66 -67 103 -157.5t37 -189.5v-411q0 -29 -20 -49t-49 -20t-47 19.5t-18 49.5l-1 72q-142 -148 -348 -148zM532 121q151 0 250 105q99 102 99 249q0 150 -99 251
q-102 104 -250 104q-146 0 -248 -104q-101 -103 -101 -251q0 -146 101 -249q100 -105 248 -105z" />
    <glyph glyph-name="beta" unicode="&#x3b2;" horiz-adv-x="939" 
d="M205 -274q-28 0 -48 20t-20 48v1166q2 154 102 254t252 100q139 0 238 -94q100 -95 100 -233q0 -85 -36.5 -156t-100.5 -114q108 -42 170 -130q66 -93 66 -210q0 -153 -106 -261q-108 -111 -270 -116h-6q-27 0 -46 19t-19 47q0 27 19 46.5t46 19.5h6q94 0 170 73
q75 72 75 179q0 104 -74 173q-71 68 -172 68h-37q-31 0 -52 21.5t-21 51.5q0 31 21 52.5t52 21.5q84 0 136 65q51 64 51 146q0 85 -60 143t-150 58q-91 0 -150 -57q-65 -61 -66 -168v-1165q0 -28 -20.5 -48t-49.5 -20z" />
    <glyph glyph-name="gamma" unicode="&#x3b3;" horiz-adv-x="949" 
d="M474 -347q-29 0 -48.5 19t-19.5 48v333l-368 818q-6 13 -6 26q0 27 20 47.5t49 20.5q43 0 62 -42l312 -707l311 707q18 43 63 43q27 0 46.5 -21t19.5 -48q0 -14 -5 -26l-368 -820v-331q0 -29 -20 -48t-48 -19z" />
    <glyph glyph-name="delta" unicode="&#x3b4;" horiz-adv-x="1064" 
d="M532 -12q-201 0 -344 143q-69 67 -106.5 156.5t-37.5 187.5q0 99 37.5 189.5t106.5 157.5q143 143 344 143h15q3 -1 14 -1l-239 244q-14 14 -14 45q0 26 18.5 42.5t45.5 16.5h558q27 0 46 -18.5t19 -43.5q0 -29 -18.5 -47.5t-46.5 -18.5h-412l346 -349q156 -150 156 -360
q0 -98 -37.5 -187.5t-104.5 -156.5q-68 -68 -157.5 -105.5t-188.5 -37.5zM532 121q151 0 253 105q102 104 102 249q0 147 -102 251q-104 104 -253 104q-147 0 -251 -104t-104 -251q0 -145 104 -249q102 -105 251 -105z" />
    <glyph glyph-name="epsilon" unicode="&#x3b5;" horiz-adv-x="712" 
d="M592 0h-276q-114 0 -192 84q-80 82 -80 195q0 57 30.5 113.5t84.5 99.5q-54 37 -84.5 91t-30.5 114q0 114 79 190q78 76 192 78h277q29 0 48.5 -20t19.5 -48t-19.5 -47t-48.5 -19h-267q-58 -1 -101 -38q-43 -40 -43 -98q0 -60 43 -97q39 -36 101 -38h178q30 0 49.5 -17
t19.5 -46q0 -27 -19.5 -44.5t-49.5 -17.5h-178q-59 -5 -100 -47q-42 -45 -42 -103t40 -103q42 -48 103 -49h266q27 0 47.5 -19.5t20.5 -46.5t-20.5 -47t-47.5 -20z" />
    <glyph glyph-name="zeta" unicode="&#x3b6;" horiz-adv-x="883" 
d="M415 -404h-1q-27 1 -45.5 19.5t-18.5 42.5q0 26 19 43.5t46 17.5h5q62 2 101 44q41 44 41 98q0 63 -45 103q-42 34 -104 36h-47q-147 0 -238 97q-84 90 -84 223q0 113 77 204l533 653h-537q-30 0 -49.5 18.5t-19.5 47.5q0 28 20 48t49 20h676q28 0 48 -20t20 -48
q0 -19 -9 -33l-9 -14l-617 -753q-50 -57 -50 -124q0 -82 54 -136q53 -53 133 -53h47q123 0 197 -74q76 -78 76 -190q0 -114 -77 -191q-79 -79 -191 -79z" />
    <glyph glyph-name="eta" unicode="&#x3b7;" horiz-adv-x="1079" 
d="M924 -348q-28 0 -47.5 18.5t-19.5 47.5v775q0 144 -87 239q-90 99 -226 99t-230 -97q-92 -98 -92 -238v-431q0 -29 -18 -47.5t-47 -18.5q-28 0 -48 18.5t-20 47.5v432q0 195 131 332t324 137t320 -136q126 -137 126 -332v-780q0 -29 -18.5 -47.5t-47.5 -18.5z" />
    <glyph glyph-name="theta" unicode="&#x3b8;" horiz-adv-x="1064" 
d="M532 -12q-201 0 -344 143q-69 67 -106.5 156.5t-37.5 187.5q0 99 37.5 189.5t106.5 157.5q143 143 344 143q99 0 188.5 -37.5t157.5 -105.5q68 -69 105 -158.5t37 -188.5q0 -98 -37.5 -187.5t-104.5 -156.5q-68 -68 -157.5 -105.5t-188.5 -37.5zM182 538h699
q-23 126 -119 208q-100 84 -230 84q-128 0 -229 -84q-98 -81 -121 -208zM532 121q130 0 230 84q96 82 119 208h-699q23 -127 121 -208q101 -84 229 -84z" />
    <glyph glyph-name="iota" unicode="&#x3b9;" horiz-adv-x="409" 
d="M206 0q-28 0 -48 19.5t-20 48.5v828q0 29 20 49t49 20q28 0 47 -20t19 -49v-828q0 -29 -20 -48.5t-47 -19.5z" />
    <glyph glyph-name="kappa" unicode="&#x3ba;" horiz-adv-x="953" 
d="M823 -1q-29 1 -50 22l-404 415l-102 -97v-271q0 -29 -20 -48.5t-48 -19.5t-47 19.5t-19 48.5v828q0 29 19.5 49t46.5 20q29 0 48.5 -20t19.5 -49v-373l447 424q18 17 42 18h86q28 0 47.5 -19.5t19.5 -48.5q0 -28 -19.5 -47.5t-47.5 -19.5h-55l-320 -302l403 -414
q19 -19 19 -47t-19 -48t-47 -20z" />
    <glyph glyph-name="lambda" unicode="&#x3bb;" horiz-adv-x="976" 
d="M97 -3q-29 0 -48.5 20t-19.5 48q-1 17 12 39l382 637l-258 460q-14 20 -14 43q0 27 19 45.5t48 18.5q33 0 56 -29l659 -1174q12 -18 12 -38q0 -27 -20.5 -48.5t-47.5 -21.5q-34 0 -53 31l-325 578l-349 -579q-19 -30 -53 -30z" />
    <glyph glyph-name="uni03BC" unicode="&#x3bc;" horiz-adv-x="1103" 
d="M202 -346q-28 0 -48.5 19.5t-20.5 46.5v1179q0 29 20 48t48 19q29 0 47.5 -19t18.5 -48v-430q0 -141 91 -238q89 -98 230 -98q135 0 224 98q87 95 89 235v433q0 29 19.5 48t47.5 19q29 0 47.5 -19t18.5 -48v-433q0 -196 -126 -330q-128 -137 -320 -137q-190 0 -321 134
v-416q0 -27 -19 -45t-46 -18z" />
    <glyph glyph-name="nu" unicode="&#x3bd;" horiz-adv-x="936" 
d="M479 0h-9q-43 -2 -62 42l-372 829q-6 13 -6 27q0 27 19.5 47t48.5 20q43 0 62 -42l312 -709l312 708q19 42 62 42q29 0 48 -19.5t19 -46.5q0 -14 -6 -28l-372 -828q-12 -29 -36 -37l-14 -4q-1 -1 -6 -1z" />
    <glyph glyph-name="xi" unicode="&#x3be;" horiz-adv-x="800" 
d="M677 55q76 -76 76 -191t-77 -192q-78 -78 -191 -78h-1q-27 1 -45.5 18.5t-18.5 43.5t19 43.5t46 17.5h5q58 2 101 45q41 41 41 97q0 65 -47 106q-43 35 -107 35h-50q-156 0 -271 113q-113 113 -113 270q0 107 54 193q55 87 142 134q-143 96 -143 265q0 143 99 239
q97 95 236 97h2h203q27 0 47 -19.5t20 -46.5q0 -29 -19.5 -48t-47.5 -19h-211q-82 0 -139 -57q-59 -59 -59 -143q0 -79 54 -140q53 -59 131 -67h148q28 0 47.5 -19.5t19.5 -46.5q0 -29 -19.5 -47.5t-47.5 -18.5h-133q-108 0 -179 -76q-72 -77 -72 -179q0 -106 73 -179
q72 -75 177 -75h53q120 0 197 -75z" />
    <glyph glyph-name="omicron" unicode="&#x3bf;" horiz-adv-x="1064" 
d="M532 -12q-201 0 -344 143q-69 67 -106.5 156.5t-37.5 187.5q0 99 37.5 189.5t106.5 157.5q143 143 344 143q99 0 188.5 -37.5t157.5 -105.5q68 -69 105 -158.5t37 -188.5q0 -98 -37.5 -187.5t-104.5 -156.5q-68 -68 -157.5 -105.5t-188.5 -37.5zM532 121q151 0 253 105
q102 104 102 249q0 147 -102 251q-104 104 -253 104q-147 0 -251 -104t-104 -251q0 -145 104 -249q102 -105 251 -105z" />
    <glyph glyph-name="pi" unicode="&#x3c0;" horiz-adv-x="1197" 
d="M326 -1q-28 0 -48.5 19.5t-20.5 47.5v761h-146q-29 0 -48 20t-19 49t19.5 49t47.5 20h989q29 0 48 -20t19 -50t-19.5 -49t-48.5 -19h-144v-761q0 -28 -20 -47.5t-48 -19.5q-29 0 -46.5 19.5t-17.5 47.5v761h-433v-761q0 -28 -17.5 -47.5t-46.5 -19.5z" />
    <glyph glyph-name="rho" unicode="&#x3c1;" horiz-adv-x="1109" 
d="M157 -347q-28 0 -48 20t-20 49v753q0 99 37.5 189.5t106.5 157.5q68 68 157.5 105.5t187.5 37.5t187.5 -37.5t157.5 -105.5q67 -67 104.5 -157.5t37.5 -189.5q0 -98 -37.5 -187.5t-104.5 -156.5q-68 -68 -157.5 -105.5t-187.5 -37.5q-103 0 -195 40t-161 114v-420
q0 -30 -18 -49.5t-47 -19.5zM578 121q150 0 252 105q103 103 103 249q0 148 -103 251q-104 104 -252 104t-252 -104t-104 -251q0 -145 104 -249q102 -105 252 -105z" />
    <glyph glyph-name="sigma1" unicode="&#x3c2;" horiz-adv-x="934" 
d="M615 -404h-6q-27 1 -45.5 18.5t-18.5 43.5t19 43.5t46 17.5h5q62 2 102 45t40 97q0 68 -53 106q-46 33 -116 33h-57q-133 0 -246 62q-110 62 -174 167q-67 109 -67 241l2 6q-3 0 -1 2q1 1 -1 1q0 98 37.5 187.5t105.5 157.5q143 143 344 143q96 0 183 -33.5t146 -95.5
q24 -26 24 -55t-24 -49q-18 -18 -42 -18q-32 0 -61 28q-100 87 -233 87q-143 0 -246 -108q-98 -104 -98 -243q-1 0 -1 -1v-1l-1 -2q0 -139 99 -240q98 -104 242 -106h86q121 0 197 -74q76 -78 76 -190q0 -111 -76 -189q-78 -79 -187 -81z" />
    <glyph glyph-name="sigma" unicode="&#x3c3;" horiz-adv-x="1129" 
d="M532 -12q-201 0 -344 143q-69 67 -106.5 156.5t-37.5 187.5q0 99 37.5 189.5t106.5 157.5q143 143 344 143h485q29 0 48.5 -19.5t19.5 -48.5q0 -28 -19.5 -47.5t-48.5 -19.5h-148q151 -145 151 -355q0 -98 -37.5 -187.5t-104.5 -156.5q-68 -68 -157.5 -105.5
t-188.5 -37.5zM532 121q151 0 253 105q102 104 102 249q0 147 -102 251q-104 104 -253 104q-147 0 -251 -104t-104 -251q0 -145 104 -249q102 -105 251 -105z" />
    <glyph glyph-name="tau" unicode="&#x3c4;" horiz-adv-x="887" 
d="M442 0q-27 0 -45.5 19.5t-18.5 47.5v763l-259 1q-29 0 -48 18.5t-19 45.5q0 29 19 49t48 20h644q29 0 49 -20t20 -49t-19.5 -47t-49.5 -18h-252v-763q0 -28 -20 -47.5t-49 -19.5z" />
    <glyph glyph-name="upsilon" unicode="&#x3c5;" horiz-adv-x="1046" 
d="M523 -12q-175 0 -302 122q-60 58 -94.5 135t-37.5 161v491q0 29 20.5 48.5t48.5 19.5q29 0 46.5 -19t17.5 -49v-478q0 -122 88 -210t213 -88t212 87q84 84 89 209v480q0 30 17.5 49.5t46.5 19.5q28 0 48.5 -20t20.5 -49v-481q0 -175 -129 -302q-128 -126 -305 -126z" />
    <glyph glyph-name="phi" unicode="&#x3c6;" horiz-adv-x="1166" 
d="M581 -346q-29 0 -49 19.5t-20 48.5v263q-201 23 -334 159q-134 139 -134 330q0 112 42 200q40 85 124 165q19 19 47 19q25 0 45 -19q20 -18 20 -40q0 -19 -21 -51q-63 -61 -91 -116q-38 -71 -38 -155q0 -144 95 -244q92 -98 245 -118v645q2 102 65 165q65 64 175 64
q96 0 178 -54q106 -74 151 -180q41 -97 41 -239q0 -212 -136 -362q-64 -70 -152 -114t-189 -55v-263q0 -29 -18 -48.5t-46 -19.5zM645 734v-619q153 23 246 133q95 111 95 262q0 229 -131 315q-49 30 -96 30q-52 0 -83 -32.5t-31 -88.5z" />
    <glyph glyph-name="chi" unicode="&#x3c7;" horiz-adv-x="1028" 
d="M115 -298q-29 0 -49 20.5t-20 48.5q2 24 12 39l376 535l-360 513q-12 16 -12 38q0 27 20 47t49 20q33 0 56 -29l330 -471l332 472q20 29 56 29q28 0 48.5 -20.5t20.5 -46.5q0 -19 -13 -38l-361 -514l377 -535q12 -18 12 -40q0 -28 -19.5 -48t-48.5 -20q-34 0 -55 30
l-349 495l-347 -495q-21 -30 -55 -30z" />
    <glyph glyph-name="psi" unicode="&#x3c8;" horiz-adv-x="1170" 
d="M589 -373q-28 0 -47.5 20t-19.5 49v300q-176 23 -301 147q-132 129 -132 294v460q0 29 20.5 48.5t48.5 19.5q29 0 46.5 -19t17.5 -49v-462q0 -115 92 -204q87 -86 208 -106v770q0 29 20 49t48 20q29 0 47 -19.5t18 -49.5v-769q120 24 204 108q89 89 89 200v461
q0 30 18 50t47 20t48.5 -20.5t19.5 -49.5v-465q-5 -166 -132 -287q-127 -122 -294 -146v-301q0 -30 -18.5 -49.5t-47.5 -19.5z" />
    <glyph glyph-name="omega" unicode="&#x3c9;" horiz-adv-x="1304" 
d="M409 -12q-129 0 -221 92t-92 222v582q0 29 19.5 48t47.5 19q27 0 46.5 -19t20.5 -48l2 -581v-6q-1 -1 -1 -6q6 -68 58 -117t123 -49q73 0 129 56q52 55 52 131v571q0 29 19 48.5t47 19.5q27 0 47 -19.5t20 -48.5v-576v-5q-1 -1 -1 -6q4 -68 56 -120q52 -50 123 -50
q76 0 129 53t55 125v580q0 29 19.5 48t47.5 19t47.5 -19t19.5 -48v-584q0 -130 -95 -220q-95 -92 -224 -92q-75 0 -139 32t-107 89q-45 -58 -109.5 -89.5t-138.5 -31.5z" />
    <glyph glyph-name="iotadieresis" unicode="&#x3ca;" horiz-adv-x="409" 
d="M206 0q-28 0 -48 19.5t-20 48.5v828q0 29 20 49t49 20q28 0 47 -20t19 -49v-828q0 -29 -20 -48.5t-47 -19.5z" />
    <glyph glyph-name="upsilondieresis" unicode="&#x3cb;" horiz-adv-x="1046" 
d="M523 -12q-175 0 -302 122q-60 58 -94.5 135t-37.5 161v491q0 29 20.5 48.5t48.5 19.5q29 0 46.5 -19t17.5 -49v-478q0 -122 88 -210t213 -88t212 87q84 84 89 209v480q0 30 17.5 49.5t46.5 19.5q28 0 48.5 -20t20.5 -49v-481q0 -175 -129 -302q-128 -126 -305 -126z
M348 1099q-34 0 -57 23t-23 57q0 35 23 58t57 23q35 0 58.5 -23t23.5 -58q0 -34 -23.5 -57t-58.5 -23zM690 1099q-33 0 -56 23q-24 24 -24 57q0 34 24 58q23 23 56 23q35 0 58 -23t23 -58q0 -34 -23 -57t-58 -23z" />
    <glyph glyph-name="omicrontonos" unicode="&#x3cc;" horiz-adv-x="1064" 
d="M532 -12q-201 0 -344 143q-69 67 -106.5 156.5t-37.5 187.5q0 99 37.5 189.5t106.5 157.5q143 143 344 143q99 0 188.5 -37.5t157.5 -105.5q68 -69 105 -158.5t37 -188.5q0 -98 -37.5 -187.5t-104.5 -156.5q-68 -68 -157.5 -105.5t-188.5 -37.5zM532 121q151 0 253 105
q102 104 102 249q0 147 -102 251q-104 104 -253 104q-147 0 -251 -104t-104 -251q0 -145 104 -249q102 -105 251 -105zM541 1099q-28 0 -47.5 19t-19.5 47v193q0 29 19 48.5t48 19.5q27 0 46 -19.5t19 -48.5v-193q0 -27 -19 -46.5t-46 -19.5z" />
    <glyph glyph-name="upsilontonos" unicode="&#x3cd;" horiz-adv-x="1046" 
d="M531 1061q-28 0 -47.5 19t-19.5 47v193q0 29 19 48.5t48 19.5q27 0 46 -19.5t19 -48.5v-193q0 -27 -19 -46.5t-46 -19.5zM523 -12q-175 0 -302 122q-60 58 -94.5 135t-37.5 161v491q0 29 20.5 48.5t48.5 19.5q29 0 46.5 -19t17.5 -49v-478q0 -122 88 -210t213 -88t212 87
q84 84 89 209v480q0 30 17.5 49.5t46.5 19.5q28 0 48.5 -20t20.5 -49v-481q0 -175 -129 -302q-128 -126 -305 -126z" />
    <glyph glyph-name="omegatonos" unicode="&#x3ce;" horiz-adv-x="1304" 
d="M409 -12q-129 0 -221 92t-92 222v599q0 29 19.5 48t47.5 19q27 0 46.5 -19t20.5 -48l2 -598v-6q-1 -1 -1 -6q6 -68 58 -117t123 -49q73 0 129 56q52 55 52 131v588q0 29 19 48.5t47 19.5q27 0 47 -19.5t20 -48.5v-593v-5q-1 -1 -1 -6q4 -68 56 -120q52 -50 123 -50
q76 0 129 53t55 125v597q0 29 19.5 48t47.5 19t47.5 -19t19.5 -48v-601q0 -130 -95 -220q-95 -92 -224 -92q-75 0 -139 32t-107 89q-45 -58 -109.5 -89.5t-138.5 -31.5zM696 1103q-28 0 -47.5 19t-19.5 47v193q0 29 19 48.5t48 19.5q27 0 46 -19.5t19 -48.5v-193
q0 -27 -19 -46.5t-46 -19.5z" />
    <glyph glyph-name="uni03D0" unicode="&#x3d0;" horiz-adv-x="969" 
d="M526 -6q-184 1 -293 118q-100 109 -100 264v584q2 154 102 254t252 100q139 0 238 -94q100 -95 100 -233q0 -85 -36.5 -156t-100.5 -114q108 -42 170 -130q66 -93 66 -210q0 -153 -114 -267q-116 -116 -284 -116zM530 126h9q101 0 177 74q77 77 77 181t-74 175
q-71 69 -172 69h-37q-31 0 -52 21.5t-21 51.5q0 31 21 52.5t52 21.5h6q79 1 132 67q49 62 49 144q0 85 -60 143t-150 58q-92 0 -153 -59q-67 -64 -67 -172v-569q0 -108 77 -183q75 -75 186 -75z" />
    <glyph glyph-name="theta1" unicode="&#x3d1;" horiz-adv-x="1031" 
d="M433 -4h-6q-29 0 -49 20t-20 49q0 28 20 48t49 20q122 0 199 74q79 75 80 183v120h-264q-165 0 -282 117t-117 283q0 164 117 281t282 117q164 0 281 -117t117 -281v-265h72q29 0 49.5 -20t20.5 -47q0 -29 -20.5 -48.5t-49.5 -19.5h-72v-121q-2 -160 -121 -276
q-120 -115 -286 -117zM436 645h270v269q-2 108 -77 183q-77 75 -185 75q-110 0 -187 -77q-78 -78 -78 -188q0 -108 75 -183q76 -78 182 -79z" />
    <glyph glyph-name="uni03F0" unicode="&#x3f0;" horiz-adv-x="1056" 
d="M111 -1q-27 0 -46 19q-21 20 -21 45q0 27 22 49l367 372l-357 369q-20 20 -20 46q0 27 21 48q20 20 46 20q28 0 49 -21l354 -367l353 366q21 21 50 21q26 0 46 -20t20 -46q0 -27 -21 -48l-355 -367l366 -371q20 -20 20 -49q0 -27 -19.5 -46t-46.5 -19q-28 0 -46 19
l-367 371l-365 -370q-21 -21 -50 -21z" />
    <glyph glyph-name="uni0401" unicode="&#x401;" horiz-adv-x="985" 
d="M872 0h-677q-27 2 -44.5 21.5t-17.5 46.5v1184q0 29 20 48t48 19h671q28 0 47 -19t19 -48q0 -28 -19 -47.5t-47 -19.5h-605v-450h436q29 0 48 -18.5t19 -46.5t-19 -46.5t-48 -18.5h-436v-472h605q28 0 47 -19.5t19 -46.5q0 -30 -19 -48.5t-47 -18.5zM382 1435
q-34 0 -57 23t-23 57q0 35 23 58t57 23q35 0 58.5 -23t23.5 -58q0 -34 -23.5 -57t-58.5 -23zM724 1435q-33 0 -56 23q-24 24 -24 57q0 34 24 58q23 23 56 23q35 0 58 -23t23 -58q0 -34 -23 -57t-58 -23z" />
    <glyph glyph-name="uni0402" unicode="&#x402;" horiz-adv-x="1134" 
d="M908 828q122 -135 122 -332v-519q0 -181 -96 -279q-99 -101 -272 -102h-5q-28 0 -48 20t-20 48t20 47.5t48 19.5q123 0 181.5 61t58.5 185v519q0 142 -82 238q-88 98 -221 98q-140 0 -241 -96q-103 -98 -103 -237v-432q0 -28 -19.5 -47.5t-47.5 -19.5t-47.5 19.5
t-19.5 47.5v1036h-33q-27 0 -46 17.5t-19 43.5q0 27 18.5 43.5t46.5 16.5h33v23q0 29 20 49t47 20q29 0 48 -20t19 -49v-23h313q28 0 46.5 -16.5t18.5 -43.5q0 -29 -17.5 -45t-47.5 -16h-313v-326q62 87 149 136q91 51 195 51q191 0 314 -136z" />
    <glyph glyph-name="uni0403" unicode="&#x403;" horiz-adv-x="1034" 
d="M201 -1q-28 0 -48 19.5t-20 48.5v1176q0 23 14.5 41.5t37.5 24.5l10 2h755q28 0 47.5 -20.5t19.5 -49.5t-19.5 -47t-47.5 -18h-683v-1109q0 -29 -18.5 -48.5t-47.5 -19.5zM592 1464q-27 0 -46.5 19t-19.5 48q0 22 13 39.5t36 24.5l212 102q9 3 19 3q27 0 47 -20t20 -49
q0 -22 -13 -39t-35 -24l-213 -101q-10 -3 -20 -3z" />
    <glyph glyph-name="uni0404" unicode="&#x404;" horiz-adv-x="1247" 
d="M674 -12q-171 0 -326 92q-154 92 -239 239q-93 157 -93 335q0 175 91 329q90 152 238 243q157 94 336 94q134 0 255 -50t217 -147l-1 -1l1 -1q21 -19 21 -47q0 -27 -21.5 -47t-49.5 -20q-27 0 -46 19q-2 0 -2 1v1l-3 2q-158 153 -372 153q-193 0 -343 -130
q-72 -61 -119 -144.5t-61 -178.5h572q29 0 48.5 -20t19.5 -48t-19.5 -48t-48.5 -20h-573q25 -196 170 -330q150 -139 352 -139q221 0 376 155q17 17 47 17q29 0 50 -19.5t21 -47.5q0 -27 -20 -47q-196 -195 -478 -195z" />
    <glyph glyph-name="uni0405" unicode="&#x405;" horiz-adv-x="966" 
d="M576 0h-371q-36 0 -57 19t-21 52q0 61 78 61h388q88 0 157 69t69 174q0 102 -73 169q-68 62 -160 62h-166q-150 0 -257 97q-107 96 -107 247q0 74 28.5 143.5t78.5 118.5q110 105 257 105h368q79 0 79 -65q0 -33 -21 -51t-58 -18h-390q-83 0 -146 -63t-63 -160
q0 -93 63 -158q64 -64 146 -64h183q155 -2 263 -102q109 -104 109 -254q0 -155 -111 -269q-110 -113 -266 -113z" />
    <glyph glyph-name="uni0406" unicode="&#x406;" 
d="M199 -5q-27 0 -46.5 19t-19.5 46v1191q0 29 19 47.5t47 18.5t48 -18.5t20 -47.5v-1191q0 -27 -20 -46t-48 -19z" />
    <glyph glyph-name="uni0407" unicode="&#x407;" 
d="M199 -5q-27 0 -46.5 19t-19.5 46v1191q0 29 19 47.5t47 18.5t48 -18.5t20 -47.5v-1191q0 -27 -20 -46t-48 -19zM36 1426q-34 0 -57 23t-23 57q0 35 23 58t57 23q35 0 58.5 -23t23.5 -58q0 -34 -23.5 -57t-58.5 -23zM378 1426q-33 0 -56 23q-24 24 -24 57q0 34 24 58
q23 23 56 23q35 0 58 -23t23 -58q0 -34 -23 -57t-58 -23z" />
    <glyph glyph-name="uni0408" unicode="&#x408;" horiz-adv-x="504" 
d="M-54 3q-28 0 -47.5 20t-19.5 47q0 29 19.5 49t47.5 20h6q121 2 204 89q81 83 81 206v806q0 29 20.5 49t48.5 20t46.5 -20t18.5 -49v-812q-5 -182 -126 -303q-122 -122 -299 -122z" />
    <glyph glyph-name="uni0409" unicode="&#x409;" horiz-adv-x="2015" 
d="M108 -1h-6q-27 0 -47 20t-20 48q0 29 20 49t47 20h5q119 2 174.5 62t55.5 183v862q0 26 18 46t44 22h751q29 0 49.5 -19.5t20.5 -48.5v-517h379q153 0 261 -110q107 -109 107 -262q0 -151 -107 -252q-107 -102 -261 -102h-449q-29 0 -49 19.5t-20 47.5v1106h-606v-798
q-2 -180 -97 -277t-270 -99zM1220 138l382 1q101 0 165 67q63 65 63 154q0 92 -66 158q-68 68 -166 68h-378v-448z" />
    <glyph glyph-name="uni040A" unicode="&#x40a;" horiz-adv-x="1844" 
d="M201 0q-28 0 -48 19.5t-20 47.5v1175q0 29 20.5 49t48.5 20q29 0 49 -20t20 -49v-529h638v539q0 29 20 48.5t48 19.5q29 0 49.5 -19.5t20.5 -48.5v-538h391q150 0 257 -107q105 -105 105 -258q0 -149 -105 -249q-102 -100 -257 -100h-461q-28 0 -48 19.5t-20 47.5v510
h-638v-510q0 -28 -20.5 -47.5t-49.5 -19.5zM1047 138l395 1q95 0 161 66q62 62 62 149q0 90 -64 156q-69 66 -162 66h-392v-438z" />
    <glyph glyph-name="uni040B" unicode="&#x40b;" horiz-adv-x="1218" 
d="M239 0q-28 0 -48.5 19.5t-20.5 48.5v1067h-138q-25 0 -42.5 18.5t-17.5 43.5q0 26 17.5 43t42.5 17h143q8 19 26 31t39 12t37 -12t23 -31h284q26 0 42.5 -18t16.5 -43q0 -27 -16.5 -44t-42.5 -17h-279v-263q140 146 345 146q195 0 336 -138q138 -137 143 -335v-477
q0 -29 -19.5 -48.5t-47.5 -19.5q-29 0 -49 19.5t-20 48.5v476q0 139 -102 239q-101 99 -241 99q-141 0 -242 -99q-103 -101 -103 -239v-476q0 -29 -19 -48.5t-47 -19.5z" />
    <glyph glyph-name="uni040C" unicode="&#x40c;" horiz-adv-x="1038" 
d="M516 1460q-27 0 -46.5 19t-19.5 48q0 22 13 39.5t36 24.5l212 102q9 3 19 3q27 0 47 -20t20 -49q0 -22 -13 -39t-35 -24l-213 -101q-11 -3 -20 -3zM201 0q-28 0 -48 19.5t-20 47.5v1176q0 28 20 48t48 20q29 0 47.5 -19.5t18.5 -47.5v-509h82l470 555l4 3q0 6 21 12
q20 5 25 5h100q29 0 48.5 -19.5t19.5 -47.5q0 -29 -19.5 -48t-48.5 -19h-71l-428 -503l522 -559q20 -23 20 -47q0 -27 -18.5 -47t-45.5 -20q-30 1 -52 23l-541 578h-88v-533q0 -28 -18.5 -48t-47.5 -20z" />
    <glyph glyph-name="uni040E" unicode="&#x40e;" horiz-adv-x="1009" 
d="M540 1418q-89 0 -152 63q-62 62 -62 151q0 20 13.5 34t32.5 14q20 0 34 -14t14 -34v-4q2 -49 36 -82q35 -35 84 -35t84 35q35 34 37 82v4q0 20 13 34t33 14t33.5 -14t13.5 -34v-4q-2 -86 -65 -148q-64 -62 -149 -62zM169 -6q-82 0 -82 61q0 29 20 49t48 20h11q2 -1 10 -1
q103 0 163 60q49 48 103 175l6 14l-394 844q-6 14 -6 27q0 28 19 48t48 20q44 0 63 -42l337 -735l321 735q19 42 64 42q28 0 47.5 -20.5t19.5 -47.5q0 -13 -6 -27l-379 -851l-6 -13l-3 -7q-87 -191 -166 -267q-90 -84 -238 -84z" />
    <glyph glyph-name="uni040F" unicode="&#x40f;" horiz-adv-x="1253" 
d="M643 -240q-29 0 -48.5 19t-19.5 48v173h-374q-27 0 -46.5 18t-21.5 44v1178q0 29 20.5 49t48.5 20q29 0 47.5 -19.5t18.5 -49.5v-1102h718v1102q0 30 18 49.5t47 19.5t49 -20t20 -49v-1172q0 -29 -20.5 -48.5t-48.5 -19.5h-339v-173q0 -29 -20.5 -48t-48.5 -19z" />
    <glyph glyph-name="uni0410" unicode="&#x410;" horiz-adv-x="1199" 
d="M197 -5q-29 0 -49 19.5t-20 48.5v776q0 200 121 335q132 146 340 146q221 0 356 -149q126 -142 126 -350v-758q0 -29 -20.5 -48.5t-48.5 -19.5q-29 0 -49 19.5t-20 48.5v341h-667v-341q0 -29 -20.5 -48.5t-48.5 -19.5zM266 541h667v276q0 160 -95 263q-99 105 -246 105
q-148 0 -236 -99q-90 -101 -90 -257v-288z" />
    <glyph glyph-name="uni0411" unicode="&#x411;" horiz-adv-x="1107" 
d="M647 0h-476q-28 0 -48 19.5t-20 47.5v1176q0 38 36 59q5 5 17 7l10 2h690q28 0 48.5 -19.5t20.5 -47.5q0 -29 -20.5 -48t-48.5 -19h-620v-416l411 1q164 0 275 -113q112 -112 112 -275q0 -160 -112 -267t-275 -107zM236 133h413q107 0 181 76q70 75 70 172q0 105 -73 180
q-74 76 -183 76l-408 -1v-503z" />
    <glyph glyph-name="uni0412" unicode="&#x412;" horiz-adv-x="1126" 
d="M682 0h-517q-33 1 -53 34l-2 4l-3 7q-4 7 -4 23v1181q0 28 19 48.5t48 20.5h499q146 0 249 -106q48 -49 75.5 -118.5t27.5 -142.5q0 -83 -35.5 -154t-99.5 -120q77 -52 120 -133t43 -175q0 -152 -108 -260q-107 -109 -259 -109zM240 741h438q88 2 147 64q60 63 60 146
q0 100 -66 166q-65 61 -159 63h-420v-439zM240 137h442q89 0 159 70q65 68 65 162q0 93 -64 163q-66 70 -156 72h-446v-467z" />
    <glyph glyph-name="uni0413" unicode="&#x413;" horiz-adv-x="1034" 
d="M200 -1q-28 0 -48 19.5t-20 48.5v1176q0 23 14.5 41.5t37.5 24.5l10 2h755q28 0 47.5 -20.5t19.5 -49.5t-19.5 -47t-47.5 -18h-683v-1109q0 -29 -18.5 -48.5t-47.5 -19.5z" />
    <glyph glyph-name="uni0414" unicode="&#x414;" horiz-adv-x="1290" 
d="M1106 134h43q29 0 49 -19.5t20 -47.5v-265q0 -29 -19.5 -48.5t-47.5 -19.5q-29 0 -48.5 19.5t-19.5 48.5v198h-886v-198q0 -29 -19 -48.5t-47 -19.5q-29 0 -48.5 19.5t-19.5 48.5v269q2 27 21 45t47 18h27l325 1127q5 22 23.5 36t43.5 14h490q27 0 46.5 -19.5t19.5 -48.5
v-1109zM972 134v1042h-372l-302 -1042h674z" />
    <glyph glyph-name="uni0415" unicode="&#x415;" horiz-adv-x="985" 
d="M872 0h-677q-27 2 -44.5 21.5t-17.5 46.5v1184q0 29 20 48t48 19h671q28 0 47 -19t19 -48q0 -28 -19 -47.5t-47 -19.5h-605v-450h436q29 0 48 -18.5t19 -46.5t-19 -46.5t-48 -18.5h-436v-472h605q28 0 47 -19.5t19 -46.5q0 -30 -19 -48.5t-47 -18.5z" />
    <glyph glyph-name="uni0416" unicode="&#x416;" horiz-adv-x="1749" 
d="M129 -1q-27 0 -46 20.5t-19 47.5q0 26 20 49l518 590l-425 470h-68q-28 0 -47.5 19.5t-19.5 47.5t19.5 47.5t47.5 19.5h100q17 0 30 -7l8 -4q9 -6 16 -15l465 -514h74v473q0 28 20 48t48 20q29 0 47.5 -19.5t18.5 -47.5v-473h84l469 519l4 3q0 5 20 13q13 4 26 4h99
q29 0 49 -19.5t20 -47.5q0 -29 -20 -48t-49 -19h-72l-427 -471l523 -591q19 -19 19 -47q0 -27 -18.5 -47t-44.5 -20q-29 0 -52 23l-544 614h-86v-569q0 -28 -18.5 -48t-47.5 -20q-28 0 -48 19.5t-20 47.5v569h-84l-539 -615q-22 -22 -50 -22z" />
    <glyph glyph-name="uni0417" unicode="&#x417;" horiz-adv-x="921" 
d="M501 1h-388q-29 0 -49 20t-20 48q0 29 20 49t49 20h385q90 2 153 66q62 62 62 153q0 94 -64 166q-65 75 -154 75h-245q-29 0 -49 20t-20 48q0 29 20 49.5t49 20.5h247q89 0 153 64q64 66 64 156q0 89 -63 152q-64 62 -154 64h-384q-29 0 -49 20t-20 49t20 49t49 20h388
q151 0 251 -100q104 -102 104 -250q0 -90 -42 -167.5t-116 -128.5q72 -53 115 -134q43 -83 43 -174q0 -148 -104 -252q-103 -103 -251 -103z" />
    <glyph glyph-name="uni0418" unicode="&#x418;" horiz-adv-x="1334" 
d="M205 0h-11q-26 2 -43 20.5t-17 45.5v1179q0 28 18 47t47 19t48.5 -19.5t19.5 -46.5v-988l815 1028q20 26 53 26q29 0 47.5 -19.5t18.5 -47.5v-1178q0 -28 -19 -47t-47 -19t-47.5 19t-19.5 47v987l-814 -1027q-3 -4 -7 -7l-6 -5q-16 -13 -36 -14z" />
    <glyph glyph-name="uni0419" unicode="&#x419;" horiz-adv-x="1337" 
d="M205 0h-11q-26 2 -43 20.5t-17 45.5v1179q0 28 18 47t47 19t48.5 -19.5t19.5 -46.5v-988l815 1028q20 26 53 26q29 0 47.5 -19.5t18.5 -47.5v-1178q0 -28 -19 -47t-47 -19t-47.5 19t-19.5 47v987l-814 -1027q-3 -4 -7 -7l-6 -5q-16 -13 -36 -14zM684 1415q-89 0 -152 63
q-62 62 -62 151q0 20 13.5 34t32.5 14q20 0 34 -14t14 -34v-4q2 -49 36 -82q35 -35 84 -35t84 35q35 34 37 82v4q0 20 13 34t33 14t33.5 -14t13.5 -34v-4q-2 -86 -65 -148q-64 -62 -149 -62z" />
    <glyph glyph-name="uni041A" unicode="&#x41a;" horiz-adv-x="1038" 
d="M201 0q-28 0 -48 19.5t-20 47.5v1176q0 28 20 48t48 20q29 0 47.5 -19.5t18.5 -47.5v-509h82l470 555l4 3q0 6 21 12q20 5 25 5h100q29 0 48.5 -19.5t19.5 -47.5q0 -29 -19.5 -48t-48.5 -19h-71l-428 -503l522 -559q20 -23 20 -47q0 -27 -18.5 -47t-45.5 -20
q-30 1 -52 23l-541 578h-88v-533q0 -28 -18.5 -48t-47.5 -20z" />
    <glyph glyph-name="uni041B" unicode="&#x41b;" horiz-adv-x="1197" 
d="M90 0q-30 0 -49 20t-19 47q0 14 6 29l501 1168q2 4 3 5v2l3 5q23 32 62 32q19 0 35 -12l6 -4q1 -1 7 -9l8 -10l516 -1177q5 -13 5 -27q0 -28 -20.5 -48.5t-49.5 -20.5q-44 0 -61 41l-450 1027l-440 -1027q-17 -41 -63 -41z" />
    <glyph glyph-name="uni041C" unicode="&#x41c;" horiz-adv-x="1559" 
d="M187 0q-29 0 -49 19.5t-20 47.5v884q0 151 107 258t258 107q89 0 165.5 -41t130.5 -114q54 73 130.5 114t165.5 41q153 0 260 -107q106 -106 106 -258v-884q0 -28 -20 -47.5t-48 -19.5q-29 0 -49.5 19.5t-20.5 47.5v879q0 95 -67 162q-66 66 -162 66q-95 0 -160 -68
q-65 -67 -65 -160v-878q0 -28 -20.5 -48t-49.5 -20t-48.5 20t-19.5 48v879q0 92 -67 159q-68 68 -161 68q-96 0 -161 -65q-67 -67 -67 -162v-880q0 -28 -20 -47.5t-48 -19.5z" />
    <glyph glyph-name="uni041D" unicode="&#x41d;" horiz-adv-x="1162" 
d="M194 -5q-28 0 -47.5 19t-19.5 46v1191q0 28 19.5 47t47.5 19q27 0 46.5 -19t19.5 -47v-573h658v573q0 27 20 46.5t47 19.5q28 0 47 -19t19 -47v-1191q0 -27 -19.5 -46t-47.5 -19q-27 0 -46.5 19t-19.5 46v485h-658v-485q0 -27 -19.5 -46t-46.5 -19z" />
    <glyph glyph-name="uni041E" unicode="&#x41e;" horiz-adv-x="1204" 
d="M602 -12q-99 0 -187.5 36.5t-156.5 102.5q-140 138 -140 331v395q0 192 140 332q141 139 344 139q202 0 343 -139q140 -140 140 -332v-395q0 -193 -140 -331q-145 -139 -343 -139zM602 122q149 0 251 100q98 95 98 235v397q0 140 -98 235q-102 100 -251 100t-252 -100
q-99 -96 -99 -235v-397q0 -141 99 -235q103 -100 252 -100z" />
    <glyph glyph-name="uni041F" unicode="&#x41f;" horiz-adv-x="1331" 
d="M201 0q-28 0 -48 19.5t-20 47.5v1176q0 28 19.5 48t47.5 20h929q21 0 38.5 -12.5t24.5 -31.5q5 -5 5 -24v-1176q0 -28 -20.5 -47.5t-48.5 -19.5q-29 0 -47.5 19.5t-18.5 47.5v1106h-795v-1106q0 -28 -18.5 -47.5t-47.5 -19.5z" />
    <glyph glyph-name="uni0420" unicode="&#x420;" horiz-adv-x="1095" 
d="M199 -6q-28 0 -47 19.5t-19 46.5v1190q0 29 19.5 48t46.5 19h372q196 0 337 -136q65 -64 101.5 -153t36.5 -186q0 -198 -138 -330q-140 -135 -338 -135h-303v-317q0 -28 -20 -47t-48 -19zM267 510h305q144 0 245 103q94 99 94 229q0 63 -25 126.5t-70 110.5
q-98 104 -242 104h-307v-673z" />
    <glyph glyph-name="uni0421" unicode="&#x421;" horiz-adv-x="1125" 
d="M591 -12q-199 0 -338 147q-64 67 -99 155.5t-35 184.5v362q0 95 35.5 184t98.5 156q139 147 338 147q145 0 257 -72q100 -66 163 -172q14 -23 14 -43q0 -26 -20.5 -45.5t-49.5 -19.5q-31 0 -47 25q-49 90 -121 138q-81 54 -196 54q-148 0 -247 -110q-92 -101 -92 -241
v-364q0 -140 92 -241q98 -111 247 -111q115 0 196 54q69 46 121 138q16 25 47 25q29 0 49.5 -19.5t20.5 -45.5q0 -20 -14 -43q-69 -112 -163 -172q-112 -71 -257 -71z" />
    <glyph glyph-name="uni0422" unicode="&#x422;" horiz-adv-x="1037" 
d="M517 -6q-27 0 -45 19.5t-18 46.5v1124h-342q-27 0 -46.5 19.5t-19.5 47.5q0 27 19.5 46.5t46.5 19.5h822q27 0 46.5 -20t19.5 -47q0 -29 -19 -47.5t-47 -18.5h-350v-1124q0 -27 -19 -46.5t-48 -19.5z" />
    <glyph glyph-name="uni0423" unicode="&#x423;" horiz-adv-x="982" 
d="M153 -6q-82 0 -82 61q0 29 20 49t48 20h11q2 -1 10 -1q103 0 163 60q49 48 103 175l6 14l-394 844q-6 14 -6 27q0 28 19 48t48 20q44 0 63 -42l337 -735l321 735q19 42 64 42q28 0 47.5 -20.5t19.5 -47.5q0 -13 -6 -27l-379 -851l-6 -13l-3 -7q-87 -191 -166 -267
q-90 -84 -238 -84z" />
    <glyph glyph-name="uni0424" unicode="&#x424;" horiz-adv-x="1267" 
d="M636 -14q-29 0 -48.5 20t-19.5 48v53q-223 20 -373 176q-152 158 -152 381q0 222 152 380q147 153 373 176v33q0 29 19.5 48.5t48.5 19.5t47 -19t18 -49v-34q222 -25 366 -178q148 -158 148 -377q0 -221 -148 -377q-145 -154 -366 -179v-54q0 -28 -18 -48t-47 -20z
M568 243v841q-167 -20 -277 -136q-112 -118 -112 -284q0 -167 112 -285q110 -116 277 -136zM701 1083v-840q166 23 270 138q108 119 108 283q0 163 -108 282q-103 114 -270 137z" />
    <glyph glyph-name="uni0425" unicode="&#x425;" horiz-adv-x="1048" 
d="M115 3q-29 0 -49 20.5t-20 48.5q2 24 12 39l376 535l-360 513q-12 17 -12 38q0 27 20 47t49 20q33 0 56 -29l330 -471l332 472q20 29 56 29q28 0 48.5 -20.5t20.5 -46.5q0 -19 -13 -38l-361 -514l377 -535q12 -18 12 -40q0 -28 -19.5 -48t-48.5 -20q-34 0 -55 30
l-349 495l-347 -495q-21 -30 -55 -30z" />
    <glyph glyph-name="uni0426" unicode="&#x426;" horiz-adv-x="1418" 
d="M1308 -229q-29 0 -49 19.5t-20 48.5v161h-1038q-46 0 -64 44q0 1 -2 11t-2 13v1172q0 29 20 49t48 20q29 0 47.5 -19.5t18.5 -49.5v-1102h833v1102q0 30 18.5 49.5t47.5 19.5q28 0 48.5 -20t20.5 -49v-1102h72q29 0 48 -20t19 -50v-229q0 -29 -19 -48.5t-47 -19.5z" />
    <glyph glyph-name="uni0427" unicode="&#x427;" horiz-adv-x="1165" 
d="M964 -1q-29 0 -47 19.5t-18 49.5v455q-70 -73 -161.5 -114.5t-187.5 -41.5q-196 0 -329 141q-63 66 -97.5 154t-34.5 185v397q0 29 19 48t47 19t47.5 -19t19.5 -48v-396q0 -145 93 -246q94 -102 235 -102q143 0 246 101q103 103 103 247v394q0 29 18.5 48.5t46.5 19.5
q29 0 48.5 -19.5t19.5 -48.5v-1174q0 -29 -20 -49t-48 -20z" />
    <glyph glyph-name="uni0428" unicode="&#x428;" horiz-adv-x="1659" 
d="M1461 0h-1266q-26 2 -44 21.5t-18 45.5v1175q0 29 20 48.5t48 19.5q29 0 47.5 -19.5t18.5 -48.5v-1110h508v1110q0 29 19 48.5t47 19.5q29 0 49 -19.5t20 -48.5v-1110h482v1106q0 31 17.5 51.5t46.5 20.5t49 -19.5t20 -48.5v-1175q0 -26 -18.5 -45.5t-45.5 -21.5z" />
    <glyph glyph-name="uni0429" unicode="&#x429;" horiz-adv-x="1704" 
d="M1599 -229q-29 0 -49 19.5t-20 48.5v161h-1329q-28 0 -48 19.5t-20 47.5v1175q0 29 20 48.5t48 19.5q29 0 47.5 -19.5t18.5 -48.5v-1110h508v1110q0 29 19 48.5t47 19.5q29 0 49 -19.5t20 -48.5v-1110h482v1106q0 31 17.5 51.5t46.5 20.5t49 -19.5t20 -48.5v-1109h12
q16 0 28 -6q15 9 34 9q28 0 47 -19.5t19 -48.5v-229q0 -29 -19 -48.5t-47 -19.5z" />
    <glyph glyph-name="uni042A" unicode="&#x42a;" horiz-adv-x="1260" 
d="M832 0h-472q-29 0 -49 19.5t-20 47.5v1110h-194q-29 0 -48.5 18.5t-19.5 47.5q0 28 19.5 48t48.5 20h262q30 0 48.5 -19t18.5 -49v-6q-1 -1 -1 -6v-505h407q154 0 261 -110q106 -109 106 -262q0 -151 -106 -252q-105 -102 -261 -102zM425 133h410q98 0 166 70
q66 71 66 157q0 93 -69 162q-70 70 -168 70h-405v-459z" />
    <glyph glyph-name="uni042B" unicode="&#x42b;" horiz-adv-x="1489" 
d="M672 0h-471q-28 0 -48 19.5t-20 47.5v1175q0 29 20 48.5t48 19.5q29 0 47.5 -18.5t18.5 -47.5v-518h405q154 0 261 -110q106 -109 106 -262q0 -151 -106 -252q-105 -102 -261 -102zM1287 3q-29 0 -48 19.5t-19 48.5v1160q0 29 20 48.5t48 19.5q27 0 47 -19.5t20 -48.5
v-1160q0 -29 -20 -48.5t-48 -19.5zM267 133h409q98 0 166 70q66 71 66 157q0 94 -68 162q-70 70 -168 70h-405v-459z" />
    <glyph glyph-name="uni042C" unicode="&#x42c;" horiz-adv-x="1096" 
d="M672 0h-471q-28 0 -48 19.5t-20 47.5v1175q0 29 20 48.5t48 19.5q30 0 48 -16.5t18 -45.5v-522h405q154 0 261 -110q106 -109 106 -262q0 -151 -106 -252q-105 -102 -261 -102zM267 133h409q98 0 166 70q66 71 66 157q0 94 -68 162q-70 70 -168 70h-405v-459z" />
    <glyph glyph-name="uni042D" unicode="&#x42d;" horiz-adv-x="1247" 
d="M543 -12q-282 0 -477 195q-20 17 -20 47q0 28 20.5 48t49.5 20t47 -18q155 -155 380 -155q198 0 349 141q144 136 169 328h-572q-29 0 -49 20t-20 48t20 48t49 20h570q-29 193 -179 323t-342 130q-220 0 -375 -155l-2 -2q-19 -19 -47 -19q-27 0 -48.5 20t-21.5 47
q0 28 21 49l6 5q192 192 466 192q180 0 337 -94q151 -92 239 -243q90 -153 90 -329q0 -179 -93 -335q-89 -149 -239 -239q-156 -92 -328 -92z" />
    <glyph glyph-name="uni042E" unicode="&#x42e;" horiz-adv-x="1846" 
d="M1138 -13q-127 0 -242 45t-206 128q-189 172 -215 423h-208v-516q0 -29 -18.5 -48.5t-47.5 -19.5q-28 0 -48 19.5t-20 48.5v1173q0 29 20 49t48 20q29 0 47.5 -19.5t18.5 -49.5v-519h207q13 123 69 233.5t146 192.5q188 174 449 174q134 0 255.5 -51t214.5 -144
t143.5 -215t50.5 -257t-50.5 -256.5t-143.5 -214.5q-93 -94 -214.5 -145t-255.5 -51zM1138 125q106 0 202.5 40.5t170.5 114.5q73 73 113 170t40 204q0 106 -40 203t-113 170t-170 113.5t-203 40.5q-142 0 -267 -72q-122 -70 -190 -188q-72 -125 -72 -267
q0 -107 40.5 -203.5t114.5 -170.5t170.5 -114.5t203.5 -40.5z" />
    <glyph glyph-name="uni042F" unicode="&#x42f;" horiz-adv-x="1108" 
d="M906 0q-28 0 -48.5 19.5t-20.5 47.5v329h-302l-353 -375q-23 -20 -49 -20q-25 0 -48 20q-22 19 -22 48q0 27 21 49l285 303q-142 48 -227 162q-88 118 -88 270q0 195 139 328q136 130 336 130h377q28 0 48.5 -19.5t20.5 -48.5v-1176q0 -28 -20.5 -47.5t-48.5 -19.5z
M529 534h308v639h-311q-142 0 -239 -97q-95 -95 -95 -223q0 -130 94 -222q95 -97 243 -97z" />
    </font>
</defs>
</svg>
